<svg viewBox="0 0 128 128">
	<g>
		<path d="M116.6,75.8l0-16.4c0,0,0.2-8.7-11.9-8.7c-12.1,0-14.1,8.5-14.1,9.5h7.5c0,0,1.2-3.3,6.3-3.3
			c5.1,0,5.2,2.1,5.2,2.5c0,0.4,0,3.3-7.6,3.3c-7.6,0-12.4,3.4-12.4,8.7c0,1.3,0.4,1.7,0.4,1.8c-1.8-0.1-3.8-0.1-5.8-0.1L84.6,39
			h-7.7l0,15.2c0,0-2.7-3.3-8.6-3.3C55,51,55,65.6,55,65.6c0,4.5,1.3,7.1,2.4,8.5c-1.7,0.2-3.5,0.4-5.2,0.7L40.4,41.9h-9.4l-14.8,42
			c-3.9,1.6-7.4,3.2-10.3,5c0,0,52.1-20.7,116-11.6C122,77.3,120.6,76.6,116.6,75.8z M35.7,49.9l5.4,15.7H30.2L35.7,49.9z M25.2,80.8
			l2.9-8.4h15l1.4,3.7C38.1,77.3,31.4,78.9,25.2,80.8z M73.1,73.3c-2.2,0-4.4,0-6.6,0c-2.3-1.4-3.9-4.1-3.9-7.3
			c0-4.5,3.2-8.2,7.2-8.2c4,0,7.2,3.7,7.2,8.2C77,69.2,75.4,71.9,73.1,73.3z M109.9,70c0,0-0.3,4.2-6.8,4.2c-6.5,0-6.3-2.8-6.3-2.8
			s0-3.3,5.8-3.3c4.3,0,7.3-1.7,7.3-1.7V70z"/>
	</g>
</svg>
