<svg viewBox="0 0 128 128">
	<g>
		<path d="M31.2,52.1l-4.5,22.6c0.7,0.2,1.5,0.2,2.3,0.2c6.4,0,11.5-5.2,11.5-11.5
			C40.5,57.8,36.5,53.1,31.2,52.1z"/>
		<path d="M99,74.9c0.8,0,1.6-0.1,2.3-0.2l-4.5-22.6c-5.3,1-9.3,5.7-9.3,11.3
			C87.5,69.8,92.7,74.9,99,74.9z"/>
		<path d="M110.4,120.8l-2.3-11.7c-3,0.6-6,0.9-9.1,0.9c-9.7,0-18.7-2.9-26.1-8c2.6-2.9,4.9-6.1,6.8-9.6
			c5.5,3.7,12.1,5.8,19.3,5.8c2.3,0,4.6-0.2,6.8-0.7l-2.2-11.1c-1.5,0.3-3.1,0.5-4.6,0.5c-5.5,0-10.5-1.9-14.5-5
			c2-5.8,3-12.1,3-18.6c0-6.5-1.1-12.7-3-18.6c2.9-2.3,6.3-3.9,10-4.6l-2.2-11.1c-4.6,0.9-8.8,2.7-12.5,5.1c-2-3.4-4.3-6.6-6.8-9.5
			c5.1-3.4,10.9-5.9,17.1-7.1L87.7,6C79,7.7,70.9,11.4,64,16.6C57.1,11.4,49,7.7,40.3,6L38,17.7c6.2,1.2,12,3.7,17.1,7.1
			c-2.6,2.9-4.9,6.1-6.8,9.5c-3.7-2.5-8-4.3-12.5-5.1l-2.2,11.1c3.7,0.7,7.1,2.3,10,4.6c-1.9,5.8-3,12.1-3,18.6
			c0,6.5,1.1,12.7,3,18.6c-4,3.1-9.1,5-14.5,5c-1.6,0-3.1-0.2-4.6-0.5l-2.2,11.1c2.2,0.4,4.5,0.7,6.8,0.7c7.1,0,13.7-2.1,19.3-5.8
			c2,3.4,4.3,6.6,6.8,9.6c-7.4,5-16.4,8-26.1,8c-3.1,0-6.2-0.3-9.1-0.9l-2.3,11.7c3.7,0.7,7.5,1.1,11.4,1.1c13.1,0,25.3-4.3,35-11.6
			c9.8,7.3,21.9,11.6,35,11.6C102.9,121.9,106.7,121.5,110.4,120.8z M52.4,63.4c0-0.8,0-1.6,0.1-2.4c0.1,0.8,0.1,1.6,0.1,2.4
			c0,0.8,0,1.6-0.1,2.4C52.4,65,52.4,64.2,52.4,63.4z M57.2,42.9c1.8-3.7,4.1-7.1,6.8-10.2c2.7,3.1,5,6.5,6.8,10.2
			c-4.2,5.8-6.7,12.9-6.7,20.5c0,7.7,2.5,14.8,6.7,20.5c-1.8,3.7-4.1,7.1-6.8,10.2c-2.7-3.1-5-6.5-6.8-10.2
			c4.2-5.8,6.7-12.9,6.7-20.5C63.9,55.7,61.4,48.6,57.2,42.9z M75.6,63.4c0,0.8,0,1.6-0.1,2.4c-0.1-0.8-0.1-1.6-0.1-2.4
			c0-0.8,0-1.6,0.1-2.4C75.6,61.8,75.6,62.6,75.6,63.4z"/>
	</g>
</svg>
