<svg viewBox="0 0 128 128">
	<g>
		<path d="M22.1,43.5c-4,0-7.2,3.2-7.2,7.2l0,30c0,4,3.2,7.2,7.2,7.2c4,0,7.2-3.2,7.2-7.2v-30
			C29.2,46.7,26,43.5,22.1,43.5z"/>
		<polygon points="32,44.9 32,44.9 32,44.9 		"/>
		<path d="M79.8,16.6l5-9.1c0.3-0.5,0.1-1.1-0.4-1.4c-0.5-0.3-1.1-0.1-1.3,0.4l-5,9.2
			c-4.2-1.9-9-2.9-14-2.9c-5,0-9.8,1.1-14,2.9l-5.1-9.2c-0.3-0.5-0.9-0.7-1.3-0.4c-0.5,0.3-0.7,0.9-0.4,1.3l5,9.1
			c-9.8,5.1-16.5,14.7-16.5,25.8l64.5,0C96.2,31.3,89.6,21.7,79.8,16.6z M49.3,30.7c-1.5,0-2.7-1.2-2.7-2.7c0-1.5,1.2-2.7,2.7-2.7
			c1.5,0,2.7,1.2,2.7,2.7C52,29.5,50.8,30.7,49.3,30.7z M78.7,30.7c-1.5,0-2.7-1.2-2.7-2.7c0-1.5,1.2-2.7,2.7-2.7
			c1.5,0,2.7,1.2,2.7,2.7C81.4,29.5,80.2,30.7,78.7,30.7z"/>
		<path d="M32,44.9l0,46.5c0,4.2,3.4,7.6,7.6,7.6l5.2,0l0,15.9c0,4,3.2,7.2,7.2,7.2c4,0,7.2-3.2,7.2-7.2
			l0-15.9l9.7,0l0,15.9c0,3.9,3.2,7.2,7.2,7.2c4,0,7.2-3.2,7.2-7.2l0-15.9l5.2,0c4.2,0,7.6-3.4,7.6-7.6l0-46.5L32,44.9z"/>
		<path d="M113.1,50.7c0-4-3.2-7.2-7.2-7.2c-4,0-7.2,3.2-7.2,7.2l0,30c0,4,3.2,7.2,7.2,7.2
			c4,0,7.2-3.2,7.2-7.2C113.1,80.6,113.1,50.7,113.1,50.7z"/>
	</g>
</svg>
