<svg viewBox="0 0 128 128">
	<g>
		<path d="M101.8,64c-2.8-1.7-4.6-3.4-5.3-5c7.9-2.4,16.5-5.4,25.5-8.6c-0.7-0.5-1.5-0.6-2.3-0.4
			c-1.6,0.6-12.3,4.4-26.9,8.8c-0.4,0.1-0.8,0.3-1.3,0.4c-0.1,0-0.2,0.1-0.3,0.1c-1.5,0.5-3.1,0.9-4.7,1.4c-0.4,0.1-0.7,0.2-1.1,0.3
			c0,0,0,0,0,0c-1.5,0.4-3,0.8-4.5,1.3c-0.4,0.1-0.8,0.2-1.3,0.3c-1.9,0.5-3.8,1-5.7,1.5c-1.8,0.5-3.7,1-5.6,1.4
			c-1.9,0.5-3.8,0.9-5.7,1.4c-1.9,0.5-3.9,0.9-5.8,1.3c-1.9,0.4-3.9,0.8-5.8,1.2c-0.7,0.1-1.4,0.3-2.1,0.4c-1.2,0.2-2.4,0.4-3.6,0.6
			c-0.1,0-0.1,0-0.2,0c-1.9,0.3-3.7,0.6-5.6,0.9c-2,0.3-3.9,0.5-5.8,0.8c-2,0.2-3.9,0.4-5.8,0.6c-0.1,0-0.2,0-0.3,0
			c-1.9,0.1-3.7,0.2-5.5,0.3c-3.7,0.1-7.3,0-11-0.4c3.6,0.4,7.2,0.2,10.8,0l0,0c0,0,0.1,0,0.1,0c0,0,0,0,0,0l0,0
			c1.6-0.1,3.5-0.2,5.5-0.4c0.1,0,0.2,0,0.3,0c1.8-0.2,3.7-0.4,5.9-0.7c1.8-0.2,3.8-0.5,5.8-0.9c1.8-0.3,3.7-0.6,5.7-1
			c0,0,0.1,0,0.1,0c0.3,0,0.5-0.1,0.8-0.2c0.8-0.2,1.6-0.3,2.4-0.5c0.9-0.2,1.8-0.3,2.7-0.5c0.5-0.1,0.9-0.2,1.4-0.3
			c1.4-0.3,2.9-0.6,4.3-0.9c1.8-0.4,3.7-0.8,5.7-1.3c1.9-0.5,3.8-0.9,5.8-1.4c1.9-0.5,3.8-1,5.8-1.5c1.8-0.5,3.6-1,5.4-1.5
			c0.1,0,0.2,0,0.3-0.1c1.8-0.5,3.7-1.1,5.6-1.6c0,0,0.1,0,0.1,0c0.3-0.1,0.6-0.2,0.8-0.2c1.5-0.4,3-0.9,4.5-1.4c0,0,0,0,0.1,0
			c0.2-0.1,0.4-0.1,0.6-0.2c1-0.3,2-0.6,4.1-1.3c-0.3-1.3,0.3-2.9,1.1-4.6c-1.3,1.1-2.1,2.6-2.3,4.3c-3.3-4.8-7.4-8-12.4-7.6
			c-0.4,0-0.9,0.1-1.3,0.2c1.9,0.1,3.3,0.9,4.8,3.2c-3.9-2.2-6.5-2.8-9.9-2.5c-0.8,0.1-1.7,0.2-2.6,0.3c5,0.7,8.3,3.4,10.3,7.3
			l0.1,0.2c-2.7-2.8-8.1-5.3-13-5.8c-2.2-0.3-4.6-0.2-7.2,0.1c-1.9,0.2-4,0.6-6.2,1.2c-1.9,0.5-3.9,1.1-6.1,1.8
			c0.9,0.4,1.8,1.1,2.7,1.8c0.2,0.1,0.3,0.3,0.5,0.4c0.2,0.1,0.3,0.3,0.5,0.4c0,0,0,0,0,0c0,0-0.1,0-0.1,0c-0.1-0.1-0.2-0.2-0.3-0.3
			c-0.2-0.1-0.3-0.3-0.5-0.4c0.2,0.2,0.5,0.5,0.8,0.7c-3.2-2-6.7-2.2-10.3-1.6c1.1,0.4,2.7,1.1,4.1,2.4c0.2,0.2,0.4,0.3,0.6,0.5
			c0,0,0.1,0.1,0.1,0.1c0,0-0.1,0-0.1,0c0,0,0,0,0,0c-0.2-0.2-0.4-0.4-0.6-0.5c0.2,0.2,0.4,0.4,0.6,0.6c-1.1-0.7-2.2-1.1-3.3-1.5
			c-0.2-0.1-0.5-0.1-0.7-0.2c-0.4-0.1-0.7-0.1-1.1-0.2c-0.2,0-0.5,0-0.7-0.1c-0.6,0-1.1,0-1.7,0c-0.2,0-0.4,0-0.5,0
			c-0.3,0-0.5,0.1-0.8,0.1c-1.1,0.2-2.1,0.4-2.9,0.6c-0.4,0.1-0.8,0.2-1.1,0.3c-0.1,0-0.3,0.1-0.4,0.1c-0.4,0.1-0.7,0.2-1,0.4
			c-0.4,0.2-0.8,0.3-1,0.4c0.2,0,0.3,0.1,0.5,0.2c1.2,0.5,2.8,1.6,3.9,2.7c0,0,0,0,0,0c0.1,0.1,0.2,0.2,0.3,0.3
			c-0.1,0-0.1-0.1-0.2-0.1C38.2,62,38.1,62,38,61.9c0,0,0,0,0,0l0.2,0.2c-2.7-1.5-4.6-1.8-6.7-1.8c-0.6,0-1.2,0-1.9,0.1
			c-1.9,0.1-4,0.4-6,0.7c-1.9,0.3-3.8,0.7-5.4,1.1c-1,0.3-1.9,0.6-2.7,0.9c-0.7,0.3-1.3,0.6-1.9,0.8c-2.7,1.4-5.4,3.3-6.8,6.1
			c-0.7,1.7-1.2,3.7-0.6,5.5c0.3,0.9,1.1,1.6,1.9,2c2.2,0.8,4.6,1.1,6.9,1.3c1.4,0.1,2.7,0.2,4.1,0.3c0.4,0,0.7,0,1.1,0
			c1.4,0.1,2.9,0.1,4.5,0.1c1.8,0,3.7,0,5.6-0.1c1.8-0.1,3.7-0.1,5.6-0.2c1.6-0.1,3.3-0.2,5-0.4c0.1,0,0.1,0,0.2,0c0.1,0,0.3,0,0.4,0
			c1.8-0.2,3.6-0.3,5.4-0.6c1.8-0.2,3.7-0.5,5.6-0.7c1.6-0.2,3.2-0.5,4.7-0.8c0.3-0.1,0.6-0.1,1-0.2c2-0.4,3.8-0.8,5.6-1.2
			c2-0.5,3.9-1,5.6-1.5c1.1-0.3,2.3-0.7,3.3-1c0.9-0.3,1.8-0.6,2.6-1c2.1-0.8,4-1.6,6-2.5c0.1,0,0.2-0.1,0.3-0.1
			c2.4-1.1,4.6-2.3,6.7-3.7c0.1,0,0.2-0.1,0.2-0.1c-0.9,2.2-0.4,6.1-0.4,6.1c1.4-4,3.1-7.6,5.6-9.8c1,0.9,1.7,2.5,2.3,4.6
			c0.3-2.9-0.2-4.5-0.5-5.1C97,62.4,99.3,63.3,101.8,64z"/>
	</g>
</svg>
