<svg viewBox="0 0 128 128">
	<g>
		<path d="M66.4,6C82.7,5.1,87,21.3,87,21.3L57.4,51c0,0-4.3-16.3-20.6-15.3L66.4,6z"/>
		<path d="M43,91.2c0,0-1.9,1.9-6.7,7.7c-5.3,6.2-2.4,15.8,3.3,19.6c6.7,4.8,16.7,4.8,22,0
			c11.5-11.5,33-34.9,36.3-39.7c3.3-4.8,8.1-17.7-3.3-27.7c-6.2-5.7-14.8-13.4-14.8-13.4L55,62.9c0,0-2.4-14.3-13.9-19.1
			c-6.2-2.4-10,0.5-12.4,3.8c-6.7,10.5,0.5,23,12.9,33c10,8.6,21.5,17.7,21.5,28.2c0,3.8-1.9,6.2-4.8,8.1c-3.3,1.9-8.6,0.5-9.6-2.4
			l7.2-8.6c0,0-1.9-3.8-4.8-7.2C48.3,95,44,92.1,43,91.2"/>
	</g>
</svg>
