<svg viewBox="0 0 128 128">
	<g>
		<path d="M19,76.2l-2.1,5.7H6l15.1-35.5H32l14.6,35.5H35.4l-2.1-5.7H19z M26.2,56.9l-4.4,11.6h8.6
			L26.2,56.9z"/>
		<path d="M78.6,50l-3.9,8.1c-3.6-2.1-8.8-4-11.8-4c-1.8,0-2.9,0.6-2.9,1.9c0,5.2,18.5,2.1,18.5,14.9
			c0,7.5-6.7,11.1-14.6,11.1c-6,0-12.6-2.1-17.1-5.6l3.9-8c3.6,3.1,9.6,5.4,13.2,5.4c2.2,0,3.6-0.8,3.6-2.4c0-5.4-18.5-2-18.5-14.5
			c0-6.8,5.8-11.2,14.7-11.2C69.1,45.9,74.7,47.5,78.6,50z"/>
		<path d="M112.8,81.8l-0.1-21l-7.1,17.5h-6.9l-7.1-17.5v21h-9.3V46.3h11.3l8.6,19.6l8.6-19.6H122v35.5
			H112.8z"/>
	</g>
</svg>
