<svg viewBox="0 0 128 128">
	<g>
		<polygon points="87.5,73.5 65.6,88.2 68.8,93 87.2,120.5 109.1,105.9 90.7,78.3"/>
		<polygon points="59.9,91.9 46.9,100.6 43.2,103.1 50.5,114 67.2,102.8 63.1,96.8"/>
		<polygon points="99.8,65.3 93.7,69.4 96.9,74.2 101,80.2 111.7,73.2 104.5,62.3"/>
		<polygon points="24.4,66.9 37.4,58.2 34.1,53.2 26.3,41.5 9.4,52.9 20.7,69.3"/>
		<polygon points="43.1,54.4 65,39.8 61.6,34.8 43.4,7.5 21.5,22.1 39.7,49.4"/>
		<polygon points="71.2,35.6 77.3,31.5 82,28.4 70.9,11.8 60.1,19 67.9,30.6"/>
		<polygon points="22.3,36.9 18.1,30.8 11.9,34.9 16.1,41.1"/>
		<polygon points="34.2,109.2 38.3,115.4 44.3,111.5 40.4,105.1"/>
		<polygon points="103,19.1 6,83.9 24.1,111.4 122,46.1"/>
	</g>
</svg>
