<svg viewBox="0 0 128 128">
	<g>
		<path d="M81.5,44.5c1.6,0,2.9-1.3,2.9-2.9c0-0.6-0.2-1.1-0.4-1.5c-0.5,0.3-1.2,0.5-1.9,0.5
			c-1.1,0-2.1-0.4-2.6-1.1c-0.6,0.5-0.9,1.3-0.9,2.1C78.6,43.2,79.9,44.5,81.5,44.5z"/>
		<path d="M122,70.2c0.2-6-0.4-11.4-0.4-11.4c-1.7-10.3-8.3-18.5-8.3-18.5c-7.1-12-24.2-13-24.2-13
			c-1.3,0-14.8,0-19.3,3.6s-12.1,7.8-12.1,7.8c-7.6,0.8-13.2,0-23.3,0C7.7,38.7,6,61.7,6,61.7s1.5-1.1,3-1.2l0,0
			c9.1-10.8,44.5-6.8,44.5-6.8v0.7c-37.7-2.5-43.8,6.1-43.8,6.1l0,0c0.2,0,0.4,0.1,0.6,0.2c1.8,1,5.9,3.7,15.3,3.7
			c4.5,0,12.5-3.7,21-3.7c3.7,0,6.3,0,6.3,0s9.1,3.4,14.6,9.7c3.1,3.5,4.3,6.7,4.9,9.1c0.1,1.1,0.3,2.2,0.7,3.3
			c0.1,0.3,0.1,0.5,0.2,0.7c0,0,0,0,0,0c1.5,4.4,4.7,9.2,11.2,13.1c17.2,10.2,37.4-0.1,37.4-9.5C122,78.8,122,70.2,122,70.2
			L122,70.2z M81.5,37.2c2.4,0,4.3,1.9,4.3,4.3c0,2.4-1.9,4.3-4.3,4.3c-2.4,0-4.3-1.9-4.3-4.3C77.2,39.2,79.1,37.2,81.5,37.2z
			 M63,48.3c0,0-11.4,0.7-2.7-8c12.2-10.4,15.6-9.6,15.9-9.2c0.3,0.3,1,1.1,0.7,3.8C75.1,44.9,64.9,48.3,63,48.3z"/>
	</g>
</svg>
