<svg viewBox="0 0 128 128">
	<g>
		<path d="M99.3,87.9c-0.2,0.1-0.4,0.3-0.6,0.4c-1.2,0.8-2.5,1.7-3.8,2.4c-6.5,3.6-13.5,5.7-20.8,6.7
			c-5.5,0.8-11.1,0.9-16.6,0.4c-4.8-0.4-9.6-1.3-14.2-2.8c-5-1.6-9.8-3.7-14.1-6.8c-0.1-0.1-0.3-0.2-0.4-0.2
			c-1.3-0.6-2.6,0.1-2.7,1.5c0,0.3,0,0.6,0.1,0.9c1.1,5.9,2.3,11.7,3.4,17.6c0.4,2,1.3,3.7,2.7,5.1c1.1,1.1,2.4,2.1,3.8,2.9
			c2.6,1.6,5.5,2.6,8.4,3.5c6.3,1.8,12.8,2.5,21.7,2.6c2.9,0,8-0.4,13-1.5c3.9-0.8,7.7-2,11.3-3.8c1.9-1,3.8-2.2,5.3-3.7
			c1.4-1.4,2.3-3.1,2.7-5c1.1-5.9,2.2-11.7,3.3-17.6c0.1-0.3,0.1-0.7,0.1-1C101.8,88,100.5,87.3,99.3,87.9z"/>
		<path d="M64,53.9c-4.4,0-8,3.5-8,8c0,4.4,3.5,8,8,8c4.4,0,8-3.6,8-8C72,57.5,68.5,54,64,53.9z"/>
		<path d="M112.9,18.9c-0.7-1-1.7-1.9-2.7-2.7c-2.2-1.7-4.7-3-7.4-4c-5.6-2.2-11.3-3.6-17.2-4.5
			C78.5,6.5,71.3,6,63.7,6c-6.8,0.1-13.9,0.5-21,1.6c-5,0.8-10,1.9-14.8,3.5c-3.2,1.1-6.3,2.4-9.1,4.3c-1.3,0.9-2.6,1.9-3.6,3.2
			c-1.3,1.6-1.8,3.4-1.5,5.4c0.6,4,1.2,8,1.9,12c1,5.9,2,11.8,3,17.7c1.1,6.5,2.3,13.1,3.4,19.6c0.3,1.5,0.9,2.8,1.9,3.9
			c0.7,0.7,1.4,1.4,2.1,2c2.7,2.2,5.7,3.7,8.9,5c7.6,3,15.6,4.4,23.7,4.9c5.9,0.3,11.8,0.1,17.7-0.7c5-0.7,9.9-1.8,14.7-3.5
			c3.5-1.3,6.9-2.8,10-5.1c1.3-1,2.5-2,3.5-3.3c0.7-0.9,1.1-1.8,1.3-2.9c1.5-8.6,3-17.1,4.4-25.7c1.3-8,2.6-15.9,3.9-23.9
			C114.4,22.1,114,20.4,112.9,18.9z M63.9,77.9c-8.8,0-15.9-7.2-15.9-16c0-8.8,7.2-15.9,16-15.9C72.9,46,80,53.2,80,62
			C79.9,70.8,72.7,77.9,63.9,77.9z M95.8,22.1c-0.5,0.5-1,1-1.6,1.3c-1.6,1-3.5,1.5-5.3,2c-3.5,0.9-7,1.4-10.6,1.8
			c-4.7,0.5-9.4,0.7-13.9,0.7c-5.5,0-10.7-0.2-15.9-0.9c-3.9-0.5-7.8-1.1-11.5-2.3c-1.1-0.4-2.2-0.9-3.2-1.4c-0.5-0.3-1-0.7-1.4-1.1
			c-0.7-0.8-0.7-1.6,0-2.4c0.4-0.5,1-0.8,1.5-1.2c1.6-0.9,3.3-1.4,5-1.9c3.6-0.9,7.3-1.5,11-1.9c6-0.6,12.1-0.8,18.2-0.6
			c5.6,0.2,11.1,0.6,16.7,1.6c2.6,0.5,5.2,1,7.6,2c0.9,0.4,1.7,0.8,2.5,1.3c0.4,0.2,0.8,0.6,1.1,1C96.3,20.7,96.3,21.5,95.8,22.1z"
			/>
	</g>
</svg>
