<svg viewBox="0 0 128 128">
	<g>
		<path d="M61,51.6c-3.9,0-6.7,3.4-6.7,6.5c-0.1,3.3,2.6,5.8,5.6,5.8c3.8,0,6.7-2.8,6.7-6.1
			C66.5,54.4,64.4,51.6,61,51.6z"/>
		<path d="M95.7,65.2c-8.8,0-16.5-7.2-16.3-16.9c0.2-9.1,8.2-19,19.7-19c2.4,0,4.6,0.5,6.5,1.4
			C97.6,16,82,6,64,6C37.7,6,16.6,27.1,16.6,53.4v0.4l7-2.2c2-0.6,3.8-1.2,5.8-1.3c4.9-0.3,10.1,1.7,10.1,7.8c0,2.3-1,4.7-5.3,6.3
			c6.4,0.3,8.4,3.5,8.4,7.7c0,5-4.5,8.6-10.3,10.1l-15.7,4.2V122l14.1-13.5L43.4,122l12.4-13.5L68.3,122l12.1-13.5L93.2,122
			l12.1-13.5l6.1,7.8V58C107.9,62.3,102.3,65.2,95.7,65.2z M58.7,75.6c-8.8,0-16.5-7.2-16.3-16.9c0.2-9.1,8.2-19,19.7-19
			c9.9,0,16.2,8.2,16.2,18.1C78.4,67.4,70,75.6,58.7,75.6z"/>
		<path d="M26.6,57.7c-1.3,0-2.5,0.5-2.5,0.5v5.4c0,0,5.2-0.4,5.1-3.8C29.1,58,27.9,57.6,26.6,57.7z"/>
		<path d="M91.3,47.6c-0.1,3.3,2.6,5.8,5.6,5.8c3.8,0,6.7-2.8,6.7-6.1c0-3.4-2.1-6.2-5.5-6.2
			C94,41.1,91.3,44.5,91.3,47.6z"/>
		<path d="M27.6,69.3C26,69.4,24.4,70,24.4,70v6.3c0,0,7-1.3,6.7-4.9C30.9,69.6,29.2,69.3,27.6,69.3z"/>
	</g>
</svg>
