<svg viewBox="0 0 128 128">
	<g>
		<path d="M121.6,66.3c-0.6-2.3-1.8-4-3.9-5c-4-2-8.1-3.1-12.4-4.1c-9-2.1-18.2-3.4-27.3-4.4
			c-1-0.1-2.2-0.3-3.2-0.4c0.4-2.9,1.4-4,5-4.7c0.4,0.8,0.7,1.8,1.1,2.5c0.2,0.3,0.6,0.7,0.8,0.7c5.3,0.1,10.4-0.8,14.4-4.6
			c3.2-2.9,4.6-6.8,5.4-10.9c0.3-1.5,0.6-3,0.8-4.5c0.7-4.7,3.2-8.5,6.3-11.9c0.2-0.2,0.3-0.4,0.5-0.7c-2.4-0.8-5-0.8-7.3-0.4
			c-9.3,1.7-16.3,6.6-20.7,15.2l-0.2,0.2c-1.6-0.4-3.2-0.8-4.7-1.2c-0.3-0.1-0.5-0.6-0.7-0.9c-2.5-7.3-7-12.9-14.2-16
			c-2.2-0.9-4.5-1.2-6.9-1.9c-0.1,0-0.2-0.2-0.4-0.2h-6.9c-1.5,0.3-3,0.6-4.5,0.8c-18.1,3.8-32.2,18-35.5,36.2
			c-3.5,19.5,1.8,36.7,14.6,51.5c1.9,2.3,4.2,4.1,7,5.4c5,2.4,10.4,0.7,12.9-4.2l0.2-0.4c1.1,2.8,2.3,5.6,3.2,8.4
			c0.9,2.7,4.2,4.1,6.2,3.9c0.4,0,0.8,0,1.1-0.2c1.8-1.3,3.2,0.2,4.8,0.6h2.5c1.8-0.6,3.5-1.2,4.6-2.8c0.2-0.2,0.8-0.1,1.2,0
			c2.3,0.3,4.4-0.2,6.3-1.5c1.6-1,2.6-2.5,2.8-4.5c2.1-0.6,3.3-2.2,3.4-4.5c0-1.3-0.1-2.7-0.7-3.9c-1.7-3.5-3.7-6.8-5.5-10.2
			l-0.2-0.3l0.4,0.2c2.7,1.3,5.6,1.9,8.6,1.7c1.9-0.2,3.1-0.8,4.1-2.3c2.4,1.7,5.1,2.4,8,2.3c2.9-0.2,5.7-0.8,7.2-3.7
			c2.1,0,4.1,0.2,6.2-0.1c1.4-0.2,2.9-0.8,4.1-1.5c2.1-1.1,3.5-2.8,3-5.5c2.1-0.2,4.1-0.7,5.7-2c1.3-1,2.2-2.4,2.6-4.1
			c0.1-0.4,0.3-0.8,0.5-1.1v-3.6C121.9,67.2,121.7,66.7,121.6,66.3z M67.3,78.4L67.3,78.4L67.3,78.4L67.3,78.4z M50.9,49.3
			c-5.6,0-10.2-4.5-10.2-10.1C40.7,33.5,45,29,50.8,29c5.7,0,10.2,4.4,10.2,10C61,44.6,56.5,49.2,50.9,49.3z M91.6,45.7
			c-2.3,1.2-4.8,1.8-7.3,2c-0.7,0.1-1.1-0.1-1.2-0.8c-0.3-1.3-0.7-2.6-1-4.2l3.6,0.5v1.7h0.2l0.8-1.5l6.3,1.7
			C92.1,45.3,91.8,45.5,91.6,45.7z M103.3,21c-3.7,4-3.9,9-5,13.9c-0.7,2.7-1.3,5.5-3.1,7.8l-6-5.1c2.3-4.4,4.7-8.8,8.4-12.3l0.2-0.3
			l-0.4,0.1c-2.4,1.1-4.3,2.9-5.8,5c-1.3,1.7-2.4,3.6-3.5,5.4c-0.2,0.3-0.4,0.7-0.6,1l-3.6-2C86.2,27.9,96.5,20.8,103.3,21z
			 M72.8,34.6c5.6,0.4,10.4,2.6,14.8,5.8c0.9,0.7,1.8,1.4,2.5,2.3c-1.7-0.4-3.5-0.8-5.2-1.1c-2.6-0.5-5.2-0.4-7.6,0.7
			c-2.6,1.2-5.5,1.1-8.2,0.9c1.5,1.4,3.4,1.3,5.2,1c1.5-0.2,3-0.7,4.6-1l0.1,0.9c-3.1,1.4-6.1,2.7-9.2,4.1c-0.8-1.7-1.3-3.5-1-5.5
			c-0.1-2.9,0.8-5.6,2.6-7.9C71.6,34.7,72.3,34.6,72.8,34.6z"/>
	</g>
</svg>
