<svg viewBox="0 0 128 128">
	<g>
		<path d="M91.5,89.7c-0.1,0.8-0.3,1.6-0.4,2.3c-0.1,1.2-0.1,2.5-0.2,3.9L122,64.9l-58-58l-58,58
			l34.8,34.8c0-2.8-0.1-5.2-0.3-7.3c-0.1-1.9-0.7-3.9-2.7-5.7c0,0,0,0,0,0c-0.1-0.1-0.2-0.2-0.3-0.2c0,0,0,0,0,0
			c-2.8-2.6-5.1-7.6-5.1-12.8c0-7.4,3.3-28.3,4-28.3c0.6,0,0.6,10.1,0.2,19.6c-0.3,6.6,0.7,9.2,2.3,9.2c2.1,0,2.4-6.6,2.6-14.1
			c0.2-6.1,0.7-14.6,1.1-14.7h0c0.7,0,1.2,8.4,1.4,14.6c0.2,7.6,0.8,14,2.5,14c1.8,0,2.4-2.9,2.3-9.4c-0.2-7.9-0.2-19.1,0.4-19.1
			c0.7,0,3.1,7.3,3.7,28.3c0.1,5.3-2.3,10.2-5.1,12.8c0,0,0,0,0,0c-0.1,0.1-0.2,0.2-0.3,0.2c0,0,0,0,0,0c-2,1.9-2.6,3.9-2.7,5.7
			c-0.2,3-0.3,6.7-0.3,11l16.1,16.1c0.2-7,0.2-13.7-0.1-18.7c-0.1-1.9-0.4-4-0.7-5.8c-0.1-0.6-0.5-1.1-0.5-1.5c0-6.1,0-57.2,0-60.9
			c0-5.2,4.9-7.7,9.3,3.8s3.2,52,3.2,54.9c0,0.6-0.5,1.3-1.4,2c-0.3,0.2-0.7,0.5-0.9,0.7c-2.7,2.2-3.1,4.6-3.2,6.9
			c-0.3,5.4-0.6,12.6-0.7,20.3L88,98.9c0-2.6-0.1-5-0.2-6.9c0-0.8-0.2-1.5-0.4-2.3c-0.4-2.3-3.2-4.1-4.9-5.8
			c-3.2-3.2-5.2-8.5-5.2-14.6c0-9.8,5.4-22.2,12.1-22.2s12.1,12.4,12.1,22.2c0,6-2,11.4-5.2,14.6C94.7,85.5,91.9,87.4,91.5,89.7z"/>
	</g>
</svg>
