<svg viewBox="0 0 128 128">
	<g>
		<path d="M55.3,86.8c-12.3,0-21.7-10.1-21.7-23.5C33.6,50,42.9,40,55.3,40c7.5,0,15.9,4.8,21.7,12.1l15.6-18.4
			c-9.2-9.9-23.9-16.1-37.6-16.1C26.7,17.6,6,37.2,6,63.6c0,26.8,20.4,46.8,48,46.8c13.7,0,28.7-6.9,38.5-17.5L76.9,76.3
			C70.7,82.7,62.3,86.8,55.3,86.8z"/>
		<polygon points="90.4,53.5 84.5,53.5 84.5,61.1 76.8,61.1 76.8,67 84.5,67 84.5,74.6 90.4,74.6 90.4,67 98,67
			98,61.1 90.4,61.1"/>
		<polygon points="114.4,61.1 114.4,53.5 108.5,53.5 108.5,61.1 100.9,61.1 100.9,67 108.5,67 108.5,74.6
			114.4,74.6 114.4,67 122,67 122,61.1"/>
	</g>
</svg>
