<svg viewBox="0 0 128 128">
	<g>
		<path d="M103.6,89.9l-5.3-3.7l-5.3-3.7c-1.1,1.6-2.2,3-3.6,4.4s-2.7,2.5-4.3,3.7c-1.6,1.1-3.2,2-4.9,2.8
			c-1.7,0.8-3.5,1.5-5.4,1.9c-1.8,0.5-3.7,0.8-5.6,1c-1,0.1-1.9,0.1-2.8,0.1c-1,0-1.9-0.1-2.8-0.1c-1.9-0.2-3.8-0.5-5.6-1
			c-1.9-0.5-3.6-1.2-5.4-1.9s-3.3-1.8-4.9-2.8c-1.6-1.1-3-2.3-4.3-3.7c-1.4-1.4-2.5-2.8-3.6-4.4c-1.1-1.6-2-3.2-2.8-4.9
			c-0.8-1.7-1.5-3.5-1.9-5.4c-0.5-1.8-0.8-3.7-0.9-5.6c-0.1-0.9-0.1-1.7-0.1-2.5c0-1.1,0.1-2,0.2-3c0.2-1.9,0.5-3.7,1-5.6
			c0.5-1.9,1.2-3.6,1.9-5.3c0.8-1.7,1.8-3.3,2.8-4.9c1.1-1.6,2.3-2.9,3.6-4.3c1.4-1.3,2.7-2.5,4.3-3.6c1.6-1.1,3.1-1.9,4.9-2.8
			c1.7-0.8,3.4-1.5,5.3-1.9c1.8-0.5,3.6-0.8,5.5-1c0.9-0.1,1.9-0.1,2.8-0.1c1,0,1.9,0,2.8,0.1c1.9,0.2,3.7,0.5,5.5,1
			c1.9,0.5,3.6,1.2,5.3,1.9c1.7,0.8,3.3,1.8,4.9,2.8c1.6,1.1,3,2.2,4.3,3.6l-4.6,4.6l-4.6,4.6c0.8,0.8,1.6,1.7,2.1,2.5
			c0.7,0.9,1.3,1.9,1.8,2.9l11.7-5.5l5.8-2.7l5.8-2.7l5.8-2.7l5.8-2.7c-1.5-3-3.1-5.9-5.1-8.8c-1.9-2.7-4.1-5.4-6.5-7.7
			c-2.3-2.3-5-4.6-7.7-6.4c-2.7-1.9-5.6-3.6-8.8-5.1c-3-1.4-6.2-2.5-9.4-3.4c-3.2-0.9-6.5-1.5-9.9-1.8c-1.7-0.1-3.3-0.2-5.1-0.2
			c-1.7,0-3.4,0.1-5.1,0.2c-3.4,0.3-6.7,0.9-9.9,1.8c-3.3,0.9-6.4,2-9.4,3.4c-3,1.5-5.9,3.1-8.8,5.1c-2.7,1.9-5.4,4.1-7.7,6.4
			s-4.6,5-6.5,7.7s-3.6,5.6-5.1,8.8c-1.5,3-2.6,6.2-3.5,9.4c-0.9,3.2-1.5,6.5-1.8,9.9c-0.2,1.8-0.2,3.5-0.2,5.4
			c0,1.7,0.1,3.2,0.2,4.8c0.3,3.4,0.9,6.7,1.7,10c0.9,3.3,2,6.5,3.4,9.5c1.5,3.1,3.1,6,5.1,8.8c1.9,2.8,4.1,5.4,6.5,7.8
			c2.3,2.4,5,4.6,7.8,6.5c2.7,1.9,5.6,3.7,8.8,5.1c3,1.5,6.2,2.6,9.5,3.5c3.2,0.9,6.5,1.5,10,1.8c1.7,0.1,3.4,0.2,5.1,0.2
			c1.8,0,3.4-0.1,5.1-0.2c3.4-0.3,6.7-0.9,10-1.8c3.3-0.9,6.5-2,9.5-3.5c3.1-1.5,6-3.1,8.8-5.1c2.7-1.9,5.4-4.2,7.8-6.5
			c2.3-2.4,4.6-5,6.5-7.8l-5.3-3.7L103.6,89.9z"/>
	</g>
</svg>
