<svg viewBox="0 0 128 128">
	<g>
		<path d="M42.3,88.2c-0.9-0.2-1.8-0.5-2.6-0.9c-1.9,3-6.2,10.4-6.9,17.2h11.3
			C42.5,98.8,42.3,92.5,42.3,88.2z"/>
		<path d="M78.9,82.2c-2.3,5.2-4.1,10.5-5.2,15.7c-0.5,2.2,1,4.4,0.7,6.5h14.2
			c-3.7-10.3-4.6-25.3-6.5-31.3C82,73.1,78.9,82.3,78.9,82.2z"/>
		<path d="M119.2,46.8c-3.2-4.6-10.6-8.4-12.3-13.7c-0.4-1.3-0.5-4.1,0.3-5.4c0.8-1.2-0.5-0.9-0.5-0.9
			c-1.8,0.7-2.6-1.3-2.6-1.3c-0.3-0.7,0.1-2.9-1.5-1.7c-2.8,2.1-1.9,7.3-1.4,9.4c0.4,1.6,2.1,6.2,5.4,9.5c0.9,0.9,6.7,7.2,5.9,10.5
			c0,0.1-0.1,2-2,2.4c-4.2,0.8-5.6-4.3-5.6-4.3c-3.2-13.5-8.2-18.2-8.2-18.2c-9.3-0.4-16.3,0.5-24.6,2.1C40.7,34.1,17,43.7,17,43.7
			C10.1,53.7,6,72.1,6,72.1s0,0.1,0.1,0.1c0.2,0,0.2-0.1,0.2-0.1c4.3-5.4,8.8-8.9,8.8-8.9c-0.7,25.6,5.2,41.2,5.2,41.2h11
			c0.8-9.2,8-19.5,8-19.5c4.1,3.1,13.3,2.2,13.3,2.2c1.6,6.2,4.9,17.3,4.9,17.3h13.3c1.2-9.6,4.3-18,7.2-24.4c0,0,3.3-7.4,3.4-9.7
			c0.2-3.9,3.9-5,5.9-5c2,0,11.1,5.1,17.9,4.7c11.8-0.6,16.5-6.1,16.7-12.3C122,53.5,121,49.3,119.2,46.8z M81.2,60
			c-0.1,0.2-0.1,0.3-0.2,0.5c-0.1,0.2-0.3,0.3-0.5,0.4c-0.2,0.1-0.4,0.2-0.7,0.1c-0.2,0-0.4-0.1-0.6-0.1c-0.7-0.3-1.2-0.8-1.7-1.2
			c-0.2-0.2-0.5-0.5-0.7-0.7c-0.2-0.2-0.4-0.5-0.6-0.7c-0.3-0.3-0.8-0.5-1.4-0.7c-0.5-0.2-1.1-0.3-1.7-0.5c-0.6-0.2-1.2-0.3-1.9-0.5
			c-0.2-0.1-0.3-0.1-0.5-0.2c-0.1,0-0.2-0.1-0.3-0.1c-0.1-0.1-0.2-0.2-0.3-0.2c-0.2-0.2-0.4-0.4-0.5-0.6c-0.1-0.2-0.2-0.5-0.3-0.7
			c-0.1-0.4-0.1-0.8-0.1-1.2c0-0.4,0.1-0.7,0.1-1.1c0.1-0.7,0.3-1.3,0.5-2c0.2-0.6,0.4-1.2,0.7-1.8c0.1-0.3,0.2-0.6,0.4-0.9
			c0.1-0.3,0.3-0.6,0.5-0.9c0.7-1.2,1.6-2.2,2.7-3c0.5-0.4,1.1-0.7,1.7-1c0.6-0.3,1.2-0.6,1.8-0.7c-1.1,0.7-2,1.6-2.8,2.5
			c-0.8,0.9-1.5,1.9-2,3c-0.1,0.3-0.2,0.5-0.3,0.8L72,49.2c-0.2,0.6-0.4,1.2-0.5,1.8c-0.2,0.6-0.3,1.2-0.4,1.8
			c0,0.3-0.1,0.6-0.1,0.8c0,0.3,0,0.5,0.1,0.7c0,0.2,0.1,0.3,0.1,0.3c0,0,0,0,0,0c0.1,0,0.1,0,0.1,0.1c0.1,0,0.2,0.1,0.4,0.1
			c0.5,0.2,1.1,0.4,1.8,0.6c0.6,0.2,1.2,0.4,1.9,0.7c0.6,0.3,1.3,0.6,1.8,1.3c0.2,0.3,0.4,0.5,0.6,0.8c0.2,0.3,0.4,0.5,0.6,0.7
			c0.2,0.2,0.4,0.5,0.6,0.7c0.2,0.2,0.4,0.4,0.6,0.5c0.2,0.1,0.4,0.2,0.6,0.2c0.2,0,0.4-0.2,0.5-0.5c0.2-0.2,0.3-0.5,0.4-0.8
			c0.1-0.3,0.2-0.6,0.3-0.9C81.4,58.7,81.4,59.3,81.2,60z M92.9,51.8c-0.5,0.7-1.5,0.8-2.4,0.2c-0.9-0.6-1.3-1.6-0.8-2.3
			c0.5-0.7,1.5-0.8,2.4-0.2C93,50.1,93.4,51.1,92.9,51.8z"/>
	</g>
</svg>
