<svg viewBox="0 0 128 128">
	<g>
		<path d="M116.1,93.3c0,0-22.8,39.3-68.4,22.8l2.4-6.1c0,0-45.8-17.8-26.6-68.4l-4.1-2.4
			c0,0,23.4-45,72.3-24.8L89.6,19c0,0,10,4.1,19,15.7l6.7-4.3c0,0-14.6-24.3-46.7-24.3S10.4,33.7,10.4,62.3S32.1,122,68.6,122
			c19.9,0,38-10.6,49-27.9L116.1,93.3z"/>
		<path d="M84.1,20l2.4-5.5c0,0-37.2-15.1-62.2,21.2l4.5,2.8C28.8,38.5,49.6,6.6,84.1,20z"/>
		<path d="M71.3,110.2c11.7,0,25.9-8,32.2-16.2l-4.8-3.8c0,0-12,14.1-28.5,14.1S28,93.3,28,62.4
			c0-22.2,20.5-39,40.6-39c13.5,0,22.4,6.1,30.3,13.9l4.2-4.2c0,0-6.2-6.8-14.2-10.8l-0.4,0.9c0,0-38.2-18.5-60.3,20.4l-1-0.5
			c0,0-4.9,9.7-4.9,19.8S27.9,110.2,71.3,110.2z"/>
		<path d="M98.5,47.8l4-1.8c0,0-9.3-20.5-34.9-20.5c-24.9,0-37.5,22.9-37.5,37.6c0,11.6,8,39.5,40,39.5
			c20.6,0,31.2-18.2,31.2-18.2l-4.2-2.6l-0.9,0.9l2.3,2c0,0-11.1,18.3-35.8,15.2v-2.5c0,0-28.1-5.3-28.1-34
			c0-20.6,19.2-32.8,28.1-32.8v-3c0,0,23.6-3.6,37.2,17l-2.4,1.9L98.5,47.8z"/>
		<path d="M66.4,29.2v4.4c0,0,16.3-1.5,26.7,12.2l3.8-2.6C96.9,43.2,86.3,27.8,66.4,29.2z"/>
		<path d="M95.6,85.9l-3.7-2.8c-10.1,12.2-25.5,11-25.5,11v4.6C85.5,99.3,95.6,85.9,95.6,85.9z"/>
		<path d="M61.9,93.3l0.9-2.9c0,0,11.7,4,23-4.7l-2.1-2.1c0,0-6,4.9-13.1,4.9
			c-10.9,0-26.1-6.5-26.1-23.7c0-21,17.8-25.8,24-25.8s8.9,1.1,13.1,3.3l1.7-1.7c0,0-5.2-4.3-14.9-4.3s-34,10.3-24.2,38.7L42,76.2
			C42,76.2,46,89.3,61.9,93.3z"/>
		<path d="M117.1,88.2l-5.7-2.5c-20,37.7-57.3,24.5-57.3,24.5l-2,5.7C98.6,129.2,117.1,88.2,117.1,88.2z"/>
	</g>
</svg>
