<svg viewBox="0 0 128 128">
	<g>
		<rect x="62.3" y="86.7" class="st4" width="7.7" height="18.2"/>
		<rect x="62.3" y="22.8" class="st4" width="7.7" height="18.5"/>
		<rect x="55.1" y="86.7" class="st4" width="4.7" height="18.2"/>
		<rect x="55.1" y="22.8" class="st4" width="4.7" height="18.5"/>
		<path d="M6,47.5v32.6c0,13.6,11.1,24.8,24.8,24.8h15.9V86.7h-8.5c-5.1,0-9.4-4.2-9.4-9.4V50.6
			c0-5.1,4.2-9.4,9.4-9.4h8.5V22.8H30.8C17.1,22.8,6,33.9,6,47.5z"/>
		<path d="M97.2,22.8H71.1v18.5h18.4c5.1,0,9.4,4.2,9.4,9.4V52H122v-4.5C122,33.9,110.8,22.8,97.2,22.8z"/>
		<path d="M98.9,77.3c0,5.1-4.2,9.4-9.4,9.4H71.1v18.2h26.1c13.6,0,24.8-11.1,24.8-24.8v-4.4H98.9V77.3z"/>
	</g>
</svg>
