<svg viewBox="0 0 128 128">
	<g>
		<path d="M97.5,16.7C84.1,7,66.2,3.6,50,7.7c-13,3-24.3,11.1-32.6,21.5c9.9-5.2,22.1-5.1,31.7,0.6
			c14.5-6,32.5-2.4,42.7,9.6c12.9,13.9,12.1,37.7-1.6,51c5.7,0,11.6,0.2,17.1-2c7.9-2.9,13.4-10.6,14.4-18.8
			C123.9,49.4,114.3,28.4,97.5,16.7z"/>
		<path d="M81.9,89.1c6.7-5.5,11.8-13.1,12.5-21.8c1.5-12.8-6.2-25.8-17.8-31c-6.9-3.3-14.7-3.5-21.9-1.5
			c9.5,11.7,10.2,27.4,16.6,40.9C73.7,80.7,76.3,86.5,81.9,89.1z"/>
		<path d="M80.5,97.4c-11.4,5.2-25.2,5-35.9-1.7c-11.1-6.6-18.2-19.4-17.8-32.4
			c0-10.5,4.9-20.2,12.3-27.3c-8.6-1.5-18,0.6-24.3,6.9C9.5,48.3,5.6,55.6,6,63.2c-0.5,18.5,8.7,36.6,23.6,47.4
			c13.6,10.2,31.8,13.9,48.3,9.8c13.4-3.3,25.2-11.6,33.3-22.5C101.1,100.1,90.5,100.5,80.5,97.4z"/>
		<path d="M46.3,38.9c-9.5,7-15,19.3-12.4,30.9c1.4,7.5,5.9,14,11.7,18.8c3.3-10.3,9.2-19.5,13.8-29.3
			C56.4,51.8,53.5,43.4,46.3,38.9z"/>
		<path d="M53.5,93c6.4,1.9,13.2,2,19.9,0.3c-7-7.7-8.8-18.1-11.8-27.6C57.8,74.4,52.8,83.3,53.5,93z"/>
	</g>
</svg>
