<svg viewBox="0 0 128 128">
	<g>
		<path d="M88.1,49.8l-0.7-0.4c0.4,0.9,0.5,1.7,0.5,2.4c0.1-0.5,0.2-1,0.2-1.6c0,0.7-0.1,1.3-0.2,1.9
			l0-0.3c-0.2,0.9-0.5,1.7-1,2.4L87,54c-2.7,4.5-10,5.5-13.7,0.8c-5.8-7.5,0.1-15.5,1-23.5c1-9.9-5.2-19.6-12.9-25.3
			c4.3,6.9-1.3,16-5.8,21.1c-4.3,4.9-9.6,9-14.4,13.5c-5.2,4.8-10.1,9.9-14.3,15.5C18.3,67.4,13.2,81.6,17,95.8
			c3.8,14.1,16,23.1,29.8,26.2c-7-3-13.5-10.6-13.5-18.5c0-8.5,5.4-15.8,12.1-20.5c-0.8,3.1-1.2,5.8,0.8,8.6c1.9,2.5,5.1,3.8,8.2,3.1
			c7.2-1.6,7.5-9.5,3.3-14.1c-4.2-4.6-8.3-9.7-6.7-16.3c0.8-3.3,2.8-6.4,5.4-8.6c-2,5.2,3.6,10.3,7.4,12.9c6.4,4.4,13.5,7.8,19.4,13
			C89.3,87,93.9,94.4,93,103c-1,9.3-8.4,15.8-16.7,19c17.5-3.9,35.6-17.5,36-36.9C112.6,69.2,101.6,56.9,88.1,49.8z"/>
	</g>
</svg>
