<svg viewBox="0 0 128 128">
	<g>
		<path d="M74,9.7c-3.1-1.5-9-2.3-17.1-2.3C26.1,7.4,6,30.1,6,64.2c0,39.6,22.8,56.5,48.6,56.5
			c7.1,0,14-0.7,18.2-2.5c0.8-0.3,1.2-0.8,1.2-1.8h0v-13.5c0-1.2-0.5-1.2-1.2-0.8c-4.8,1.7-9.2,2.1-15.8,2.1
			c-14.5,0-32.2-9.2-32.2-40.5c0-25.3,12.9-40,32.2-40c6.9,0,12.8,1.2,16.8,3.1C74.3,27,75,27,75,25.7V11.5C75,10.5,74.8,10,74,9.7z"/>
		<path d="M116.3,23.5c1.3,0,3.2,0.2,4.5,0.5c0.8,0.2,1.2-0.2,1.2-1V9.8c0-0.8-0.2-1.2-1-1.5
			c-1.7-0.7-3.7-0.8-6.7-0.8c-9.9,0-17.2,3.8-21.3,12.2c-2.3,4.5-3.3,9.7-3.3,15.8v5.1h-9.2c-0.7,0-0.8,0.2-0.8,1v13.6
			c0,0.8,0,1.2,0.7,1.2h9.4v61.6c0,0.7,0.3,1.2,1.2,1.2h15.7c1,0,1.2-0.5,1.2-1.1V56.4H121c0.8-0.2,1-0.3,1-1.2V41.5
			c0-0.7-0.3-0.8-1.1-0.8h-13.1v-5.1C107.7,27.7,110.5,23.5,116.3,23.5z"/>
	</g>
</svg>
