<svg viewBox="0 0 128 128">
	<g>
		<path d="M96.2,34c0,14.3,11.5,26,25.8,26.1V7.9C107.7,8,96.2,19.7,96.2,34z"/>
		<path d="M18.8,92.1c0-11.7,8.8-21.4,20.1-22.8c0,0,0-0.1,0-0.1c0-18,13.7-32.8,31.2-34.6
			c0.1-10.6,3.5-20.5,9.2-28.6H6v95.7C8.1,96.6,13,92.8,18.8,92.1C18.8,92.2,18.8,92.2,18.8,92.1z"/>
		<path d="M72.5,50.7c-8.9,1.1-15.7,8.6-15.7,17.7c0,9.6,7.5,17.4,17,17.9V104
			C58.3,104,45.2,93.9,40.6,80c-5.7,0.9-10.1,5.7-10.1,11.7c0,6.3,5,11.5,11.2,11.8v11.7c-10.2,0-18.8-6.6-21.8-15.8
			c-4,0.4-7.2,3.7-7.2,7.9c0,4.2,3.3,7.7,7.5,7.9v6.8H122V86c-0.4,0-0.7,0-1.1,0C98.3,86,79.1,71.2,72.5,50.7z"/>
	</g>
</svg>
