<svg viewBox="0 0 128 128">
	<g>
		<path d="M92,32.7c-5.5,0-10.4,2-14.1,5.2c-3.2-2.6-6.8-4.8-10.8-6.5c-7.4-3.1-17.1-4.6-29.1-4.6
			l-29.1,0c-0.1,0-0.2,0-0.4,0h0C7.1,27,6,28.1,6,29.5L6.1,100c0,0.1,0,0.2,0,0.3c0,0.2,0,0.3,0,0.5c0,0,0,0.1,0,0.1
			c0,0.1,0.1,0.1,0.1,0.2c0,0,0,0,0,0c0,0.1,0,0.1,0,0.2c0,0,0,0.1,0,0.1c0,0.1,0.1,0.1,0.1,0.2c0,0,0,0,0,0
			c0.1,0.1,0.1,0.1,0.2,0.2c0,0,0,0,0,0c0,0.1,0.1,0.1,0.1,0.2c0,0,0,0.1,0,0.1c0.1,0.1,0.1,0.1,0.2,0.1c0,0,0,0.1,0,0.1
			c0.1,0.1,0.1,0.1,0.1,0.1c0,0,0.1,0.1,0.1,0.1c0.1,0.1,0.1,0.1,0.1,0.1c0,0,0,0,0,0c0.1,0.1,0.3,0.2,0.4,0.3c0,0,0.1,0,0.1,0
			c0.1,0,0.1,0.1,0.2,0.1c0,0,0,0,0,0c0.1,0,0.1,0.1,0.2,0.1c0.1,0,0.2,0,0.3,0c0.2,0,0.4,0.1,0.5,0.1l0.3,0l27-0.1
			c7.7,0,12.9-0.1,16-0.5c0,0,0.1,0,0.1,0c2.9-0.4,6.1-1.2,9.5-2.3c5.9-1.8,11.1-4.6,15.6-8.2c4.4-3.5,7.8-7.7,10.2-12.4
			c1.6-3.1,2.6-6.2,3.2-9.5c0.4,0,0.8,0.1,1.2,0.1c11.3,0,20.5-8.4,20.5-18.8c0,0,0,0,0,0C112.5,41.1,103.4,32.6,92,32.7z
			 M64.5,81.7c-1.7,1.4-3.6,2.6-5.7,3.6c-2,0.9-4.6,1.7-7.8,2.4c-3.1,0.6-7.7,1-13.8,1l-12.9,0l-0.1-47.3l12.6,0
			c5.9,0,10,0.2,12.4,0.5c2.4,0.3,5,1,7.8,2.1c2.8,1.1,5.2,2.3,7.2,3.9c0,0,0,0.1,0,0.1c5.7,4.4,8.4,9.6,8.4,16.5
			C72.6,71.5,70.1,77.1,64.5,81.7z"/>
		<path d="M115.4,24.8c-3.6,0-6.6,2.7-6.6,6c0,0,0,0,0,0c0,3.3,3,6,6.6,6c3.6,0,6.6-2.7,6.6-6
			c0,0,0,0,0,0C122,27.5,119,24.8,115.4,24.8z"/>
	</g>
</svg>
