<svg viewBox="0 0 128 128">
	<g>
		<path d="M103.2,105.9L31.4,34v50.8l0.1,2.7c0,0.8,0.1,1.5,0.3,2.4l59.9,21.1L103.2,105.9z"/>
		<path d="M33.6,95.4c1.3,2.9,2.9,5.7,4.5,7.3L57.6,122l42.4,0.1l3.6-11.4l-11.8,5.2L33.6,95.4z"/>
		<path d="M27.1,85.1V36l-20,30.3L7,66.5l-0.1,0.1c-1,1-0.3,4.2,2.2,6.7l13.5,13.6l4.6,1.6
			c0-0.2,0-0.5,0-0.7L27.1,85.1z"/>
		<path d="M90.5,31.3c-0.8-0.2-1.8-0.3-2.5-0.4l-2.6-0.1H34.6l71.9,71.9l5.2-11.7L90.5,31.3z"/>
		<path d="M102.9,37.5c-1.7-1.7-4.4-3.4-7.3-4.6l20.6,58.4l-5.2,11.7l10.5-3.4V56.3L102.9,37.5z"/>
		<path d="M88,26.6c0.3,0,0.5,0,0.8,0L87.1,22L73.5,8.5c-1.6-1.6-3.7-2.5-5.3-2.5c-0.5,0-1,0.1-1.5,0.5
			l-0.1,0.1l-30.3,20h49L88,26.6z"/>
	</g>
</svg>
