<svg viewBox="0 0 128 128">
	<g>
		<path d="M102.2,79H37.9H20.1c2.4,8.1,6.7,15.3,13.1,21.7C43.5,110.9,55.7,116,70.1,116
			c2.9,0,5.6-0.2,8.3-0.6c10.8-1.6,20.3-6.5,28.4-14.7c6.4-6.4,10.8-13.6,13.2-21.7h-7.2H102.2z"/>
		<path d="M18.8,54.8c-0.3,2-0.6,4.1-0.7,6.3h11h5.5h79.9h7.3c-0.1-2.1-0.3-4.2-0.7-6.3H28.1H18.8z"/>
		<path d="M18.1,66.9c0.1,2.1,0.3,4.2,0.7,6.3h9.7h7.3H114h7.3c0.3-2,0.6-4.1,0.7-6.3H18.1z"/>
		<path d="M20.1,49H120c-2.4-8.1-6.8-15.4-13.2-21.8c-8.1-8.1-17.5-12.9-28.3-14.6
			c-2.7-0.4-5.5-0.6-8.4-0.6c-14.3,0-26.6,5.1-36.8,15.2C26.9,33.6,22.5,40.9,20.1,49z"/>
		<path d="M15.1,64c0-27.4,20.6-50.2,47.4-54.2c-0.7,0-1.3-0.1-2-0.1C30.4,9.7,6,34,6,64
			c0,30,24.4,54.3,54.4,54.3c0.7,0,1.3,0,2,0C35.7,114.2,15.1,91.4,15.1,64z"/>
	</g>
</svg>
