<svg viewBox="0 0 128 128">
	<g>
		<path d="M122,74c-0.2-1.9-1.9-1.2-1.9-1.2s-2.8,2.2-5.3,1.9c-2.5-0.2-1.7-5.8-1.7-5.8s0.5-5.1-0.9-5.5
			c-1.5-0.4-3.3,1.3-3.3,1.3s-2.2,2.5-3.3,5.6l-0.3,0.1c0,0,0.3-5.6,0-6.8c-0.3-0.6-3-0.6-3.4,0.5c-0.4,1.1-2.6,8.9-2.7,12.2
			c0,0-4.2,3.6-7.8,4.1c-3.7,0.6-4.5-1.7-4.5-1.7s9.9-2.8,9.6-10.7s-8-5-8.9-4.3c-0.8,0.6-5.3,3.3-6.6,10.8c0,0.3-0.1,1.4-0.1,1.4
			s-3.8,2.6-6,3.3c0,0,6-10.1-1.3-14.7c-2.1-1.2-3.9-0.1-4.9,1c2.5-3.1,8.4-11.6,6.7-19.1c-1-4.4-3.3-4.9-5.3-4.2
			c-3.1,1.2-4.3,3-4.3,3s-4,5.8-4.9,14.4s-2.3,19-2.3,19s-1.9,1.9-3.7,1.9c-1.8,0.1-1-5.2-1-5.2s1.4-8.1,1.3-9.4s-0.2-2.1-1.8-2.6
			S49.8,65,49.8,65s-4.6,7-5,8.1l-0.2,0.4l-0.2-0.3c0,0,3.3-9.5,0.1-9.7c-3.1-0.1-5.2,3.4-5.2,3.4s-3.6,5.9-3.7,6.6l-0.2-0.3
			c0,0,1.5-6.9,1.2-8.6s-1.9-1.4-1.9-1.4s-2-0.2-2.6,1.1c-0.5,1.3-2.5,10-2.7,12.8c0,0-5.1,3.7-8.5,3.7s-3-2.1-3-2.1s12.3-4.2,9-12.5
			c-1.5-2.1-3.3-2.8-5.7-2.8c-2.5,0-5.6,1.6-7.6,6c-1,2.1-1.3,4.2-1.5,5.7c0,0-2.2,0.4-3.3-0.5c-1.2-1-1.8,0-1.8,0s-2,2.6,0,3.3
			c2,0.8,5.1,1.1,5.1,1.1h0c0.3,1.4,1.1,3.7,3.6,5.5c3.7,2.8,10.7-0.3,10.7-0.3l2.9-1.6c0,0,0.1,2.6,2.2,3c2.1,0.4,3,0,6.6-8.9
			c2.1-4.5,2.3-4.3,2.3-4.3l0.2,0c0,0-1.7,8.7-1,11c0.6,2.3,3.4,2.1,3.4,2.1s1.5,0.3,2.7-4s3.6-9,3.6-9h0.3c0,0-1,8.9,0.5,11.7
			s5.6,1,5.6,1s2.8-1.4,3.3-1.9c0,0,3.4,2.9,8.1,2.3c10.6-2.1,14.3-4.9,14.3-4.9s1.8,4.6,7.4,5c6.4,0.5,9.9-3.6,9.9-3.6
			s0,2.6,2.2,3.6s3.7-4.3,3.7-4.3l3.7-10.3h0.3c0,0,0.2,6.7,3.9,7.8s8.5-2.5,8.5-2.5S122.2,75.9,122,74z M17.2,75
			c0.1-5.8,3.9-8.3,5.3-7.1c1.3,1.3,0.8,4-1.7,5.7S17.2,75,17.2,75z M66.7,52.5c0,0,3.5-9,4.3-4.6c0.8,4.4-7.3,17.4-7.3,17.4
			C63.8,62.4,66.7,52.5,66.7,52.5z M70.8,77.6c-2.3,6-7.8,3.6-7.8,3.6S62.3,79,64.1,73s6-3.7,6-3.7S73.1,71.6,70.8,77.6z M86.1,75
			c0,0-0.5-1.9,1.5-5.6c2-3.7,3.6-1.7,3.6-1.7s1.7,1.9-0.2,4.6S86.1,75,86.1,75z"/>
	</g>
</svg>
