<svg viewBox="0 0 128 128">
	<g>
		<path d="M6,47.3c0,0,0.2,0.4,0.7,0.3c0,0,3.9-1.8,5.7-1.9s6.8-0.6,10.9,1s6.1,2.1,8.1,3
			c2,0.9,15,8,16.1,8.5s3.1,1.2,3.9,1.5c0.8,0.3,4.7,1.6,6.1,2.6c1.4,1,2.1,0.9,2.1,0.9s1.2,1.4,2.3,1.3c0,0,0.8,0.8,1,1
			c0,0,0.2,1.5,0.9,2.5c0.7,1,0.4,1.5,0.4,1.5s-2.6,0.7-3.1,1.1c-0.5,0.5-0.5,1.9-0.5,1.9s-0.8,3.7-3.1,4.7c-0.6,0-1.4,0.2-1.5,0.5
			c0,0-0.6,0.8,0.4,1.7c0.3,0.3,0.2,5.9,0.5,6.9c-0.2,0.8-0.2,4.7,5,2.5c0,0,2.7-0.1,3.8,0.9c0,0,0.6-0.6-0.6-1.6l0-0.6
			c0,0,1.2-0.4,2.3,0.8c0,0,0.4-2.7-3-2.9c0,0-1-1-1.8-0.5c0,0,0.5-1.3,0.2-1.5c0,0,1,0.3,1.1-0.1c0.1-0.4-0.4-0.9-0.4-0.9
			s0-0.7,0.3-0.7c0.3,0,1.3,0.2,1.7,1.7c0,0,0.7-2.2-2.3-3.2c0,0-1-0.1-1.1,0.7c0,0-0.6-0.4-0.7-0.2c0,0-0.4-0.1-0.6,1.7
			c0,0-0.2,1.4-0.1,1.6c0,0-1.8-0.5-1.7-3.6c0,0,1-1.6,1.1-2.5c0,0,1.5-1.3,2.5-1.9c1-0.5,8.9-4.5,10.2-9.3c0,0,2.2,0.8,5-0.7
			c0,0-0.5,2.6-3.8,3.8c-0.8,0.4-0.6,1.1-0.6,1.4c0,0.3,0.2,0.9,1.3,0.8c1.1-0.2,2.9-0.1,6.1,2.4c0,0,0.2,1.4,0.5,1.6c0,0-0.5,1,0,2
			c0,0-0.9,0.4-0.8,1.5c0,0-0.9-1-1.3-0.9c0,0,0.1,2.5,1.6,2.5c0.8,0,1.2-0.6,1.2-0.6s0.5,0.6,1.3,0.6s1.6-0.8,1.6-1.3c0-0.5,0-1,0-1
			s1.1-0.9,0-2c0,0,1.4-0.6,1.2-1.9c0,0,1.5,0.6,1.9,2.6c0,0,1.3-1.8-1.3-3.8c0,0-0.3-0.3-1.6-0.4c0,0-0.7-0.3-0.9,0
			c0,0-0.4-0.4-0.9,0c0,0-0.3-1.2-0.8-1.7c0,0-2.6-0.6-5.1-0.9s1-1.3,1-1.3s3.3-1.7,4-2.3c0,0,0.8,0.6,1.4,0.7c0,0,0,0.9,0.8,0.9
			s0.7-0.4,0.7-0.4s0.4,0.8,1.1,0.7s0.8-0.4,0.8-0.8s0.7-0.3,0.9,0.5c0.2,0.7,2.2-1.7,2.2-1.7l1.5-1.1c0,0,1.7,0.1,2-0.5
			c0.4-0.6,1.1-2.5-0.6-3h-1.4c0,0,2-0.9,2.3-1.8c0.3-0.9,0.2-3.1,0.2-3.1s2.3-0.4,2.3-1.7c0,0,4.8-1.3,5.5-2.3s2.2-2.3,2.7-3.7
			c0.5-1.4,3.6-1.2,3.6-1.2s4.2,3.3,9.2,2.9c1.1-0.1,1,0.5,1.2,0.6c0.2,0.1,1.1,1,1.3,0.5c0.3-0.5,0-1.3,0-1.3l-0.2-0.6l0-0.6
			l-0.4,0.3h-0.4l0-0.4h-0.3l-0.2-0.5l-0.7,0.2l-0.5-0.5l-0.2,0.2l-0.3-0.3l-0.3-0.1l0.1-0.3H116l-0.2-0.2l-0.5-0.1l-0.1-0.3h-0.6
			l-0.4-0.1c0,0-1.2-1.4-3.7-2c0,0,0.2-1.1,0.8-1.1c0,0,2.2-0.1,2.7,0.2c0.5,0.3,0.8,0.5,0.8,0.5l0.3-0.1l0.1,0.3l0.3-0.2l0.4,0.3
			l0.4-0.4l0.2,0.5l0.3-0.3l0.1,0.4l0.3-0.5l0.1,0.6l0.4-0.4l0.1,0.5l0.6-0.6l0.1,0.5l0.4-0.4l0.2,0.4l0.4-0.4l0.3,0.3l0.2-0.4v0.8
			l0.7-0.4l-0.1,0.6l0.8-0.7l0.4-0.1c0,0,0.4-1.8-0.5-2.9c0,0-0.8-0.8-1.5-0.9c-0.7-0.1-2-1.2-2.5-1.4c-0.5-0.2-1-0.1-1.4,0.3
			c0,0-0.6-0.2-0.9-0.7c-0.4-0.5-1.8-1.8-4.6-1.4c0,0-0.4-0.5-2.2-0.1c0,0-0.6-0.6-1.8-0.2s-2.2,1.1-3.2,2.3c0,0-1.6,1.2-2.7,2.5
			c-1.1,1.3-1.9,3.7-1.9,3.7s-1.4,2.8-7,1.6c-1.8-0.5-3.9-1.8-4.1-1.8s-1.1-0.6-2.8-0.6c-1.7,0.1-4.4,0.4-5.4,0.3
			c-1-0.1-2.1-0.6-5.9,0.4c-0.7,0.1-3.1,0-3.1,0s-0.6,0-1.1,0.2s-11.5,5.2-11.5,5.2s-0.5,0.3-1.6,0c-1.1-0.3-3.5-0.4-3.7-0.4
			c-0.2,0-5.5-1.3-7-1.3s-5-2.1-5.3-2.2C40,48.3,35,46.8,35,46.8s-6.8-2-9.3-2.6C23.2,43.8,14.2,41.1,6,47.3z"/>
	</g>
</svg>
