<svg viewBox="0 0 128 128">
	<g>
		<path d="M113.8,121L91.2,62.8c-2.3-5.9-5.1-10.2-8.5-12.7c-3.1-2.4-7.1-3.3-13.8-3.3H58.2
			c-0.3,0-0.6,0.2-0.7,0.6c-1.3,0-2.8,0-4.2,0v-4.8c0-1.7-0.7-4.8-2.2-9.4c-1.4-4.4-2.1-7.8-2.1-9.9c0-2,0.6-3.6,1.9-4.8
			c1.3-1.3,3.1-1.9,5.3-1.9c2.2,0,3.9,0.7,5.1,2.3c1.2,1.5,1.8,3.2,1.8,5.2c0,2-0.2,3.7-0.6,5c0,0.1,0,0.1,0,0.2
			c0,0.4,0.3,0.8,1.3,1.6c0,0,0,0,0,0c0.8,0.6,2,1.2,3.8,1.8c1.8,0.6,3.8,1,5.9,1c0,0,0,0,0,0c4.7,0,8.2-1.2,10.4-3.5
			c2.2-2.3,3.3-5.2,3.3-8.7c0-3.5-1.3-6.5-3.8-8.9c-2.5-2.3-5.7-4-9.7-4.9C69.8,6.5,64.9,6,59,6C53.1,6,47.6,7.4,42.7,10
			c-2.7,1.5-5.2,3.3-7.3,5.5c-2.1,2.1-3.8,4.9-5.1,8.3c-1.4,3.3-2.1,6-2.2,8.2c-0.1,2-0.3,7.1-0.5,15.1c-4.6,0.1-8.8,0.4-12.4,0.8
			c-0.1,0-0.3,0.1-0.4,0.1c-0.4,0.3-0.7,0.8-0.7,4.2c0,3.2,0.3,3.9,0.6,4.3c0.1,0.2,0.3,0.3,0.6,0.3c3.6,0,7.7,0.2,12.3,0.6
			c0,14.1,0.3,31.5,0.8,51.8c0,0.3,0.2,0.6,0.6,0.7c3.7,0.8,8.2,1.3,13.3,1.3c5.2,0,9.2-0.5,12.1-1.4c0.3-0.1,0.5-0.5,0.5-0.8
			c-1.1-6.2-1.3-22.7-1.3-50.8c1.4,0,2.7,0,3.9,0c0,0.3,0.3,0.6,0.7,0.6l5.7,0.1c2.7,0,4.6,0.5,5.9,1.4c1.1,0.8,2.1,2.4,3,4.7l3,7.7
			L54.4,121c-0.1,0.2-0.1,0.5,0.1,0.7s0.4,0.3,0.6,0.3h17.7c0.3,0,0.6-0.2,0.7-0.4l10.9-26.4l10.4,26.4c0.1,0.3,0.4,0.5,0.7,0.5h17.7
			c0.2,0,0.5-0.1,0.6-0.3C113.9,121.5,113.9,121.2,113.8,121z"/>
	</g>
</svg>
