<svg viewBox="0 0 128 128">
	<g>
		<path d="M119.8,58.8L69.2,8.2c-2.9-2.9-7.6-2.9-10.6,0L48.1,18.7l13.3,13.3c3.1-1,6.7-0.3,9.1,2.1
			c2.5,2.5,3.2,6.1,2.1,9.2l12.9,12.9c3.1-1.1,6.7-0.4,9.2,2.1c3.5,3.5,3.5,9.1,0,12.6c-3.5,3.5-9.1,3.5-12.6,0
			c-2.6-2.6-3.3-6.4-1.9-9.7l-12-12l0,31.6c0.8,0.4,1.6,1,2.4,1.7c3.5,3.5,3.5,9.1,0,12.6c-3.5,3.5-9.1,3.5-12.6,0
			c-3.5-3.5-3.5-9.1,0-12.6c0.9-0.9,1.9-1.5,2.9-1.9V48.7c-1.1-0.4-2.1-1.1-2.9-1.9c-2.6-2.6-3.3-6.5-1.9-9.7L42.9,23.9L8.2,58.6
			c-2.9,2.9-2.9,7.6,0,10.6l50.6,50.6c2.9,2.9,7.6,2.9,10.6,0l50.4-50.4C122.7,66.5,122.7,61.8,119.8,58.8"/>
	</g>
</svg>
