<svg viewBox="0 0 128 128">
	<g>
		<path d="M64,7.4c-32,0-58,26-58,58c0,25.6,16.6,47.4,39.7,55c2.9,0.5,4-1.3,4-2.8c0-1.4-0.1-6-0.1-10.8
			C33.4,110.4,30,100,30,100c-2.6-6.7-6.4-8.5-6.4-8.5C18.3,88,24,88,24,88c5.8,0.4,8.9,6,8.9,6c5.2,8.9,13.6,6.3,16.9,4.8
			c0.5-3.7,2-6.3,3.7-7.7C40.5,89.6,27,84.6,27,62.4c0-6.3,2.3-11.5,6-15.6c-0.6-1.5-2.6-7.4,0.6-15.4c0,0,4.9-1.6,15.9,5.9
			c4.6-1.3,9.6-1.9,14.5-2c4.9,0,9.9,0.7,14.5,2c11.1-7.5,15.9-5.9,15.9-5.9c3.2,8,1.2,13.9,0.6,15.3c3.7,4.1,6,9.2,6,15.6
			c0,22.3-13.6,27.2-26.5,28.6c2.1,1.8,3.9,5.3,3.9,10.7c0,7.8-0.1,14-0.1,15.9c0,1.5,1.1,3.3,4,2.8c23-7.7,39.6-29.4,39.6-55
			C122,33.4,96,7.4,64,7.4z"/>
	</g>
</svg>
