<svg viewBox="0 0 128 128">
	<g>
		<path d="M106.1,96.2c-1.6-1.7-3.7-2.8-6-3.1c0.9-2.4,1.5-5.3,1.8-8.6c1.2-10.5,0.6-22.6-1.5-32
			c0.9,0.1,1.7,0.2,2.3,0.2c0,0,0,0,0,0c1.2,0,2.9-0.2,3.4-2.3c0-0.2,0.1-0.3,0.1-0.5c0,0,0,0,0,0c0,0,0-0.1,0-0.1
			c0.1-0.8-0.1-1.6-0.6-2.3c-0.5-0.7-1.1-1.1-1.9-1.2c-1-0.2-3.1-0.1-5.1,0.2c-1.3-3.6-2.8-6.1-4.5-7.6c-1.6-7.1-4.5-13.5-8.7-19
			c0.2-0.3,0.5-0.6,0.7-1c2.5-4.3,0.5-8.6-2.7-10.5c-3.2-1.8-6.4-1.3-9,1.3c-8.8-5.4-19.2-4.7-30.8,2.1C33.8,17.4,27.8,22.5,26.4,31
			c-4.3,0.3-7,2.9-7.3,6.9c-0.3,3.7,2.2,7.8,7.2,8.1c0.2,0,0.4,0,0.6,0c0.3,0,0.6,0,0.9-0.1c0.4,1.6,1,3.3,1.6,5.1
			c2.3,6.4,6.3,12.5,8.8,16.2l0.3,0.4c2.2,3.3,4.6,10,5,17c0.1,1.3,0.1,2.8,0.1,4.3c0,4.3,0.1,9.1,1.4,13.4c-1.5,1.1-2.7,2.7-2,4.2
			v0c0.2,0.4,0.6,0.7,1.1,0.9c0.3,0.1,0.6,0.1,1,0.1c0.7,0,1.4-0.2,2.1-0.5c1.4,2.1,3.2,3.7,5.4,4.9c0.4,0.2,0.8,0.4,1.2,0.6
			c-1.4,2-2.1,3.9-2.1,5.9c0,1.8,1.1,3.2,3,3.5c0.2,0,0.5,0.1,0.8,0.1c1.7,0,3.5-0.9,4.1-2.7l0.1-0.3c0.6-1.7,1.1-3.1,2.2-4.5
			c0.6,0,1.2,0.1,1.8,0.1c11.2,0,21.4-6.3,22.6-7c0.7-0.4,1.3-0.8,1.9-1.2c3.4-2.1,6.4-4,8.7-6.9c1.8,0.3,3,1.1,4.5,2.1l0.2,0.2
			c0.6,0.4,1.2,0.5,1.7,0.5c1.2,0,2.3-0.6,3-1.5C107.3,99.2,107.3,97.5,106.1,96.2z M103.6,47.3c0.5,0.1,0.9,0.3,1.1,0.7
			c0.2,0.3,0.3,0.6,0.4,1c-0.8-0.1-1.7-0.3-2.5-0.3c-0.3,0-0.6,0.2-0.6,0.6c0,0.3,0.2,0.6,0.5,0.6c0.7,0,1.5,0.1,2.5,0.3
			c-0.3,1-0.9,1.3-2.3,1.3c0,0,0,0,0,0c-0.7,0-1.6-0.1-2.6-0.2c0,0,0-0.1,0-0.1c-0.1-0.3-0.1-0.5-0.2-0.8c0-0.1,0-0.1,0-0.2
			c-0.1-0.2-0.1-0.5-0.2-0.7c0-0.1,0-0.1-0.1-0.2c-0.1-0.3-0.2-0.5-0.2-0.8c0-0.1,0-0.1-0.1-0.2c-0.1-0.2-0.1-0.4-0.2-0.6
			c0,0,0-0.1,0-0.1C101.1,47.2,102.9,47.2,103.6,47.3z M82.9,9.3c2.8,1.6,4.5,5.2,2.3,8.9c-0.1,0.2-0.3,0.4-0.4,0.7
			c-0.1-0.1-0.1-0.2-0.2-0.2c-0.1-0.1-0.1-0.2-0.2-0.3c-0.2-0.2-0.4-0.5-0.6-0.7c0,0-0.1-0.1-0.1-0.1c-0.2-0.3-0.5-0.5-0.7-0.8
			c-0.1-0.1-0.1-0.1-0.2-0.2c-0.1-0.1-0.2-0.2-0.3-0.3c0.7-1,0.7-2.4-0.1-3.4c-0.5-0.6-1.1-0.9-1.9-1c-0.7-0.1-1.4,0.2-2,0.6
			c0,0,0,0,0,0c-0.1,0-0.1-0.1-0.2-0.1c-0.1-0.1-0.2-0.1-0.3-0.2c-0.1-0.1-0.3-0.2-0.4-0.3c-0.1-0.1-0.2-0.1-0.3-0.2
			c-0.2-0.1-0.3-0.2-0.5-0.3c-0.1-0.1-0.1-0.1-0.2-0.2c-0.2-0.2-0.4-0.3-0.7-0.5c-0.2-0.1-0.3-0.2-0.5-0.3
			C78.4,7.4,81.4,8.4,82.9,9.3z M26.3,44.8c-4.3-0.3-6.3-3.7-6.1-6.9c0.2-3.3,2.4-5.4,6-5.8c0,0,0,0.1,0,0.1c0,0.2,0,0.4-0.1,0.6
			c0,0.1,0,0.1,0,0.2c0,0.3,0,0.5,0,0.8c0,0,0,0.1,0,0.1c0,0.2,0,0.5,0,0.7c0,0.1,0,0.1,0,0.2c0,0.2,0,0.5,0,0.8c0,0,0,0,0,0
			c-0.1,0-0.2,0-0.3,0c-0.7,0.1-1.4,0.4-1.8,1c-0.5,0.6-0.7,1.3-0.6,2c0.2,1.5,1.5,2.6,3,2.5c0.1,0,0.2,0,0.3,0c0,0,0,0,0,0.1
			c0,0.2,0.1,0.5,0.1,0.7c0,0.1,0,0.1,0,0.2c0.1,0.3,0.1,0.5,0.2,0.8c0,0,0,0.1,0,0.1c0.1,0.2,0.1,0.5,0.2,0.8c0,0.1,0,0.1,0,0.2
			c0.1,0.3,0.1,0.6,0.2,0.9c0,0,0,0,0,0C27.1,44.8,26.7,44.8,26.3,44.8z M44.3,106.3c-0.2-0.1-0.3-0.2-0.4-0.2
			c-0.4-0.8,0.3-1.8,1.3-2.6c0,0,0,0.1,0,0.1c0.1,0.2,0.1,0.3,0.2,0.5c0,0,0,0.1,0,0.1c0.1,0.2,0.2,0.4,0.3,0.6c0,0,0,0,0,0.1
			c0.1,0.2,0.2,0.3,0.2,0.5c0,0.1,0,0.1,0.1,0.1c0.1,0.2,0.2,0.3,0.2,0.5c0,0,0,0.1,0,0.1C45.7,106.4,44.8,106.5,44.3,106.3z
			 M58.3,118.6l-0.1,0.3c-0.5,1.3-1.7,1.9-2.9,2c-0.3-0.9-0.4-2.3,0.1-4c0.1-0.3,0-0.6-0.3-0.7c-0.3-0.1-0.6,0-0.7,0.3
			c-0.6,1.7-0.5,3.1-0.3,4.1c-0.7-0.3-1.5-0.8-1.4-2.2c0-1.8,0.7-3.6,2.1-5.4c0.1,0,0.2,0.1,0.3,0.1c0.1,0,0.2,0.1,0.2,0.1
			c0.2,0.1,0.4,0.1,0.6,0.2c0.1,0,0.1,0,0.2,0.1c0.3,0.1,0.5,0.2,0.8,0.2c0.1,0,0.1,0,0.2,0c0.2,0.1,0.4,0.1,0.6,0.2
			c0.1,0,0.2,0,0.3,0.1c0.2,0,0.4,0.1,0.6,0.1c0.1,0,0.2,0,0.3,0.1c0.2,0,0.4,0.1,0.6,0.1c0.1,0,0.1,0,0.2,0c0.3,0,0.5,0.1,0.8,0.1
			C59.3,115.7,58.8,117.1,58.3,118.6z M96,98.4c-2.3,3-5.2,4.8-8.7,6.9c-0.6,0.4-1.3,0.8-1.9,1.2c-4.5,2.8-14.6,7.5-24,6.8
			c-2.4-0.2-4.6-0.7-6.6-1.5c-0.6-0.2-1.2-0.5-1.7-0.8c-2.2-1.2-4-2.8-5.3-5c0,0,0,0,0,0c-0.6-1.1-1.2-2.3-1.6-3.6c0,0,0,0,0,0
			c-1.4-4.3-1.4-9.2-1.4-13.5c0-1.6,0-3-0.1-4.4c-0.4-7.3-2.9-14-5.2-17.5L39,66.5c-2.4-3.6-6.4-9.7-8.6-15.9
			c-0.7-1.9-1.3-3.7-1.7-5.5c0,0,0,0,0,0c-0.5-1.7-0.8-3.4-1.1-4.9c0,0,0,0,0,0c-0.2-1.4-0.4-2.7-0.4-4c0,0,0,0,0,0
			c-0.1-1.6,0-3.2,0.2-4.7c0,0,0,0,0,0c1.2-8.4,7.1-13.3,16.8-19C50.5,9,56.4,7.2,61.9,7.2c4.4,0,8.6,1.2,12.4,3.7
			c0.3,0.2,0.7,0.5,1,0.7c0.5,0.4,1.1,0.8,1.6,1.2c0.4,0.3,0.8,0.6,1.2,0.9c0,0,0,0,0,0c1.1,0.9,2.1,1.9,3.1,2.9
			c0.6,0.6,1.1,1.1,1.6,1.7c0.2,0.3,0.5,0.5,0.7,0.8c0,0,0.1,0.1,0.1,0.1c0,0,0.1,0.1,0.1,0.1c0.2,0.3,0.4,0.5,0.7,0.8c0,0,0,0,0,0
			c4.3,5.4,7.2,11.9,8.8,19.1c0,0.1,0.1,0.2,0.2,0.3c1.7,1.4,3.2,4,4.5,7.7c0.5,1.4,0.9,3,1.3,4.6c2.2,9.4,2.9,21.8,1.7,32.5
			c-0.4,3.6-1.1,6.6-2,9C98,95.3,97.1,96.9,96,98.4z M105.7,99.3c-0.5-0.9-1.3-2-2.6-2.5c-0.3-0.1-0.6,0-0.8,0.3
			c-0.1,0.3,0,0.6,0.3,0.8c1.3,0.6,2,1.9,2.3,2.5c-0.8,0.7-1.9,1-2.9,0.3l-0.2-0.2c-1.4-0.9-2.7-1.7-4.4-2.1c0.2-0.3,0.5-0.7,0.7-1
			c0,0,0-0.1,0.1-0.1c0.1-0.2,0.2-0.3,0.3-0.5c0-0.1,0.1-0.1,0.1-0.2c0.1-0.2,0.2-0.3,0.3-0.5c0,0,0-0.1,0.1-0.1
			c0.1-0.2,0.2-0.4,0.3-0.7c0,0,0-0.1,0-0.1c0.1-0.2,0.2-0.4,0.3-0.6c0-0.1,0-0.1,0.1-0.2c0-0.1,0.1-0.2,0.1-0.2
			c2.2,0.3,4.2,1.3,5.6,2.8C106,97.7,106,98.6,105.7,99.3z"/>
		<path d="M64.2,29.4c5.8,0,10.6-4.7,10.6-10.4c0-5.7-4.7-10.4-10.6-10.4c-5.8,0-10.6,4.7-10.6,10.4
			C53.7,24.7,58.4,29.4,64.2,29.4z M64.2,9.7c5.2,0,9.4,4.2,9.4,9.3s-4.2,9.3-9.4,9.3c-5.2,0-9.4-4.2-9.4-9.3S59,9.7,64.2,9.7z"/>
		<path d="M41.8,20c-5.8,0-10.6,4.7-10.6,10.4S36,40.8,41.8,40.8c5.8,0,10.6-4.7,10.6-10.4
			S47.7,20,41.8,20z M41.8,39.6c-5.2,0-9.4-4.2-9.4-9.3s4.2-9.3,9.4-9.3s9.4,4.2,9.4,9.3S47,39.6,41.8,39.6z"/>
		<circle cx="69.7" cy="17.4" r="3.1"/>
		<circle cx="47.1" cy="28.3" r="3.1"/>
		<path d="M81,60.6c-1.3-0.6-3.5-0.9-5.6-0.8c0.1-0.7,0.1-1.4,0.1-2.1c0-0.3-0.3-0.6-0.6-0.6
			c-0.3,0-0.6,0.3-0.6,0.6c0,0.8,0,1.7-0.2,2.6c0,0,0,0,0,0c-0.2,0.9-0.4,1.6-0.9,2.4c-0.1,0.2-0.3,0.5-0.5,0.7
			c-0.7,1-1.8,1.8-3.1,2.7c-0.3,0.2-0.3,0.5-0.2,0.8c0.1,0.2,0.3,0.3,0.5,0.3c0.1,0,0.2,0,0.3-0.1c1.3-0.8,2.3-1.7,3.1-2.6
			c1.7,0.9,3.4,1.7,4.9,2.1c0.4,0.1,0.9,0.2,1.4,0.2c0.9,0,1.9-0.3,2.5-1.5c0.1-0.1,0.1-0.3,0.2-0.4c0,0,0,0,0,0c0,0,0-0.1,0-0.1
			c0.3-0.8,0.3-1.6,0-2.3C82.3,61.6,81.8,61,81,60.6z M81.6,63.7c-0.7-0.3-1.6-0.7-2.3-0.9c-0.3-0.1-0.6,0.1-0.7,0.4
			c-0.1,0.3,0.1,0.6,0.4,0.7c0.7,0.2,1.6,0.6,2.3,0.9c-0.5,0.8-1.2,1-2.6,0.7c-1.4-0.4-2.9-1-4.5-1.9c0.1-0.1,0.1-0.2,0.2-0.2
			c0,0,0,0,0,0c0.1-0.1,0.1-0.3,0.2-0.4c0,0,0-0.1,0.1-0.1c0.1-0.1,0.1-0.2,0.1-0.3c0,0,0-0.1,0-0.1c0.1-0.1,0.1-0.3,0.2-0.4
			c0,0,0,0,0-0.1c0-0.1,0.1-0.2,0.1-0.4c0,0,0-0.1,0-0.1c0-0.1,0.1-0.2,0.1-0.3c0,0,0-0.1,0-0.1c0,0,0,0,0,0
			c2.2-0.1,4.3,0.2,5.3,0.7c0.4,0.2,0.8,0.5,0.9,1C81.6,63,81.6,63.4,81.6,63.7z"/>
		<path d="M68,34.6c-0.1-1.4-1-2.7-2.4-3.3c0,0,0,0,0,0c-1.2-0.5-2.4-0.6-3.7-0.3c0-0.2-0.1-0.3-0.1-0.5
			c-0.6-1.4-3.1-1.6-5.5-0.6c-2.4,1.1-3.9,3.1-3.3,4.5c0.1,0.2,0.2,0.4,0.3,0.5c-1.2,0.9-2,1.9-2.3,3.1c-0.4,1.5-0.1,3,1,4
			c0.6,0.5,1.3,0.8,2,0.8c0.3,0,0.7-0.1,1-0.2c0.6-0.2,1.1-0.4,1.6-0.7c0.4,1.1,0.8,2.2,1.3,3.3c0.5,1.2,1.3,1.9,2.3,2.1
			c0.1,0,0.2,0,0.3,0c1,0,2-0.5,2.6-1.4c0.2-0.3,0.4-0.6,0.5-0.9c0.3,0.1,0.6,0.2,1,0.2c0.1,0,0.2,0,0.3,0c1.1,0,2.1-0.5,2.7-1.3
			c0.6-0.9,0.6-2,0-3.1c-0.6-1.1-1.1-2.3-1.7-3.3c0.3-0.1,0.6-0.3,0.9-0.5C67.5,36.8,68,35.7,68,34.6z M62,45.5
			c-0.5,0.6-1.2,1-1.9,0.9c-0.8-0.1-1.2-0.8-1.4-1.4c-0.5-1.2-0.9-2.4-1.4-3.6c0,0,0,0,0.1-0.1c0,0,0,0,0.1-0.1c0,0,0.1-0.1,0.1-0.1
			c0,0,0,0,0,0c0.1-0.1,0.1-0.1,0.2-0.2c0,0,0,0,0,0c0,0,0.1-0.1,0.1-0.1c0,0,0,0,0-0.1c0,0,0.1-0.1,0.1-0.1c0,0,0,0,0-0.1
			c0,0,0.1-0.1,0.1-0.1c0,0,0,0,0-0.1c0,0,0.1-0.1,0.1-0.1c0,0,0,0,0,0c0.1-0.1,0.1-0.1,0.2-0.2c0,0,0,0,0,0c0,0,0,0,0.1-0.1
			c0,0,0,0,0,0c0,0,0,0,0.1-0.1c0,0,0,0,0,0c0,0,0,0,0-0.1c0,0,0,0,0,0c0,0,0,0,0,0c0,0,0,0,0,0c0,0,0,0,0,0c0,0,0,0,0,0
			c0,0,0,0,0.1,0c0,0,0,0,0,0c0,0,0,0,0.1,0c0,0,0,0,0,0c0,0,0,0,0.1,0c0,0,0,0,0.1,0c0,0,0,0,0.1,0c0,0,0,0,0.1,0c0,0,0,0,0.1,0
			c0,0,0,0,0.1,0c0,0,0,0,0.1,0c0,0,0,0,0.1,0c0,0,0.1,0,0.1,0c0,0,0,0,0.1,0c0,0,0.1,0,0.1,0c0,0,0,0,0.1,0c0,0,0,0,0,0l2.3,5.1
			C62.5,44.7,62.2,45.2,62,45.5z M66.3,41.6c0.3,0.5,0.5,1.3,0.1,1.9c-0.4,0.5-1.2,0.9-1.9,0.8c-0.3,0-0.9-0.1-1.1-0.7l-2.3-5.1
			c0,0,0,0,0,0c0.1,0,0.2,0,0.3,0c0,0,0,0,0.1,0c0.1,0,0.2,0,0.3,0c0,0,0,0,0,0c0.1,0,0.2,0,0.3,0c0,0,0,0,0.1,0c0.1,0,0.2,0,0.3,0
			c0,0,0.1,0,0.1,0c0,0,0.1,0,0.1,0c0,0,0.1,0,0.1,0c0.1,0,0.1,0,0.2,0c0,0,0,0,0,0c0.1,0,0.1,0,0.2,0c0,0,0,0,0,0
			c0.1,0,0.1,0,0.2,0c0,0,0,0,0,0c0.1,0,0.2,0,0.2,0c0,0,0,0,0.1,0c0.1,0,0.2,0,0.3,0c0,0,0,0,0.1,0c0.1,0,0.2,0,0.3-0.1
			c0,0,0,0,0,0c0.1,0,0.2-0.1,0.3-0.1c0,0,0,0,0,0C65.2,39.3,65.7,40.5,66.3,41.6z M65.9,36.3c-0.5,0.3-0.9,0.5-1.3,0.6
			c-1,0.4-1.6,0.4-2.3,0.4c-0.7,0-1.3,0-2.3,0.4c-0.1,0.1-0.3,0.1-0.4,0.2c-0.7,0.3-1.2,0.7-1.6,1.1c-0.2,0.2-0.4,0.4-0.6,0.7
			c-0.1,0.1-0.2,0.2-0.2,0.3c-0.2,0.3-0.5,0.6-0.9,0.9c-0.5,0.3-1.1,0.6-1.9,0.9c-0.7,0.2-1.3,0.1-1.9-0.4c-0.7-0.7-1-1.8-0.6-2.8
			c0.3-1,0.8-1.7,1.8-2.5c1.3,0.5,3.1,0.4,4.9-0.4c1.8-0.8,3.2-2.1,3.6-3.5c1.1-0.2,2-0.1,2.8,0.2c1,0.4,1.7,1.3,1.8,2.3
			C66.9,35.4,66.6,36,65.9,36.3z"/>
	</g>
</svg>
