<svg viewBox="0 0 128 128">
	<g>
		<path d="M94.1,65.1c-2.6-7.5-4.7-15.6-4.7-17.9c0-8-4-4.3-7.1,6.5c-4,14.3-16.1,26.5-26.2,26.4
			c-8.8,0-11.7-1.6-15.3-8.5c-6.5-12.4,0.6-31.4,18.7-50C72.8,7.8,80.1,6.6,80.1,18c0,17.8-12.3,43.9-18.7,39.9
			c-3.2-2-2.6-10.6,1-17.2c3.1-5.6,2.5-14.2-1-14.2C57.2,26.5,49.1,41.5,48,51c-0.9,8.4-0.4,10.4,3.6,12.6C65.7,71.1,84.1,48.2,85,22
			C85.5,8.2,82.9,4.4,74.4,6.5c-12.3,3.1-45.6,46-45.6,58.8c0,10,5,17.1,13.9,19.5c15.1,4.1,29.6-3.2,40-19.8l4.3-7l0,9.5
			c0,13.7-9,21-37.2,30.1c-7,2.3-13.1,4.4-13.5,4.7c-1.3,1.1,12,19.8,14.1,19.8c1.2,0,8.1-1.7,15.3-3.8h0
			C99.2,108.6,105.2,97.4,94.1,65.1z"/>
	</g>
</svg>
