<svg viewBox="0 0 128 128">
	<g>
		<path d="M63.9,122c-5.1,0-9.9-1.3-13.5-3.8c-0.7-0.4-1.3-0.8-2.1-0.9c-5.6-1-9.9-3.9-12.8-8.7
			c-1.1-1.7-2.2-2.8-3.9-3.5c-4.5-2.1-7.6-6.4-8.3-12c-0.7-5.1,0.7-10.3,3.5-13.2c0,0.1,0.1,0.2,0.1,0.2c0.5,1.2,1,2.5,1.5,3.6
			c0.7,1.2,1.5,2.2,2.3,3.3c0.4,0.5,0.7,0.9,1.1,1.3l0.4,0.6l1.8-0.5l0.1-0.7c0.1-0.6,0.1-1.2,0.2-1.7c0.1-1.2,0.3-2.6,0.4-3.9
			c0.2-3.3,0.3-5.7,0.3-8.1c0-3.8-1.6-6.5-4.8-8.1c-1.8-1-4.2-2.3-6.2-3.9c-2.1-1.7-3.2-3.6-3.2-5.7c0-2,1.2-3.9,3.4-5.7
			c1.4-1.2,2.2-2.4,2.3-4l0.1-0.7c0.3-3,0.6-6-1.7-8.8c-0.5-0.6-0.8-1.4-1-2.3c-0.7-2.1-0.5-3.9,0.4-5.3c0.9-1.4,2.4-2.3,4.5-2.6
			c1.3-0.2,2.9-0.7,3.1-3.1c0.3-2.5,0-5.3-3.5-7.2c-1.5-0.8-3.2-1.3-4.7-1.9c-0.3-0.1-0.6-0.2-0.9-0.3c2.3-2.8,5.7-4.3,10-4.5
			c0.4,0,0.7,0,1.1,0c4.9,0,9.3,2.1,13.5,6.6c0.3,0.3,0.6,0.6,0.8,1c0.4,0.5,0.8,1,1.2,1.3c0.4,0.4,1.2,0.9,2,0.9h0.2
			c1.1-0.1,1.4-1.6,1.4-2.1c0.3-3.3,1.7-6,4.3-8.4C57.3,9.1,57.4,9,57.5,9l1.2,5.7h2.1l0.2-0.8c0.7-3.6,2.8-6.1,6.8-7.9
			c-0.1,1-0.2,1.9-0.1,2.9c0.1,1,0.3,1.9,0.5,2.9c0.1,0.5,0.2,0.9,0.3,1.3l0.3,1.4l1.2-0.9l0.9-0.6c1.7-1.2,3.3-2.3,5-2.7
			c-0.1,0.3-0.1,0.5-0.2,0.8c-0.5,1.6-0.9,3.3-1.2,5c-0.2,1.1-0.1,1.9,0.4,2.6c0.3,0.4,1,0.9,2,0.9c1,0,1.9-0.7,2.4-1.2
			c2.8-3.3,6.3-6.7,11.5-8.1c1.3-0.3,2.7-0.5,3.9-0.5c4.2,0,8.1,1.7,10.7,4.7c-0.2,0.1-0.4,0.1-0.6,0.2c-0.4,0.2-0.9,0.3-1.2,0.4
			c-1.2,0.4-2.5,0.8-3.6,1.4c-3.7,2.1-4,4.4-3.3,8.3c0.2,1.1,1.5,1.5,1.6,1.6c0.5,0.2,0.9,0.2,1.3,0.3c0.3,0,0.6,0.1,0.9,0.2
			c3.5,1.1,5,3.7,4,7.2c-0.4,1.2-1,2.6-1.7,3.7c-2.3,3.6-1.3,7.4-0.6,10.4c0.2,1,1.1,1.5,1.7,2c0.1,0.1,0.3,0.2,0.4,0.3
			c1.9,1.5,3,3.4,3,5.4c0,1.8-0.8,3.6-2.5,5.1c-2,1.7-4.4,3.2-6.8,4.5l-0.5,0.3c-2.8,1.6-4.3,3.9-4.3,6.8c0,3.5,0.1,7.1,0.3,10.4
			c0.1,1.4,0.1,2.9,0.2,4.4l0.1,1.8l1.4-1.1c3-2.2,4.9-5,5.9-8.6c2.7,3.3,3.9,7.1,3.6,11.8c-0.5,7-3.6,11.7-9.9,14.2
			c-1,0.4-1.5,1.3-1.7,1.7c-3.2,5.7-7.6,8.9-13.6,9.9c-0.8,0.1-1.5,0.6-1.9,0.9C73.7,120.8,69,122,63.9,122z M47.9,106.9
			c0.5,0.5,1,0.9,1.3,1.3c1.2,1.1,2.5,1.7,3.8,1.7c1.5,0,3-0.8,4-2.2c0.6-0.7,1.1-1.4,1.5-2.1c0.2-0.3,0.5-0.7,0.7-1l0.1-0.1v-0.2
			c0.3-1.1,0.5-2.1-0.1-3c-0.6-0.9-1.7-1-2.7-1.1c-0.9,0-1.6,0-2.5,0c-0.8,0-1.5,0-2.3,0H51c-2.2,0-3.5,0-4.2,1
			c-0.7,0.9-0.5,2.1,0,4.1l0.1,0.3l0.6,0.6l0,0L47.9,106.9z M74.3,100.3c-1.1,0-2,0-3.1,0c-1,0-2.1,0.2-2.8,1.1c-0.7,0.9-0.4,2-0.2,3
			v0.2c0,0,0.5,0.7,0.7,1c0.5,0.7,0.9,1.2,1.3,1.9c1.6,2.1,3.3,2.5,4.4,2.5c1.4,0,2.9-0.7,4.1-2c0.4-0.4,0.8-0.8,1.1-1.2l0.5-0.5
			l-1.5-1.2l1.6,1.1l-1.4-1.2l1.5,1.2l0.4-0.8v-0.1c0.5-1.3,0.9-2.7,0.2-3.7c-0.7-1-2-1.2-3.5-1.2C76.7,100.3,75.5,100.3,74.3,100.3z
			 M26.5,83.9c-1.1,0-1.2,0.8-1.2,0.9c-0.1,0.6-0.2,1.2-0.3,1.7c-0.2,1.4-0.5,2.9-0.4,4.3c0.1,7.3,4,12.3,11.1,14.2
			c1.1,0.3,2.2,0.5,3.3,0.6c0.5,0.1,1.1,0.2,1.5,0.2l1.3,0.2l-0.8-5l3.8-7l-1.4-0.1c-5.9-0.6-12.6-2.1-15.8-9c-0.1-0.7-0.5-1-0.9-1
			C26.8,83.9,26.7,83.9,26.5,83.9z M86,106l1.2-0.1c6.5-0.4,10.8-2.6,13.7-6.9c2.7-4,3.1-8.8,1.3-14.6l-0.8-2.5l-1.5,3.4
			c-3,6-8.3,7.8-15.5,8.6L83,94.1l3.6,7L86,106z M39,52c0,4.1,3.8,6.3,7.5,6.3c1.7,0,3.4-0.5,4.6-1.4l0.7-0.5l-0.5-0.9
			c-0.1-0.2-0.2-0.4-0.4-0.6c-0.2-0.2-0.4-0.4-0.6-0.6l-0.2-0.2c-1.8-2.1-4.3-3.8-6.7-5.4c-1.1-0.7-2-1.3-2.9-2L39,45.7V52z
			 M87.4,46.8c-3.4,1.9-6.8,4.1-9.7,7.5L76,56.4l0.8,0.6c1.2,1,2.9,1.4,4.6,1.4c3.6,0,7.5-2.2,7.5-6.3V46L87.4,46.8z M32.2,16.5
			l1.1,5.8c0.1,0.3,0.1,0.7,0.2,1c0.1,0.5,0.2,1,0.3,1.4c0.4,1.8,1.8,2.7,3.2,2.7c0.4,0,0.7-0.1,1-0.2c1.3-0.5,3-2.1,3.2-3.5
			c0.1-1.3-0.5-2.9-1.7-4.2c-1.6-1.8-3.9-3-5.8-3l0,0L32.2,16.5z M94.3,16.4H94c-0.3,0-0.7,0.1-1.2,0.2c-2.6,0.7-4.4,2.5-5.6,5.3
			c-0.3,0.7-0.7,2.3,0.1,3.3c0.1,0.1,0.2,0.2,0.3,0.4c0.6,0.8,1.4,1.9,3,1.9c0.4,0,0.8-0.1,1.2-0.2c1.8-0.6,2.2-1.8,2.4-3
			c0.3-1.5,0.5-3,0.8-4.6l0.6-3.5L94.3,16.4z"/>
	</g>
</svg>
