<svg viewBox="0 0 128 128">
	<g>
		<path d="M77.2,22.7l6.4-6.8c3.5-3.7,6.4-7,6.5-7.2c0.2-1-2.5-3.2-3.3-2.7c-0.1,0.1-3.3,3.4-7.1,7.4
			l-6.9,7.3l-2.8,10.7l-7.7,0.1c-14.3,0.3-22.8,1.5-24.3,3.3c-0.3,0.3-0.3,0.5,0.3,0.9c3.7,3.2,33.3,4.2,46.9,1.5
			c4.8-0.9,6.1-2.1,3.4-3.2c-2-0.9-9.3-2.1-12.6-2.1c-0.9,0-1.1-0.1-1.1-0.4c0-0.2,0.5-2.3,1.1-4.7L77.2,22.7z"/>
		<path d="M80.8,95.3c-3.1,1.1-9.1,2-14.5,2.3c-6,0.3-15.2-0.8-19.9-2.4c-0.7-0.2-1.2-0.4-1.2-0.3h0
			c0,0,0.7,1.3,1.6,2.8l1.6,2.8l0.7,9.2l0.7,9.3l0.7,0.6c1.7,1.5,5.9,2.3,12.3,2.4c7.3,0.2,13-0.8,14.9-2.4l0.7-0.6l0.5-9.3l0.5-9.3
			l1.5-2.6c0.8-1.4,1.5-2.7,1.5-2.8C82.4,94.8,81.7,95,80.8,95.3z"/>
		<path d="M89.8,37.4c0,0-0.6,0.1-1.3,0.4c-1.8,0.6-5.7,1.3-10.3,1.8C73.1,40.1,56,40.1,51,39.7
			c-4.7-0.4-9.2-1.1-11.1-1.8l-1.6-0.5v0.5l0,0c0,0.3,0.6,6.3,1.3,12.5l3.1,30c0.5,5.2,1.3,12.2,1.4,12.4c0.7,0.8,5.6,2.2,10.5,3
			c3.8,0.6,14.6,0.6,18.4,0c3.3-0.5,6.8-1.4,8.5-2c2.1-0.8,2.2-0.1,3.1-8l0,0l0,0c0.1-1.1,0.3-2.4,0.4-3.8c0.5-4.5,0.9-8.3,1.1-9.9
			l1.1-9.7c0.3-2.4,0.6-5.6,1.1-9.7c0-0.4,0.1-0.7,0.1-1.1l0,0h0C89.2,43.8,89.9,37.4,89.8,37.4z"/>
	</g>
</svg>
