<svg viewBox="0 0 128 128">
	<g>
		<path d="M43.8,25.1l-19,19v18.8v18.9L44,62.5l19.1-19.1V24.7C63.1,14.5,63,6,62.9,6
			C62.8,6,54.2,14.6,43.8,25.1z"/>
		<polygon points="84,65.2 64.9,84.4 64.9,103.1 64.9,122 84,102.9 103.2,83.6 103.2,64.9 103.2,46"/>
		<path d="M24.8,84.9v18.4v18.4l2-2c5.2-5.2,34.8-34.8,34.8-34.8c0,0-8.3,0-18.4,0L24.8,84.9L24.8,84.9z"/>
		<path d="M26.1,83.1c0,0,8.3,0,18.4,0h18.4V64.7V46.3l-2.4,2.4C54.4,54.7,26.1,83,26.1,83.1z"/>
		<path d="M83.5,63.5c10.1-10.1,18.4-18.6,18.4-18.7c0-0.1-8.4-0.2-18.6-0.2l-18.6,0.1l-0.1,5
			c-0.1,2.8,0,11.2,0.1,18.6l0.2,13.6L83.5,63.5z"/>
	</g>
</svg>
