<svg viewBox="0 0 128 128">
	<g>
		<path d="M116.8,50.3c-2.3-1.1-3.2-1.7-4-2.3c-0.7-0.6-1.7-1-2.8-1.2c-0.4-0.1-1.1-0.4-1.4-0.7
			c-0.6-0.6-3.5-3-4.2-3.6c-0.9-0.7-2.7-1.4-3.5-1.4c-1.1,0-2.3,0.7-2.5,1.4c-0.3,1.2,0.9,2.2,4.3,4c1,0.5,1.9,1,2,1.1
			c0.3,0.2-1.1,1.2-2.7,2c-1.2,0.6-1.6,0.7-3.1,0.7c-1.6,0-1.9-0.1-2.6-0.5c-1.3-0.8-4.8-4.4-8.5-8.6c-3.9-4.4-5.5-5.9-7.6-7.5
			c-4.1-3.1-7-4.1-11.7-4.1c-2.6,0-3.1,0.1-4.7,0.6c-1.8,0.6-2.2,0.7-4.3,2c-2.3,1.3-9.4,7.1-11,9C47,42.9,38.8,50.7,37.1,52
			c-0.6,0.4-1.2,1-1.5,1.2c-1.8,1.7-7.5,4.9-10.5,5.9c-4.5,1.5-9.6,0.2-12.9-3.3c-1.8-2-2.9-3.7-3.7-6.1c-0.7-1.9-1.1-2.1-2-1.1
			c-1,1.1-0.6,3.1,1.5,7.5c1.6,3.2,2.6,4.3,4.8,5.4c2,1,5.5,2.1,8.1,2.6c1.9,0.4,7,0.4,8.4,0.1c4.8-1.1,8-2.3,12.3-4.4
			c3.2-1.6,5.6-2.9,6.7-3.5c1.4-0.9,1.7-0.9,2.2,0c0.2,0.4,0.6,1,0.9,1.3c0.3,0.3,0.5,0.6,0.5,0.7c0,0.1,1.1,1.2,2.3,2.2
			c1.8,1.5,4.6,3.4,8.1,5.3c1,0.5,2,1.2,2.2,1.5c0.5,0.7,2.6,5.1,3.1,6.3c0.2,0.5,0.9,3,1.5,5.6c1.4,5.4,2.1,7.6,3.3,9.7
			c1,2,1.7,2.6,3.7,3.5c2.3,1.1,5.6,1.8,16.9,3.5c4.6,0.7,6.3,1,10.1,1.9c1.5,0.3,2.9,0.6,3.1,0.7h0c1.1,0.2,3-0.4,3-1.1
			c0-0.6-0.6-1-3.3-2.1c-3.6-1.4-4.7-1.8-12.4-4.1c-6.7-2-13-4.3-14.5-5.3C77.8,85,77.4,84,77.1,81c-0.1-1.5-0.4-3.5-0.5-4.6
			c-0.1-1-0.2-2.9-0.1-4.1c0.2-3.5,1.1-5.4,3-6.6c0.4-0.2,0.8-0.5,0.8-0.6c0.3-0.3,1.7-1,2.1-1c0.3,0,0.9,0.4,1.5,0.9
			c0.6,0.5,1.1,0.9,1.1,0.9c0.1,0,0.3,0.4,0.6,0.8c0.6,1,0.6,2.5,0.1,4.1c-0.5,1.5-2,3.7-2.8,4.2c-0.9,0.5-1.6,0.3-1.8-0.3
			c-0.1-0.5-0.2-0.5-1.2-0.4c-0.7,0.1-1.7,1.2-1.7,1.9c0,0.8,1,2.4,1.5,2.6c0.2,0.1,0.4,0.2,0.4,0.3c0,0.4,1.8,0,3.2-0.7
			c1.7-0.8,3.3-2.3,5.2-4.8c4.2-5.7,4.7-6.2,6.5-6.8c1.7-0.6,3.1-1.6,6.8-5.4c3.6-3.6,5.5-5,7.4-5.5c1.2-0.3,1.5-0.3,4.9,0.1l3.6,0.5
			l1.4-0.5c1.9-0.6,2.8-1.2,2.8-1.8C122,53.4,120.1,51.9,116.8,50.3z"/>
	</g>
</svg>
