<svg viewBox="0 0 128 128">
<g>
	<path d="M77.9,80.5c3.5,5.8,8.2,10,16.3,10c6.9,0,11.2-3.4,11.2-8.2c0-5.7-4.5-7.7-12-11l-4.1-1.8
		c-11.9-5.1-19.9-11.5-19.9-24.9c0-12.4,9.5-21.8,24.2-21.8c10.5,0,18.1,3.7,23.5,13.2l-12.9,8.3c-2.8-5.1-5.9-7.1-10.6-7.1
		c-4.8,0-7.9,3.1-7.9,7.1c0,5,3.1,7,10.2,10l4.1,1.8c14.1,6,22,12.2,22,26c0,14.9-11.7,23-27.4,23c-15.4,0-25.3-7.3-30.1-16.9
		L77.9,80.5z M19.5,81.9c2.6,4.6,5,8.5,10.6,8.5c5.4,0,8.9-2.1,8.9-10.4V23.8h16.5v56.5c0,17.1-10,24.9-24.7,24.9
		C17.6,105.1,9.9,98.3,6,90L19.5,81.9z"/>
</g>
</svg>
