<svg viewBox="0 0 128 128">
	<g id="XMLID_2_">
		<path d="M48.8,95.7c-17.8,5,10.8,15.3,33.6,5.5c-3.7-1.4-6.4-3.1-6.4-3.1c-10.1,1.9-14.8,2.1-24,1
			C44.3,98.3,48.8,95.7,48.8,95.7z"/>
		<path d="M79.6,86c-13.4,2.6-21.2,2.5-31,1.5C41,86.7,46,83,46,83c-19.6,6.5,10.9,13.9,38.4,5.9
			C81.5,87.9,79.6,86,79.6,86z"/>
		<path d="M90.1,29.7c0,0-39.7,9.9-20.7,31.8c5.6,6.4-1.5,12.2-1.5,12.2s14.2-7.3,7.7-16.5
			C69.5,48.6,64.8,44.4,90.1,29.7z"/>
		<path d="M99.4,105.1c0,0,3.3,2.7-3.6,4.8c-13.1,4-54.6,5.2-66.1,0.2c-4.1-1.8,3.6-4.3,6.1-4.8
			c2.5-0.6,4-0.4,4-0.4c-4.6-3.2-29.8,6.4-12.8,9.1C73.3,121.4,111.4,110.5,99.4,105.1z"/>
		<path d="M83.5,76.9c2.2-1.5,5.3-2.8,5.3-2.8s-8.8,1.6-17.5,2.3c-10.7,0.9-22.1,1.1-27.9,0.3
			c-13.6-1.8,7.5-6.8,7.5-6.8s-8.2-0.6-18.3,4.3C20.7,79.9,62.1,82.5,83.5,76.9z"/>
		<path d="M88.7,91c-0.1,0.3-0.4,0.6-0.4,0.6c29.1-7.6,18.4-26.9,4.5-22c-1.2,0.4-1.9,1.4-1.9,1.4
			s0.8-0.3,2.5-0.7C100.4,68.8,110.5,79.7,88.7,91z"/>
		<path d="M64.2,69.6c-4.3-9.7-18.8-18.2,0-33C87.7,18.1,75.6,6,75.6,6c4.9,19.2-17.1,24.9-25.1,36.9
			C45.1,51,53.2,59.7,64.2,69.6z"/>
		<path d="M89.5,117.7c-17.8,3.4-39.8,3-52.9,0.8c0,0,2.7,2.2,16.4,3.1c20.9,1.3,53-0.7,53.7-10.6
			C106.8,111,105.3,114.8,89.5,117.7z"/>
	</g>
</svg>
