<svg viewBox="0 0 128 128">
	<g>
		<path d="M83.4,8.7L83.4,8.7L83.4,8.7l-0.2-0.1C76.5,6.1,65,4,62.9,9.5c-1.1,2.9,0.2,6.1,1,7.5
			l-33.2,85.1l-0.1,0.2c-2.7,10.7,4.2,16.1,7.4,17.9l-0.1,0.2l3.1,1.2l0.1-0.1c1,0.2,2.4,0.5,3.9,0.5c4.2,0,9.8-1.5,13.7-8.7
			l0.1-0.1L92,28c1.5-0.6,4.6-1.9,5.7-4.8C99.8,17.6,90,11.4,83.4,8.7z M94.8,21.9c-0.8,1.9-3.4,2.9-4.4,3.2l-0.8,0.2l-33.8,86.5
			c-5.1,9.2-13.6,6.8-15.2,6.3l0,0l0,0c-1.6-0.7-9.4-4.7-6.9-14.9l33.4-85.8l0.3-0.8L66.9,16c-0.6-0.9-1.8-3.4-1-5.3
			c1-2.4,8.9-1.9,16.3,1h0.1l0,0l0,0C89.4,14.5,95.7,19.6,94.8,21.9z"/>
		<path d="M81.4,14.3c-5.4-2.1-10.2-3-10.8-1.2c-0.5,1.2,3.4,4.4,8.8,6.5c5.4,2.1,10.3,2.8,10.8,1.2
			C90.6,19.6,86.8,16.4,81.4,14.3z"/>
		<path d="M66.7,52.9c-6.8,1.2-11.8,2.6-14.3,8.9l-16.3,41.6c0,0-3,8.5,5.5,11.8c0,0,8.7,2.5,11.8-5.4
			c3-7.8,25.6-65.7,25.6-65.7S73.4,51.7,66.7,52.9z"/>
	</g>
</svg>
