<svg viewBox="0 0 128 128">
	<g>
		<path d="M65.2,104c-0.8-0.2-1.5-0.4-2.3-0.6c-0.2-0.1-0.4-0.1-0.6-0.2c-0.7-0.2-1.5-0.5-2.2-0.7
			c-0.1,0-0.2-0.1-0.3-0.1c-0.6-0.2-1.3-0.5-1.9-0.7c-0.2-0.1-0.4-0.1-0.5-0.2c-0.7-0.3-1.4-0.6-2.1-0.9c-0.1-0.1-0.3-0.1-0.4-0.2
			c-0.6-0.3-1.2-0.5-1.8-0.8c-0.2-0.1-0.3-0.2-0.5-0.2c-0.5-0.2-0.9-0.5-1.4-0.7c-0.3-0.2-0.6-0.3-0.9-0.5c-0.6-0.3-1.1-0.6-1.6-0.9
			c-0.2-0.1-0.4-0.2-0.6-0.3c-0.7-0.4-1.4-0.9-2.1-1.3c-0.2-0.1-0.4-0.3-0.6-0.4c-0.5-0.3-1-0.7-1.5-1c-0.2-0.1-0.3-0.2-0.5-0.3
			c-0.5-0.3-1-0.7-1.4-1c-0.2-0.2-0.4-0.3-0.6-0.5c-0.4-0.3-0.9-0.7-1.3-1c-0.2-0.2-0.4-0.3-0.6-0.5c-0.5-0.4-1.1-0.9-1.6-1.4
			c-0.1,0-0.1-0.1-0.2-0.1c-0.6-0.5-1.1-1-1.7-1.5c-0.2-0.2-0.3-0.3-0.5-0.5c-0.4-0.4-0.8-0.8-1.2-1.2c-0.2-0.2-0.3-0.3-0.5-0.5
			c-0.5-0.5-1-1-1.5-1.6c0,0,0-0.1-0.1-0.1c-0.5-0.6-1-1.1-1.5-1.7c-0.1-0.2-0.3-0.3-0.4-0.5c-0.4-0.4-0.7-0.9-1.1-1.3
			c-0.1-0.2-0.3-0.3-0.4-0.5c-0.4-0.6-0.8-1.1-1.3-1.7C16.4,63,12.3,41.7,21.4,24.2l-8,10.2c-10.3,14.8-9,34-1.1,49.7
			c0.2,0.4,0.4,0.7,0.6,1.1c0.1,0.2,0.2,0.5,0.4,0.7c0.1,0.1,0.2,0.3,0.2,0.4c0.1,0.2,0.3,0.5,0.4,0.7c0.2,0.4,0.5,0.9,0.7,1.3
			c0.1,0.2,0.3,0.5,0.4,0.7c0.3,0.5,0.6,0.9,0.9,1.4c0.1,0.2,0.2,0.4,0.4,0.6c0.4,0.6,0.8,1.2,1.3,1.8c0,0,0,0,0,0
			c0.1,0.1,0.1,0.2,0.2,0.3c0.4,0.5,0.8,1,1.1,1.5c0.1,0.2,0.3,0.4,0.4,0.6c0.3,0.4,0.7,0.9,1.1,1.3c0.1,0.2,0.3,0.3,0.4,0.5
			c0.5,0.6,1,1.1,1.5,1.7c0,0,0,0,0,0c0,0,0,0,0.1,0.1c0.5,0.5,1,1.1,1.5,1.6c0.2,0.2,0.3,0.3,0.5,0.5c0.4,0.4,0.8,0.8,1.2,1.2
			c0.2,0.2,0.3,0.3,0.5,0.5c0.5,0.5,1.1,1,1.6,1.5c0,0,0,0,0,0c0.1,0.1,0.2,0.2,0.3,0.2c0.5,0.4,1,0.8,1.5,1.3
			c0.2,0.2,0.4,0.3,0.6,0.5c0.4,0.3,0.8,0.7,1.2,1c0.2,0.2,0.4,0.3,0.7,0.5c0.5,0.3,0.9,0.7,1.4,1c0.2,0.1,0.3,0.2,0.5,0.4
			c0,0,0.1,0.1,0.1,0.1c0.4,0.3,0.9,0.6,1.4,0.9c0.2,0.1,0.4,0.3,0.6,0.4c0.7,0.4,1.4,0.9,2.1,1.3c0.2,0.1,0.4,0.2,0.6,0.3
			c0.5,0.3,1.1,0.6,1.6,0.9c0.3,0.2,0.6,0.3,0.9,0.5c0.4,0.2,0.8,0.4,1.1,0.6c0.1,0,0.2,0.1,0.3,0.1c0.2,0.1,0.3,0.1,0.5,0.2
			c0.6,0.3,1.2,0.6,1.8,0.8c0.1,0.1,0.3,0.1,0.4,0.2c0.7,0.3,1.4,0.6,2.1,0.9c0.2,0.1,0.3,0.1,0.5,0.2c0.7,0.3,1.3,0.5,2,0.7
			c0.1,0,0.2,0.1,0.2,0.1c0.7,0.3,1.5,0.5,2.2,0.7c0.2,0.1,0.4,0.1,0.5,0.2c0.8,0.2,1.5,0.5,2.3,0.6c49.7,9.1,64.1-29.8,64.1-29.8
			C107.1,104.4,85.6,108.6,65.2,104z"/>
		<path d="M47.3,63.7c1.1,1.6,2.3,3.5,3.8,4.8c0.5,0.6,1.1,1.2,1.7,1.7c0.1,0.1,0.3,0.3,0.4,0.4
			c0.6,0.5,1.1,1.1,1.7,1.6c0,0,0,0,0.1,0.1c0,0,0,0,0,0c0.6,0.6,1.3,1.1,2,1.6c0.2,0.1,0.3,0.2,0.5,0.4c0.7,0.5,1.4,1,2.1,1.5
			c0,0,0,0,0.1,0c0.3,0.2,0.6,0.4,0.9,0.6c0.2,0.1,0.3,0.2,0.4,0.3c0.5,0.3,1,0.6,1.5,0.9c0.1,0,0.1,0.1,0.2,0.1
			c0.4,0.3,0.9,0.5,1.4,0.8c0.2,0.1,0.3,0.2,0.5,0.3c0.3,0.2,0.6,0.3,1,0.5c0,0,0.1,0,0.1,0.1c0.7,0.3,1.3,0.6,2,0.9
			c0.1,0.1,0.3,0.1,0.4,0.2c0.5,0.2,1.1,0.5,1.6,0.7c0.2,0.1,0.5,0.2,0.7,0.3c0.5,0.2,1,0.4,1.5,0.5c0.2,0.1,0.4,0.1,0.7,0.2
			c0.7,0.2,1.4,0.5,2.2,0.6c38.3,6.4,47.2-23.2,47.2-23.2c-8,11.5-23.4,17-39.9,12.7c-0.7-0.2-1.5-0.4-2.2-0.6
			c-0.2-0.1-0.4-0.1-0.7-0.2c-0.5-0.2-1-0.3-1.5-0.5c-0.2-0.1-0.5-0.2-0.7-0.3c-0.6-0.2-1.1-0.4-1.6-0.7C75.3,70,75.1,70,75,69.9
			c-0.7-0.3-1.3-0.6-2-0.9c-0.3-0.2-0.7-0.3-1-0.5c-0.2-0.1-0.4-0.2-0.6-0.3c-0.4-0.2-0.9-0.5-1.3-0.7c-0.1-0.1-0.2-0.1-0.3-0.2
			c-0.5-0.3-1-0.6-1.5-0.9c-0.2-0.1-0.3-0.2-0.5-0.3c-0.3-0.2-0.7-0.4-1-0.7c-0.7-0.5-1.4-1-2.1-1.5c-0.2-0.1-0.3-0.2-0.5-0.4
			C57.1,57.8,51.3,50,48.6,41.2c-2.9-9.2-2.2-19.4,2.7-27.8l-6.1,8.6c-7.4,10.7-7,25-1.2,36.3C45,60.1,46.1,62,47.3,63.7z"/>
		<path d="M87.7,50.5c0.3,0.1,0.6,0.2,1,0.3c0.1,0,0.3,0.1,0.4,0.1c0.5,0.1,0.9,0.3,1.4,0.4
			c21.2,4.1,26.9-10.9,28.4-13.1c-5,7.2-13.5,9-23.9,6.5c-0.8-0.2-1.7-0.5-2.5-0.8c-1-0.4-2-0.8-3-1.2c-1.8-0.9-3.6-2-5.2-3.2
			c-9.3-7-15-20.5-9-31.4l-3.3,4.5c-4.4,6.4-4.8,14.4-1.8,21.6C73.5,41.8,80.1,47.7,87.7,50.5z"/>
	</g>
</svg>
