<svg viewBox="0 0 128 128">
	<g>
		<path d="M10.6,25l2.9,4.9c0.9,1.5,1.8,3,2.8,4.5l4.2,7.1c0.9,1.6,1.9,3.2,2.9,4.8
			c1.4,2.3,2.9,4.7,4.2,7l5.2,8.7c1.5,2.5,2.9,5,4.5,7.5l0.2,0.3c0.2,0.1,0.4,0,0.6,0c1.9-0.5,4-0.9,5.9-1.4
			c3.2-0.7,6.4-1.6,9.6-2.3l5-1.2c3.2-0.7,6.4-1.6,9.7-2.3c3.2-0.7,6.5-1.6,9.8-2.3c1.7-0.4,3.3-0.8,5-1.2c3.2-0.7,6.4-1.5,9.6-2.3
			l10.4-2.5l0.6-0.2l-0.2-0.3l-2.9-4l-2.8-4l-3-4.2l-2.9-4l-2.9-4l-2.9-4.1c-0.9-1.4-1.9-2.7-2.9-4l-1.5-2.1
			c-0.3-0.4-0.5-0.6-0.6-1.1c-0.3-0.9,0-1.6,0.6-2c0.4-0.3,0.7-0.6,1.2-0.6c0.6-0.2,1.2-0.4,1.8-0.5c1.3-0.3,2.5-0.5,3.8-0.6
			l4.2-0.7c0.9-0.2,1.7-0.3,2.7-0.5c1.2-0.2,2.4-0.4,3.7-0.6c1.2-0.2,2.4-0.4,3.6-0.6l3.9-0.6l2.7-0.5c1-0.2,2-0.4,3-0.6
			c1.3-0.2,2.6-0.5,3.9-0.6c0.7-0.1,1.6-0.2,2.3,0.1c0.6,0.2,1.1,0.5,1.6,0.7l0.6,0.5c0.1-0.2,0-0.3-0.1-0.4c-0.9-1.9-2.3-3.6-4-5
			c-1.6-1.3-3.3-2.2-5.2-2.9c-1.1-0.4-2.3-0.2-3.5-0.3L20.6,6.6c-1,0.1-2,0.1-3,0.4c-2.2,0.6-4.1,1.6-5.9,3c-1,0.8-1.9,1.8-2.7,2.9
			c-1.2,1.7-1.9,3.6-2.3,5.6c0.2,0.3,0.4,0.6,0.5,0.8C8.3,21.2,9.4,23.2,10.6,25z"/>
		<path d="M52,114.1c-1.7-2.9-3.4-6-5.2-8.9c-1.8-3.2-3.6-6.4-5.4-9.7c-1.7-3-3.4-6.1-5.1-9.1
			c-1-1.8-2-3.7-3-5.5l-0.3-0.5l-0.5,0.1c-1,0.3-1.9,0.6-2.9,0.7c-1.4,0.4-2.8,0.7-4.1,1.1c-3,0.8-6.2,1.6-9.2,2.4
			c-3.1,0.8-6.4,1.7-9.6,2.4c-0.2,0.1,0.2,0.1-0.7,0.1v19.4c0.4,0.6,0.4,0.3,0.4,0.6c0.1,0.6,0.2,1.2,0.3,1.7c0.4,2.1,1.2,4,2.5,5.9
			c1.8,2.6,4.2,4.4,7.2,5.6c1,0.4,2.1,0.7,3.3,0.8l1.1,0.3l35.6,0.4c-0.1,0-0.1-0.5-0.2-0.6C54.8,119,53.4,116.5,52,114.1z"/>
		<path d="M116.5,60.1c0.2,0.4,5,6.8,5.2,7.1l0.2,0.1v-0.4v-2.8c0-1.6,0-3.1,0-4.8
			c0-0.2,0.1-0.4-0.1-0.6c0,0-0.2,0-0.2,0C120,59.1,118.3,59.6,116.5,60.1z"/>
		<path d="M118.7,20.8c-0.6-0.8-1.5-1.1-2.5-0.8c-0.5,0.1-0.9,0.2-1.4,0.3c-1.5,0.3-2.9,0.6-4.4,0.8
			c-2.1,0.4-4.3,0.8-6.4,1.2c-1.7,0.3-3.4,0.6-5.1,0.9l-6.8,1.2c-0.3,0.1-0.6,0.1-0.8,0.2c-0.4,0.1-0.6,0.4-0.4,0.7
			c0.2,0.3,0.4,0.6,0.6,0.9c1.4,1.9,2.9,3.9,4.2,5.8c1.9,2.7,3.9,5.3,5.9,8c1.7,2.3,3.3,4.5,5,6.8c1.3,1.7,2.6,3.6,3.9,5.3l0.3,0.3
			l11.3-2.8v-0.6c0-7.8,0-15.6,0-23.5c0-0.4-0.1-0.6-0.3-0.9c-0.9-1.2-1.8-2.4-2.9-3.6C118.9,21,118.7,20.8,118.7,20.8z"/>
		<path d="M9.7,76.5c3.6-0.8,7.3-1.7,10.9-2.6c1.6-0.4,3.2-0.7,4.8-1.1c0.8-0.2,1.6-0.4,2.4-0.6
			c0.7-0.2,0.8-0.5,0.5-1c-0.6-0.9-1-1.8-1.6-2.8l-4.7-8l-4.7-8c-1.6-2.8-3.1-5.4-4.8-8.2c-1.4-2.3-2.7-4.7-4-7c-0.6-1-1.3-2-1.8-3
			c-0.1-0.2,0.4-0.4-0.6-0.5v43.6c0,0,0.5-0.1,0.6-0.1C6.6,77.3,9.7,76.5,9.7,76.5z"/>
		<path d="M121.2,107.7c-1.4,0.5-2.9,1-4.2,1.6c-3.2,1.2-6.4,2.3-9.7,3.5c-1.8,0.6-3.6,1.3-5.4,1.9
			c-3.7,1.3-7.4,2.6-11,4c-2.1,0.7-4.2,1.7-6.4,2.5c-0.6,0.2-1.2,0.8-1.7,0.8h24.4l0.6-0.3c0.6,0,1.2-0.2,1.8-0.4
			c2.5-0.5,4.8-1.6,6.7-3.1c1.6-1.2,2.8-2.7,3.8-4.4c1-1.7,1.6-3.6,1.8-5.6c0-0.2,0.1-0.4-0.1-0.6
			C121.6,107.6,121.4,107.6,121.2,107.7z"/>
		<path d="M90.3,107.9l6.9-2.3c2.3-0.8,4.7-1.6,7-2.4c2.9-1,5.8-1.9,8.7-2.9c2.8-0.9,5.5-1.8,8.3-2.9
			c0.2-0.1,0.4-0.1,0.5-0.3v-0.4c0-5.8,0-11.5,0-17.3c0-0.3-0.1-0.6-0.3-0.8c-0.5-1.3-1.3-2.5-2.2-3.7c-1.1-1.5-2.1-2.9-3.2-4.4
			c-1.5-2-2.9-4-4.4-6.1c-0.6-0.8-1.2-1.7-1.8-2.5c-0.2-0.3-0.4-0.3-0.6-0.3h-0.2c-2.8,0.6-5.4,1.3-8.2,2l-4.9,1.2
			c-3.2,0.7-6.4,1.6-9.6,2.3c-3.1,0.7-6.3,1.6-9.5,2.3l-9.8,2.4c-3.2,0.7-6.4,1.6-9.7,2.4l-9.3,2.3c-1.7,0.4-3.3,0.8-5,1.2
			c-0.3,0.1-0.5,0.1-0.7,0.3l0.2,0.5c1.4,2.4,2.8,4.8,4.1,7.2c1.6,2.7,3.1,5.4,4.7,8.1c1.7,2.9,3.5,5.9,5.2,8.8c1,1.7,2,3.4,2.9,5.1
			c1.1,1.8,2.2,3.8,3.4,5.6c0.4,0.6,0.7,1.1,1.1,1.7c0.3,0.4,0.6,0.6,0.9,0.9c0.4,0.3,0.8,0.3,1.3,0.2c0.3-0.1,0.5-0.1,0.6-0.2
			l0.8-0.3c2.9-1,6-2,8.9-3c2.3-0.8,4.7-1.6,7-2.4C85.7,109.4,88,108.7,90.3,107.9z"/>
	</g>
</svg>
