<svg viewBox="0 0 128 128">
	<g>
		<path d="M21,73.6h-3.8c-2.2,0-2.3-0.4-2.3-1.9V47c0-1.5,0-2.3,4.3-2.3h1.5v-1.4
			c-1.7,0.2-5.9,0.2-7.8,0.2c-1.8,0-5.4,0-7.1-0.2v1.4h1.1c3.6,0,3.7,0.5,3.7,2.2v24.4c0,1.7-0.1,2.2-3.7,2.2H6V75h24.2L31.4,63
			h-1.2C29.9,67.8,29.2,73.6,21,73.6z"/>
		<path d="M38.6,63.3l-7.9-20c-0.2-0.5-0.3-0.7-0.9-0.7c-0.6,0-0.7,0.2-0.9,0.7l-7.5,19
			c-0.4,0.8-0.9,2.3-3.8,2.3v1.2h7.2v-1.2c-1.4,0-2.4-0.6-2.4-1.5c0-0.3,0.1-0.4,0.2-0.6l1.5-4h9.2l1.9,4.7c0.1,0.2,0.2,0.5,0.2,0.5
			c0,0.9-1.8,0.9-2.6,0.9v1.2H42v-1.2h-0.6C39.1,64.6,38.9,64.2,38.6,63.3z M24.7,57.2l4.2-10.5l4.2,10.5H24.7z"/>
		<path d="M121,73.6c-2.4,0-3.4-0.3-4.3-1.7l-9.8-14.7l6.3-9.3c1-1.4,2.5-3,6.7-3v-1.4h-11v1.4
			c1.9,0.1,2.9,1.1,2.9,2.2c0,0.5-0.1,0.5-0.5,1.1l-5.3,7.8l-6-9c-0.1-0.2-0.4-0.5-0.4-0.7c0-0.5,1-1.4,3-1.4v-1.4
			c-1.5,0.2-5,0.2-6.8,0.2c-1.4,0-4.3-0.1-6.1-0.2v1.4h0.9c2.5,0,3.4,0.4,4.3,1.6l8.5,12.8l-7.6,11.2c-0.6,0.9-2.1,3.1-6.7,3.1v1.4
			h2.1c-1.1,6.1-2.5,9-10,9h-6.2c-2.2,0-2.3-0.4-2.3-1.9V69.8h4.2c4.5,0,5.1,1.4,5.1,5.4h1.2V63h-1.2c0,4-0.5,5.4-5.1,5.4H73V57.3
			c0-1.5,0.1-1.9,2.3-1.9h6c7.1,0,8.3,2.5,9,9h1.2L90.2,54H68.8l-0.9-10.3H39.6l-0.8,10.4h1.1c0.6-7.5,1.4-9,8.4-9
			c0.8,0,2.1,0,2.5,0.1c1,0.2,1,0.7,1,1.8v24.4c0,1.5,0,2.3-4.9,2.3H45v1.4c1.9-0.2,6.6-0.2,8.8-0.2c2.2,0,7,0,8.9,0.2v-1.4h-1.9
			c-4.9,0-4.9-0.6-4.9-2.3V46.9c0-0.9,0-1.5,0.8-1.8c0.5-0.1,1.8-0.1,2.6-0.1c7,0,7.7,1.5,8.3,9h-3.4v1.4h1.1c3.6,0,3.7,0.5,3.7,2.2
			v24.3c0,1.7-0.1,2.2-3.7,2.2h-1.1v1.4h26.7l1.7-10.5h7.8v-1.4c-2.2-0.1-2.9-1.3-2.9-2.2c0-0.5,0.2-0.6,0.5-1.1l6.5-9.7l7.3,11
			c0.1,0.2,0.3,0.4,0.3,0.5c0,0.5-1,1.4-3,1.4v1.4c1.6-0.2,5.1-0.2,6.8-0.2c2,0,4.1,0.1,6.1,0.2v-1.4H121V73.6z"/>
	</g>
</svg>
