<svg viewBox="0 0 128 128">
	<g>
		<path d="M112.3,70.7L112.3,70.7l-4.5-1.6c-1.8-0.7-2.7-1.6-2.7-2.7c0-0.7,0.2-1.2,0.8-1.6
			c0.5-0.4,1.2-0.6,2.2-0.6c2.7,0,6.1,0.9,10.1,2.7c0.9-0.7,1.7-1.8,2.3-3.4c0.6-1.6,0.9-3.1,0.8-4.4c-1.6-0.8-3.7-2.3-6.3-2.9
			c-2.5-0.6-4.9-0.9-7-0.9c-4.3,0-7.7,1.8-10.2,3.9c-2.5,2.1-3.8,5-3.8,8.6c0,5,3,8.5,9,10.7l4,1.5c2.2,0.7,3.3,1.8,3.3,3.2
			c0,0.8-0.4,1.4-1.1,1.8c-0.7,0.5-1.8,0.7-3.1,0.7c-2.8,0-6.2-1-10-3c-0.8,0.9-1.5,2-2.1,3.5c-0.6,1.5-0.9,2.8-1,4.1
			c4.2,2.3,8.7,3.8,13.6,3.8s8.7-1.3,11.3-3.4c2.6-2.1,4-4.9,4-8.5C121.9,76.8,118.7,72.9,112.3,70.7z"/>
		<path d="M80.3,70.7l-4.5-1.6c-1.8-0.7-2.7-1.6-2.7-2.7c0-0.7,0.3-1.2,0.8-1.6c0.5-0.4,1.2-0.6,2.2-0.6
			c2.7,0,6.1,0.9,10.1,2.7c0.9-0.7,1.7-1.8,2.3-3.4c0.6-1.6,0.9-3.1,0.8-4.4c-1.6-0.8-3.7-2.3-6.3-2.9c-2.5-0.6-4.9-0.9-7-0.9
			c-4.3,0-7.7,1.8-10.2,3.9c-2.5,2.1-3.8,5-3.8,8.6c0,5,3,8.5,9,10.7l4,1.5c2.2,0.7,3.3,1.8,3.3,3.2c0,0.8-0.4,1.4-1.1,1.8
			c-0.7,0.5-1.8,0.7-3.1,0.7c-2.8,0-6.2-1-10-3c-0.8,0.9-1.5,2-2.1,3.5c-0.6,1.5-0.9,2.8-1,4.1c4.2,2.3,8.7,3.8,13.6,3.8
			c4.9,0,8.7-1.3,11.3-3.4c2.6-2.1,4-4.9,4-8.5C89.9,76.8,86.7,72.9,80.3,70.7z"/>
		<path d="M53,60.3c-1.3-1.3-2.9-2.4-4.7-3.1c-1.9-0.8-3.9-1.9-6.2-1.9c-2.7,0-5.1,1.2-7.2,2.2
			c-2,1-3.7,2.3-5,3.9c-1.3,1.7-2.3,3.6-3,5.9c-0.6,2.3-1,4.7-1,7.4c0,2.8,0.3,5.3,0.8,7.6c0.5,2.3,1.4,4.4,2.7,6.1
			c1.3,1.7,2.9,3,5,4c2,1,4.6,1.7,7.6,1.7c5.6,0,10.3-1.6,14.1-4.3c-0.4-2.8-1.4-5-2.9-6.6c-2,0.7-3.7,1.3-5.2,1.6
			c-1.5,0.3-2.8,0.5-4,0.5c-2.3,0-4-0.6-5-1.8c-1-1.2-1.6-2.6-1.7-4.7h18.8c0.6-2,0.9-4.7,0.9-7.6c0-2.2-0.3-4.2-1-6.1
			C55.3,63.3,54.3,61.7,53,60.3z M37.3,71.7c0.1-2.4,0.6-5,1.3-6.1c0.7-1.1,1.9-1.6,3.4-1.6c1.6,0,2.8,0.6,3.5,1.7
			c0.8,1.1,1.2,3.4,1.2,5.2l0,0.8H37.3z"/>
		<path d="M22.2,84.6h-1.9c-2.1,0-2.9-1.1-2.9-3.4V40.1c0-2.5-0.7-4.2-1.6-5.2c-0.9-1-2.5-1-4.8-1H6.5
			l-0.5,0v0l0,6.1v43.1c0,3.4,0.8,5.9,2.1,7.5c1.4,1.6,3.7,2.4,7,2.4c2.3,0,4.8-0.2,7.7-0.7c0.1-0.5,0.2-1.5,0.2-3.1
			C23,87.7,22.7,86.2,22.2,84.6L22.2,84.6z"/>
	</g>
</svg>
