<svg viewBox="0 0 128 128">
	<g>
		<path d="M104.5,22c0,0-46.3,0-59.7,0c-13.2,0-20.2,10.7-20.2,19.5c0,9.1,0.2,35.9,0.2,35.9
			c0,8.2,11.9,8.3,11.9,0V42.2c-0.1-4.3,2.5-7.8,8.4-7.8h59.6c8.1,0,7.8,12.2,0,12.2c-10.6,0.1-18.3,8.2-18.3,15.6l-0.2,21.3
			c0,8.2,11.9,7.8,11.9-0.5l0.2-16.4c0-4.9,2.2-7.8,7.5-7.8c7.1,0,16.2-7.2,16.2-19.1C122.1,30.9,116.1,22.1,104.5,22z"/>
		<path d="M79.2,40.5l-18.7,0.2c-9.2,0-17.6,7.8-17.5,17.8c0.1,10,7,18.8,17.9,18.8
			c8.4,0,8.3,12.1,0.1,12.1H26.5c-4.7,0-8.2-2.5-8.2-8.2l-0.2-40.2c0-9-12-8.9-12-0.1L6,82.5c0.6,11.7,9,18.4,18.1,18.7l38.8-0.4
			c9.2,0,16.7-7.7,16.7-17.8c0-9.4-6.2-17.4-17.9-17.8c-8.5,0-8.4-12.2,0-12.2h17.6C87.2,53.1,87,40.5,79.2,40.5z"/>
	</g>
</svg>
