<svg viewBox="0 0 128 128">
	<g>
		<path d="M113.5,28.3H14.4c-4.6,0-8.4,3.7-8.4,8.4v54.6c0,4.6,3.7,8.4,8.4,8.4h99.2
			c4.6,0,8.4-3.7,8.4-8.4V36.7C121.9,32.1,118.2,28.3,113.5,28.3z M116.4,91.3c0,1.5-1.2,2.8-2.8,2.8H14.5c-1.5,0-2.8-1.2-2.8-2.8
			V36.7c0-1.5,1.2-2.8,2.8-2.8h99.2c1.5,0,2.8,1.2,2.8,2.8V91.3z"/>
		<polygon points="45.1,59 34,45.1 22.7,45.1 22.7,82.9 34,82.9 34,61.2 45.1,75.1 56.2,61.2 56.2,82.9
			67.3,82.9 67.3,45.1 56.2,45.1"/>
		<polygon points="97.9,45.1 86.8,45.1 86.8,64.6 75.7,64.6 92.4,82.9 109.2,64.6 97.9,64.6"/>
	</g>
</svg>
