<svg viewBox="0 0 128 128">
	<g>
		<path d="M93.7,49c7.1-2.7,16.6-3.1,16.6-3.1C96.9,34.5,71.9,37,71.9,37C91.3,43.4,93.7,49,93.7,49z"/>
		<path d="M121.1,62.4c1.5-3.5,0.6-14.2,0.6-14.2c-48.5,1.7-78.2,43.3-78.2,43.3l3.7,2.8
			C58.1,81.1,70,73.8,70,73.8l0.3,1.1c2.7,8.4,9.3,7.2,9.3,7.2s-4.1-2.2-6.5-7.4c-2.4-5.2,1.5-6.6,3.4-6.5c1.9,0.1,2.5,0.9,2.5,0.9
			c0.1-4,4.5-4.4,4.5-4.4l12.7,0c0,0,5.3,6.2,9.5,6.3c4.2,0,8.7-2.3,8.7-2.3c-0.7,6.1,2.3,13.1,2.3,13.1l-3.8-0.1l-0.2,5.6l-5-0.7
			l-0.6,1.8l5.2,1.1v1.4L109,92l0.2,0.8c2,1.6,1.4,7.3,1.4,7.3c-14.9,2.4-26.6-12-26.6-12C84.5,99.3,94.8,103,94.8,103l-1.9,5.4
			l7.2-4.5c9.8,0.1,12.3-2.7,12.3-2.7c0.6-1.1-0.3-8.6-0.3-8.6l1.2-0.6v-3.5h1.2l0.2-5.2h4.6c-2.6-5.5-2.1-10.4-2.3-13.5
			c0-0.1,0-0.3,0-0.4C117.2,66.3,121.1,62.4,121.1,62.4z"/>
		<path d="M46,68.7c0,0,0.8,0.7,1.9,0C49,68,51,66.5,52.8,65c0,0,0,2.7-0.4,3.6c0,0,0.7,1.1,2.6-0.2
			c0,0,2-1.7,3.6-3.5c0,0,0.1,1.7,0.7,1.9c0.6,0.2,3.8,0.4,4.2-4c0,0,0.6,2.3,1.5,2.7c0,0,2.4,0.3,3-3c0,0,2.2,0.5,4,0.4
			c0,0,7.1-3.7,8.6-4.8l-0.2-1.6c0,0-11.5-2-11.5-14.8c0-5.2,2.9-8.8-0.6-12.1s-8-2.7-8-2.7s-17.7,1.5-22.5-4.1
			c-0.5-0.5-2.1,1.6-2.1,1.6s1.6,2.4,4.7,2.8c0,0-8.9,0.6-27.9-6.9c0,0-3.5-1-4.7,0c0,0-1.3,2.5,0.2,3.5c0,0,8.9,6.7,30.3,8.5
			c0,0-8.5,1.5-30.3-6.1c0,0-2.5,0-1.5,3c0,0,13.9,8.5,28.3,8.1c0,0-10.8,1.7-18.9-1.8c0,0-2.4-0.7-3.6,0.2c0,0,4.1,8,22.5,7.3
			c0,0-2.7,1.5-14.4,0.2c0,0-2.4,0.9-0.9,3.5c0,0,3.6,1.5,16.9,0.7c0,0-1.5,1.1-13,1.3c0,0-1.5,1.9,0.9,3.1c0,0,4.6,1.9,12.6,0.7
			c0,0-1.8,2-8,2.1c0,0-1,1.8,1.6,2.7c0,0,4.1,0.8,8.8-1.1c0,0-0.8,2.2-5.9,3.6c0,0-0.5,1.6,2.2,2.2c0,0,3.3,0.5,6.6-1.6
			c0,0-0.3,2.4-4.1,4.1c0,0-1.2,2.3,1.6,3.3c0,0,3.2-0.1,6.3-3.2C45.6,64.5,46.8,66.8,46,68.7z"/>
	</g>
</svg>
