<svg viewBox="0 0 128 128">
	<g>
		<path d="M120.7,118.2c-0.8-0.8-1.6-1.6-2.3-2.3c-2.3-3-5.2-5.7-8.3-7.9c-2.5-1.8-8-4.2-9-7
			c-0.1-0.1-0.1-0.1-0.2-0.2c1.7-0.2,3.8-0.8,5.4-1.3c2.7-0.7,5.1-0.5,7.9-1.3c1.3-0.4,2.5-0.7,3.8-1.1c0-0.2,0-0.5,0-0.7
			c-1.4-1.4-2.4-3.4-4-4.7c-4-3.4-8.4-6.9-13-9.7c-2.5-1.6-5.6-2.6-8.3-4c-0.9-0.5-2.5-0.7-3.1-1.4c-1.4-1.8-2.2-4-3.2-6.1
			c-2.3-4.3-4.5-9.1-6.5-13.7c-1.4-3.1-2.3-6.2-4-9c-8.2-13.4-17-21.5-30.6-29.5c-2.9-1.7-6.4-2.4-10.1-3.2c-2-0.1-4-0.2-5.9-0.4
			c-1.2-0.5-2.5-2-3.6-2.7C21.4,9.2,9.8,3,6.5,11.1c-2.1,5.1,3.2,10.2,5,12.8c1.3,1.8,3,3.9,4,5.9c0.6,1.4,0.7,2.7,1.3,4.1
			c1.3,3.5,2.4,7.4,4.1,10.6c0.9,1.6,1.8,3.4,2.9,4.9c0.7,0.9,1.8,1.3,2,2.7c-1.1,1.6-1.2,4-1.8,5.9C21.1,67,22.2,78,26.3,84.6
			c1.3,2,4.2,6.3,8.3,4.7c3.6-1.4,2.8-5.9,3.8-9.9c0.2-0.9,0.1-1.6,0.5-2.2c0,0.1,0,0.1,0,0.2c1.1,2.2,2.2,4.3,3.2,6.5
			c2.4,3.9,6.7,7.9,10.3,10.6c1.9,1.4,3.3,3.9,5.8,4.7c0-0.1,0-0.1,0-0.2c-0.1,0-0.1,0-0.2,0c-0.5-0.7-1.2-1-1.8-1.6
			c-1.4-1.4-3-3.1-4.1-4.7c-3.3-4.5-6.2-9.3-8.8-14.4c-1.3-2.4-2.4-5.1-3.4-7.6c-0.4-1-0.4-2.4-1.3-2.9c-1.2,1.8-2.9,3.3-3.8,5.4
			c-1.4,3.4-1.6,7.6-2.2,11.9c-0.3,0.1-0.2,0-0.4,0.2c-2.5-0.6-3.4-3.2-4.3-5.4c-2.4-5.6-2.8-14.6-0.7-21.1c0.5-1.7,3-6.9,2-8.5
			c-0.5-1.5-2-2.4-2.9-3.6c-1.1-1.5-2.1-3.4-2.9-5c-1.9-4.4-2.8-9.3-4.9-13.7c-1-2.1-2.6-4.2-4-6.1c-1.5-2.1-3.2-3.6-4.3-6.1
			c-0.4-0.9-1-2.3-0.4-3.2c0.2-0.6,0.5-0.9,1.1-1.1c1-0.8,4,0.3,5,0.7c2.9,1.2,5.3,2.3,7.7,4c1.2,0.8,2.4,2.3,3.8,2.7
			c0.5,0,1.1,0,1.6,0c2.5,0.6,5.4,0.2,7.7,0.9c4.2,1.3,7.9,3.2,11.3,5.4c10.4,6.5,18.8,15.9,24.7,27c0.9,1.8,1.3,3.5,2.2,5.4
			c1.7,3.8,3.7,7.8,5.4,11.5c1.6,3.7,3.3,7.5,5.6,10.6c1.2,1.6,5.9,2.5,8.1,3.4c1.5,0.6,4,1.3,5.4,2.2c2.7,1.6,5.4,3.6,7.9,5.4
			c1.3,0.9,5.2,2.9,5.4,4.5c-6.3-0.2-11.2,0.4-15.3,2.2c-1.2,0.5-3,0.5-3.2,2c0.6,0.7,0.7,1.7,1.3,2.5c1,1.6,2.7,3.7,4.1,4.9
			c1.6,1.2,3.3,2.5,5,3.6c3.1,1.9,6.6,3,9.5,4.9c1.8,1.1,3.5,2.5,5.2,3.8c0.8,0.6,1.4,1.6,2.5,2c0-0.1,0-0.1,0-0.2
			C121.4,120,121.3,119,120.7,118.2z"/>
		<path d="M32.4,26.6c-1.3,0-2.3,0.1-3.2,0.4c0,0.1,0,0.1,0,0.2c0.1,0,0.1,0,0.2,0
			c0.6,1.3,1.7,2.1,2.5,3.2c0.6,1.3,1.2,2.5,1.8,3.8c0.1-0.1,0.1-0.1,0.2-0.2c1.1-0.8,1.6-2,1.6-4c-0.4-0.5-0.5-1.1-0.9-1.6
			C34,27.7,33,27.2,32.4,26.6z"/>
	</g>
</svg>
