<svg viewBox="0 0 128 128">
	<g>
		<path d="M115,37.7c0-1.4-0.5-2.7-1.5-3.7l0,0c0,0,0,0-0.1-0.1c-0.1-0.1-0.2-0.2-0.3-0.3
			c-0.1-0.1-0.1-0.1-0.2-0.2c-0.2-0.2-0.4-0.3-0.6-0.4c0,0,0,0,0,0L82.4,15.8l-0.1-0.1l-15.6-9C65.9,6.2,65,6,64,6
			c-0.1,0-0.2,0-0.3,0c-0.1,0-0.2,0-0.3,0h0c0,0-0.1,0-0.1,0c-0.1,0-0.2,0-0.2,0c-0.1,0-0.3,0-0.4,0.1c-0.1,0-0.2,0-0.2,0.1
			c-0.1,0-0.3,0.1-0.4,0.1c-0.1,0-0.1,0-0.2,0.1c-0.2,0.1-0.4,0.2-0.6,0.3L15.9,32.9l0,0L15.8,33c-1.7,1-2.7,2.8-2.7,4.8v52.5
			c0,1.6,0.7,3,1.8,4c0.1,0.1,0.1,0.1,0.2,0.2c0.2,0.2,0.5,0.4,0.8,0.6l45.5,26.3c0.5,0.3,1,0.5,1.6,0.6c0,0,0,0,0,0
			c0.2,0.1,0.5,0.1,0.7,0.1c0.1,0,0.1,0,0.2,0c0.2,0,0.4,0,0.6,0c0.1,0,0.1,0,0.2,0c0.1,0,0.1,0,0.2,0c0.1,0,0.1,0,0.2,0l0,0
			c0,0,0,0,0.1,0c0.1,0,0.3-0.1,0.4-0.1c0.1,0,0.1,0,0.2,0c0,0,0,0,0.1,0l0,0c0,0,0.1,0,0.1,0c0.1,0,0.2,0,0.2-0.1
			c0.3-0.1,0.6-0.2,0.9-0.4L112.2,95c0.2-0.1,0.4-0.2,0.6-0.4c0.1,0,0.1-0.1,0.2-0.1c0.1-0.1,0.2-0.2,0.3-0.3
			c0.1-0.1,0.1-0.1,0.2-0.2c0.1-0.1,0.2-0.2,0.3-0.3c0-0.1,0.1-0.1,0.1-0.2c0.1-0.1,0.2-0.3,0.3-0.4c0-0.1,0.1-0.1,0.1-0.2
			c0.1-0.2,0.2-0.4,0.3-0.6c0,0,0,0,0-0.1c0.1-0.2,0.1-0.4,0.2-0.6c0-0.1,0-0.1,0-0.2c0-0.1,0.1-0.2,0.1-0.3l0,0
			c0.1-0.3,0.1-0.7,0.1-1V37.7z"/>
	</g>
</svg>
