<svg viewBox="0 0 128 128">
		<g>
			<path d="M107.3,13.5H20.6C12.5,13.5,6,20,6,28.1v31.9v0c2.1-0.8,5.1-5.2,6-6.3
				c1.6-1.9,1.9-4.3,2.8-5.8c1.9-3.5,2.2-5.8,6.4-5.8c2,0,2.8,0.5,4.1,2.3c0.9,1.3,2.5,3.6,3.3,5.1c0.9,1.8,2.3,4.2,2.9,4.7
				c0.5,0.4,0.9,0.6,1.3,0.8c0.7,0.3,1.3-0.2,1.7-0.6c0.6-0.5,0.8-1.4,1.4-2.7c0.8-1.8,1.6-4,2.1-4.8c0.8-1.3,1.1-2.9,2-3.7
				c1.3-1.1,3.1-1.2,3.6-1.3c2.7-0.5,3.9,1.3,5.2,2.5c0.9,0.8,2.1,2.3,2.9,4.4c0.7,1.6,1.5,3.1,1.8,4.1c0.3,0.9,1.2,2.4,1.7,4.1
				c0.5,1.6,1.7,2.8,2.1,3.6c0,0,0.7,2,5,3.8c0.9,0.4,2.8,1,3.9,1.4c1.9,0.7,3.6,0.6,5.9,0.3c1.6,0,2.5-2.4,3.3-4.2
				c0.4-1.1,0.9-4.3,1.1-5.2c0.3-0.9-0.4-1.6,0.2-2.3c0.6-0.9,1-1,1.4-2.1c0.8-2.5,5.4-2.7,8-2.7c2.2,0,1.9,2.1,5.6,1.4
				c2.1-0.4,4.1,0.3,6.4,0.9c1.9,0.5,3.6,1.1,4.7,2.3c0.7,0.8,2.4,4.8,0.7,5c0.2,0.2,0.3,0.6,0.6,0.8c-0.4,1.5-2.1,0.4-3,0.2
				c-1.3-0.3-2.1,0-3.4,0.6c-2.1,0.9-5.2,0.8-7,2.4c-1.6,1.3-1.6,4.2-2.3,5.8c0,0-2,5.2-6.4,8.3c-1.1,0.8-3.3,2.8-8.1,3.5
				c-2.1,0.3-4.2,0.4-6.4,0.2c-1.1-0.1-2.1-0.1-3.2-0.1c-0.6,0-2.8-0.1-2.7,0.1l-0.2,0.6c0,0.2,0.1,0.7,0.1,0.8
				c0.1,0.5,0.1,0.9,0.1,1.3c0,0.9-0.1,1.9,0,2.8c0.1,1.9,0.8,3.6,0.9,5.5c0.1,2.1,1.2,4.4,2.2,6.1c0.4,0.7,1,0.7,1.2,1.6
				c0.3,0.9,0,1.9,0.2,2.9c0.6,3.9,1.7,7.9,3.4,11.4c0,0,0,0.1,0,0.1c0,0,0,0,0,0c2.2-0.4,4.3-1.1,7.1-1.5
				c5.1-0.8,12.2-0.4,16.8-0.8c11.6-1.1,17.9,4.7,28.3,2.4V28.1C121.9,20,115.4,13.5,107.3,13.5z M64.1,82.1
				C64.1,81.9,64.1,81.9,64.1,82.1L64.1,82.1z"/>
		</g>
</svg>
