<svg viewBox="0 0 128 128">
	<g>
		<path d="M14.8,82.5l-5.4-1.1c-1.2-0.3-2.4,0.5-2.6,1.7L6,87.2c-0.2,1.2,0.7,2.4,2,2.5l5.7,0.5
			c1.1,0.1,2.2-0.7,2.3-1.9l0.4-3.4C16.6,83.8,15.8,82.8,14.8,82.5z"/>
		<path d="M18.6,73l-6.2-3.1c-1-0.5-2.3,0-2.7,1l-1.7,4.6c-0.4,1,0.2,2.1,1.2,2.5l6.3,2.2
			c0.9,0.3,2-0.1,2.4-1l1.6-3.6C19.9,74.5,19.5,73.5,18.6,73z"/>
		<path d="M19.4,59.2c-1.2-1.1-3.2-0.9-4.1,0.6l-2.6,4.2c-0.7,1.2-0.4,2.8,0.9,3.6l5.2,3.2
			c1.1,0.7,2.6,0.5,3.4-0.6l2.3-2.8c0.9-1.1,0.8-2.7-0.2-3.6L19.4,59.2z"/>
		<path d="M28.3,49.5c-0.8-1.4-2.8-1.7-3.9-0.5l-4.2,4c-1,1-1,2.6-0.1,3.6l5.9,6c0.9,0.9,2.2,1,3.2,0.3
			l3-2.1c1.1-0.8,1.4-2.2,0.8-3.4L28.3,49.5z"/>
		<path d="M41.6,40.7c-0.3-1.5-2-2.2-3.3-1.4l-7.9,4.8c-1,0.6-1.4,1.9-0.8,2.9l5.3,9.9
			c0.5,1,1.7,1.4,2.7,1L43,56c1.1-0.4,1.7-1.5,1.4-2.6L41.6,40.7z"/>
		<path d="M55.2,54.5c1.4,0.1,2.6-1,2.8-2.4L60,36.5c0.2-1.6-1.1-3.1-2.8-3c-4.6,0.1-8.9,1.4-11.3,2.2
			c-1.2,0.4-2,1.7-1.7,3l2.3,13.5c0.2,1.3,1.4,2.3,2.8,2.2C51.3,54.3,53.5,54.4,55.2,54.5z"/>
		<path d="M62.3,55.3c2.9,0.8,5.2,2,6.8,2.8c1.3,0.7,2.9,0.3,3.7-1L83.1,40c0.8-1.4,0.3-3.2-1.2-3.9
			c-4.6-2.3-12.1-2.5-15.8-2.4c-1.3,0-2.4,1-2.7,2.2l-3.1,16.2C60.1,53.5,60.9,54.9,62.3,55.3z"/>
		<path d="M113.7,61.2c-0.8-1.2-2.5-1.6-3.8-0.9L87.3,72.4c-1.4,0.8-2,2.6-1.2,4
			c2.1,3.7,2.7,8.2,2.9,11.1c0.1,1.6,1.4,2.8,3,2.8l27.1-1c1.6-0.1,2.9-1.4,2.8-3C121.6,74.2,116.4,65.1,113.7,61.2z"/>
		<path d="M107.3,57.6c1.6-1,2-3.2,0.8-4.7c-3-3.6-8.9-9.9-16.9-13.3c-1.4-0.6-3-0.1-3.8,1.1l-12,17.7
			c-0.9,1.3-0.7,3.1,0.5,4.1c1,0.9,2.2,2,3.4,3.3c8.5-5.5,15.9-10.3,16.9-11c0.2-0.2,0.7-0.6,1.3-0.6c0.3,0,1,0.1,1.5,0.8
			c1,1.5-0.8,3.1-1.6,3.8L84,70.7c0.8,0.2,1.8,0.2,2.6-0.3L107.3,57.6z"/>
		<path d="M97.9,55.9c-0.5-0.7-1.1,0-1.1,0S58.2,81,52.1,84.9s-2.2,8.2-2.2,8.2c4.2,4.2,9.1-1.8,9.1-1.8
			l37.5-33.3C96.5,58.1,98.4,56.6,97.9,55.9z"/>
	</g>
</svg>
