<svg viewBox="0 0 128 128">
	<g>
		<path d="M44.9,51.2c-2.5-2.9-6.5-4.3-12.1-4.3H14.5L6,90.6h9.5L17.8,79H26c3.6,0,6.6-0.4,8.9-1.1
			c2.3-0.8,4.4-2,6.3-3.8c1.6-1.5,2.9-3.1,3.9-4.9c1-1.8,1.7-3.7,2.1-5.9C48.2,58.1,47.4,54.1,44.9,51.2z M37.3,62.6
			c-0.7,3.4-1.9,5.8-3.8,7.3c-1.9,1.4-4.7,2.2-8.6,2.2h-5.8l3.6-18.3h6.5c3.6,0,6,0.7,7.2,2C37.7,57.1,38,59.4,37.3,62.6z"/>
		<path d="M81.7,49.6c-2-1.8-5.7-2.8-11-2.8h-8.4l2.3-11.6h-9.5L46.6,79H56l4.9-25.1h7.6
			c2.4,0,4,0.4,4.7,1.2c0.7,0.8,0.9,2.3,0.5,4.5L69.9,79h9.6l4-20.4C84.3,54.5,83.7,51.5,81.7,49.6z"/>
		<path d="M119.3,51.2c-2.5-2.9-6.5-4.3-12.1-4.3H88.9l-8.5,43.7h9.5L92.2,79h8.2c3.6,0,6.6-0.4,8.9-1.1
			c2.3-0.8,4.4-2,6.3-3.8c1.6-1.5,2.9-3.1,3.9-4.9c1-1.8,1.7-3.7,2.1-5.9C122.6,58.1,121.8,54.1,119.3,51.2z M111.7,62.6
			c-0.7,3.4-1.9,5.8-3.8,7.3c-1.9,1.4-4.7,2.2-8.6,2.2h-5.8l3.6-18.3h6.5c3.6,0,6,0.7,7.2,2C112,57.1,112.3,59.4,111.7,62.6z"/>
	</g>
</svg>
