<svg viewBox="0 0 128 128">
	<g>
		<path d="M102.7,78.1c-0.2-0.1-0.4-0.2-0.5-0.4c-0.2,0.1-0.5,0.2-0.8,0.2c-1.7,0.5-3.2,0.9-3,5.1
			c0.4,0.4,2.3,0.9,5.9,0.8c3.3-0.2,6.8-0.9,8.9-1.8c2.4-1.1,4.1-2.4,5.1-3.3c0,0-0.1,0-0.1,0C110.9,80.3,105.7,80.1,102.7,78.1z"/>
		<path d="M42.9,72.4c-3.9-4.1-5.7-9.8-4.9-15.7c0.9-6.3,0.5-11.8,0.4-14.8c0-0.8-0.1-1.4-0.1-1.8
			c0-1.1-0.3-18.8,10-29.1c0.1-0.1,0.2-0.2,0.3-0.3c-6.3-2-21.8-6.1-31.3,0.7c-5.8,4.1-8.5,11.8-7.9,22.8c0.2,3.5,2.4,15.9,6.1,28.2
			c4.4,14.3,9.3,23.3,13.5,24.7c0.7,0.2,2.6,0.9,5.5-2.6c4.1-4.9,7.9-9.1,9.6-10.9C43.7,73.2,43.3,72.8,42.9,72.4z"/>
		<path d="M60.4,78.6c-1-0.4-1.5-0.6-2.7,0.7c0,0,0,0,0,0c-0.8,0.9-1.4,1.6-1.9,2.2
			c-2.2,2.8-3.2,3.7-9.7,5.1c-1.3,0.3-2.1,0.6-2.6,0.8c0.5,0.4,1.4,0.8,2.4,1c4.8,1.2,11.5,1.3,16.1-5.1c0.5-0.8,0.4-1.7,0.2-2.3
			C62,79.9,61.2,78.9,60.4,78.6z"/>
		<path d="M100.2,74.6c-0.3-0.4-0.6-0.8-1-1.2c-1.2-1.4-2.7-3.4-3.9-6.4c-0.2-0.5-0.8-1.5-1.5-2.7
			c-3.7-6.7-11.5-20.7-6.5-27.9c2.3-3.3,6.9-4.6,13.6-3.9c-0.9-2.6-3.1-7.6-7.3-12.4C88.9,14.4,80.4,7.6,67.2,7.4
			c-6.7-0.1-12.2,2-16.4,6.1c-6.6,6.6-8.3,17.1-8.8,22.7c0.3-0.2,0.6-0.3,1-0.5c1.7-0.8,5-2.3,8.7-2.7c6.1-0.6,10.1,2.1,11.3,7.7
			c3.2,14.9,0.3,21.4-1.9,26.2c-0.4,0.9-0.8,1.7-1.1,2.5l-0.3,0.7c-0.6,1.7-1.2,3.3-1.6,4.7c1.6-0.4,2.9,0.1,3.6,0.4
			c1.8,0.8,3.3,2.6,4,4.7c0.6,2,0.3,3.9-0.8,5.3c-0.3,0.4-0.6,0.8-0.9,1.1c1.1,2.4,1.9,8,1.7,13.1c-0.2,6.1-0.3,10.3,0.9,13.6
			c1.2,3.3,2.4,10.7,12.7,8.5c8.6-1.8,13-6.6,13.7-14.6c0.4-5.7,1.4-4.8,1.5-9.9l0.8-2.4c0.5-4.5,0.5-7.2,1.4-8.4c0,0-0.1,0-0.1-0.1
			c-1.5-0.9-1.8-2.1-1.8-2.8C94.5,76.6,98.1,75.2,100.2,74.6z"/>
		<path d="M45.5,69.9c2.5,2.6,5.8,4.1,9.2,4.1c0.4-1.6,1-3.3,1.7-5.1l0.3-0.7c0.3-0.9,0.7-1.8,1.2-2.8
			c2.1-4.6,4.6-10.3,1.7-24c-0.6-2.6-1.9-4.2-4.2-4.7c-5-1.1-11.9,2.6-13.4,3.9c0,0.3,0,0.7,0.1,1.1c0.2,3.1,0.5,8.9-0.4,15.5
			C40.8,62,42.3,66.6,45.5,69.9z M51.1,39.8c0-0.2,0.1-0.5,0.5-0.8c0.6-0.5,1.8-0.6,3.1-0.4c1.6,0.2,3.3,1,3.1,2.1
			c-0.1,0.9-1.6,2.1-3.1,2.1c-0.1,0-0.3,0-0.4,0c-0.9-0.1-1.9-0.7-2.6-1.6C51.4,40.9,51.1,40.3,51.1,39.8z"/>
		<path d="M96.2,17.5c5.7,6.7,8.5,14,8.8,16.5c0,0.4,0,0.7-0.1,1c0.1,2.6-0.2,4.7-0.6,6.8
			c-0.3,1.7-0.5,3.5-0.6,5.5c-0.1,1.9,0.2,4,0.4,6.2c0.6,5.3,1.4,11.3-2.3,17.4c0.1,0.1,0.1,0.2,0.2,0.2c0.1,0.2,0.3,0.4,0.4,0.5
			c14.2-22.4,19.2-48.4,14.7-54.1C111.3,10.1,103.1,6.2,92.7,6c-4.1-0.1-7.8,0.4-10.5,1C88.5,9.7,93.1,13.8,96.2,17.5z"/>
		<path d="M100.8,41.2c0.3-1.7,0.5-3.3,0.5-5.1c-4.2-0.5-9.1-0.4-11,2.3c-3.7,5.3,3.6,18.4,6.7,24
			c0.8,1.4,1.4,2.5,1.6,3.1c0.3,0.7,0.6,1.4,1,2c2.1-4.6,1.6-9.2,1.1-13.7c-0.3-2.2-0.5-4.5-0.5-6.7C100.2,44.9,100.5,43,100.8,41.2
			z M97.2,40.2c-0.3,0.4-1.1,1-2.1,1.1c-0.1,0-0.3,0-0.4,0c-1.5,0-2.7-1.2-2.8-1.9c-0.1-0.9,1.3-1.6,2.8-1.8c1.5-0.2,3.1,0,3.2,0.9
			l0,0C98,39,97.7,39.6,97.2,40.2z"/>
	</g>
</svg>
