<svg viewBox="0 0 128 128">
	<g>
		<path d="M102.5,48.2c0-5.7-4.6-10.3-10.3-10.3c-5.7,0-10.3,4.6-10.3,10.3s4.6,10.3,10.3,10.3
			C97.9,58.4,102.5,53.8,102.5,48.2z M85.7,48.1c0-3.4,2.8-6.2,6.2-6.2c3.4,0,6.2,2.8,6.2,6.2c0,3.4-2.8,6.2-6.2,6.2
			C88.5,54.3,85.7,51.5,85.7,48.1z"/>
		<path d="M44.5,37.5c-5.7,0-10.3,4.6-10.3,10.3S38.9,58,44.5,58s10.3-4.6,10.3-10.3
			S50.2,37.5,44.5,37.5z M44.8,54.2c-3.4,0-6.2-2.8-6.2-6.2s2.8-6.2,6.2-6.2S51,44.6,51,48C51,51.4,48.2,54.2,44.8,54.2z"/>
		<path d="M64.1,50.6c-5.3,0-9.6,4.3-9.6,9.6c0,4.2,3,7.9,4.9,11.5c0.8,1.5,1.6,3.1,2.4,4.6
			c0.7,1.3,1.4,2.8,2.3,4.2l3.6-6.7c1.2-2.3,2.4-4.6,3.6-6.9c1.2-2.2,2.3-4.1,2.3-6.7C73.7,54.9,69.4,50.6,64.1,50.6z"/>
		<path d="M100.9,25.5c-1.7-5.2-1.5-12.4,0.7-15.6c0.7-1.1,1.6-2.2,2.4-3.5c-7.7-1.3-14.2,0.9-18.5,6.4
			c-0.5,0.7-1,1.1-1.5,1.2C77.7,11.4,71,10,64,10c-7.1,0-13.8,1.4-19.9,4c-0.5-0.2-1.1-0.6-1.6-1.3c-4.4-5.5-10.9-7.7-18.5-6.4
			c0.9,1.2,1.7,2.3,2.4,3.5c2.2,3.3,2.4,10.6,0.6,15.9c-9,9.3-14.6,22-14.6,36c0,6.6,1.2,12.9,3.5,18.7c0.6,1.6,1.1,3.2,1.6,4.8
			c0.5,1.5,0.9,2.9,1.4,4.4c1.2,4.3,2,8.7,2.1,13.2c0,1.2,0,2.4,0,3.7c0,0.4,0,0.8,0,1.3L31.3,98c1.9,1.7,4.5,3.3,7.6,4.7
			c-3.2,2.2-5.2,5.9-5.2,10c0,3.5,1.5,6.7,3.9,8.9c-0.2-0.8-0.4-1.6-0.4-2.4c0-4.7,3.8-8.5,8.5-8.5s8.5,3.8,8.5,8.5
			c0,1-0.2,2-0.5,2.9c2.7-2.2,4.4-5.6,4.4-9.3c0-2.1-0.5-4-1.4-5.7c2.8,0.3,5.7,0.4,8.7,0.4c2,0,4-0.1,6-0.2
			c-0.8,1.6-1.3,3.5-1.3,5.4c0,3.5,1.5,6.7,3.9,8.9c-0.2-0.8-0.4-1.6-0.4-2.5c0-4.7,3.8-8.5,8.5-8.5c4.7,0,8.5,3.8,8.5,8.5
			c0,1-0.2,2-0.5,2.9c2.7-2.2,4.4-5.6,4.4-9.3c0-3.7-1.7-7.1-4.3-9.3c3.2-1.2,6-2.7,8.1-4.3l9,8.3c0-0.4,0-0.8,0-1.3
			c0-1.2-0.1-2.4,0-3.7c0.1-4.5,0.9-8.9,2.1-13.2c0.4-1.5,0.9-2.9,1.4-4.4c0.6-1.7,1.1-3.4,1.7-5c2.1-5.6,3.3-11.7,3.3-18.1l0,0
			C115.7,47.6,110,34.8,100.9,25.5z M76.7,62.8c-0.6-0.4-1.2-0.8-1.7-1.3c-0.4,2-1.5,3.8-2.5,5.7c-1.4,2.6-2.8,5.3-4.2,8l-4.1,7.7
			c-1-1.5-1.9-3.2-2.7-4.8c-0.9-1.8-1.8-3.5-2.8-5.3c-1.8-3.4-4.4-6.8-5.3-10.6c-3.5,2.9-8,4.6-12.9,4.6c-11.3,0-20.5-9.2-20.5-20.5
			c0-11.3,9.2-20.5,20.5-20.5c3,0,5.9,0.7,8.4,1.8c1.2,0.5,2.3,1.1,3.3,1.8c5.3,3.7,8.8,9.8,8.8,16.7c0,1-0.1,2-0.2,2.9
			c1-0.3,2.2-0.5,3.3-0.5c1.3,0,2.6,0.2,3.8,0.7c-0.2-1.1-0.3-2.2-0.3-3.3c0-1.8,0.2-3.5,0.7-5.1c0-0.1,0-0.2,0.1-0.2
			c0.1-0.4,0.2-0.8,0.4-1.2c0.1-0.3,0.2-0.6,0.3-0.8c0-0.1,0.1-0.2,0.1-0.3c3-7.5,10.4-12.7,18.9-12.7c11.3,0,20.5,9.2,20.5,20.5
			s-9.2,20.5-20.5,20.5C83.9,66.3,79.9,65,76.7,62.8z"/>
	</g>
</svg>
