<svg viewBox="0 0 128 128">
	<g>
		<path d="M122,78.5l-5-1.4c0,0-7,34.3-43.3,30.1c0.2,0.2-9-2-20-10.4c0,0-10.5,7.8-17.9,5.7
			c0,0,36.3,36.3,74.1,1.4C109.9,103.9,122.5,89.3,122,78.5z"/>
		<path d="M23.3,60.3c-0.2,0,6.5-6.8,19.4-11.8c0,0-1.1-13,4.5-18.2c0,0-50,12.1-39.9,62.6
			c0,0,5.9,18.5,15.4,23.6l3.7-3.6C26.4,112.9,0.7,89,23.3,60.3z"/>
		<path d="M89.5,39.3c-0.2,0,2.7,9,1,22.7c0,0,12.1,5.1,13.9,12.4c0,0,12.9-49.7-36.3-64.6
			c0,0-19.1-3.4-28,2.5l1.4,5C41.5,17.4,74.8,5.9,89.5,39.3z"/>
		<path d="M54.4,28.5c-4.2,4.8-3.9,12.2,1,16.5c4.8,4.2,12.2,3.9,16.5-1c4.2-4.8,3.9-12.2-1-16.5
			C66,23.3,58.6,23.7,54.4,28.5z"/>
		<path d="M42.1,92.2c4.2-4.8,3.9-12.2-0.8-16.3c-4.8-4.4-12.2-4-16.5,0.8c-4.4,4.8-4,12.2,0.8,16.5
			C30.4,97.5,37.7,97,42.1,92.2z"/>
		<path d="M79.9,78.2c-4.2,4.8-3.9,12.2,1,16.5c4.8,4.2,12.2,3.9,16.5-1c4.2-4.8,3.9-12.2-1-16.5
			C91.5,72.9,84.2,73.4,79.9,78.2z"/>
	</g>
</svg>
