<svg viewBox="0 0 128 128">
	<g>
		<path d="M48.4,62.3c16.7,0,27.9,0,27.9,0S92,62.5,92,47.2c0-15.4,0-25.4,0-25.4S94.4,6.3,63.6,6.3
			C34.1,6.3,36,19.1,36,19.1l0,13.2h28.1v4H24.8c0,0-18.8-2.1-18.8,27.6c0,29.7,16.4,28.7,16.4,28.7h9.8V78.7
			C32.3,78.7,31.7,62.3,48.4,62.3z M48.1,25.3c-2.8,0-5.1-2.3-5.1-5.1c0-2.8,2.3-5.1,5.1-5.1c2.8,0,5.1,2.3,5.1,5.1
			C53.1,23.1,50.9,25.3,48.1,25.3z"/>
		<path d="M105.6,35.5h-9.8v13.8c0,0,0.5,16.4-16.2,16.4s-27.9,0-27.9,0S36,65.5,36,80.9s0,25.4,0,25.4
			s-2.4,15.4,28.4,15.4c29.4,0,27.6-12.8,27.6-12.8l0-13.2H63.9v-4h39.3c0,0,18.8,2.1,18.8-27.6S105.6,35.5,105.6,35.5z M79.9,102.7
			c2.8,0,5.1,2.3,5.1,5.1c0,2.8-2.3,5.1-5.1,5.1s-5.1-2.3-5.1-5.1C74.9,105,77.1,102.7,79.9,102.7z"/>
	</g>
</svg>
