<svg viewBox="0 0 128 128">
	<g>
		<circle cx="64" cy="63.9" r="10.4"/>
		<path d="M116,53.6c-3.6-3-8.7-5.7-14.7-7.7c-1.2-0.4-2.5-0.8-3.7-1.2c0.2-0.9,0.4-1.7,0.6-2.5
			c2.9-14,0.8-24.9-5.3-28.4c-3-1.7-7.2-1.7-11.9,0c-4.4,1.6-9.2,4.7-14,8.8c-1,0.8-1.9,1.7-2.9,2.7c-0.6-0.6-1.3-1.2-1.9-1.8
			C51.5,14,41,10.3,34.9,13.9c-3,1.8-5.1,5.3-5.9,10.3c-0.8,4.6-0.6,10.3,0.7,16.6c0.2,1.3,0.5,2.5,0.9,3.8
			c-1.5,0.4-2.9,0.9-4.3,1.4C13.5,50.3,6,57,6,63.9c0,3.6,2.1,7.3,6.1,10.7c3.7,3.2,9,6,15.1,8.1c1,0.3,2.1,0.7,3.1,1
			c-0.3,1.4-0.7,2.8-0.9,4.1c-2.5,13.1-0.4,23,5.5,26.4c1.6,0.9,3.4,1.4,5.5,1.4c2,0,4.3-0.4,6.7-1.3c4.6-1.6,9.7-4.8,14.6-9.1
			c0.8-0.7,1.6-1.4,2.4-2.2c1,1,2.1,2,3.1,2.9c7.4,6.4,14.6,9.8,20.2,9.8c2,0,3.9-0.4,5.5-1.4c3.1-1.8,5.2-5.5,6.2-10.6
			c0.9-4.8,0.7-10.8-0.6-17.2c-0.2-1-0.4-2-0.7-3.1c0.7-0.2,1.5-0.4,2.2-0.7C113.6,78.2,122,71,122,63.9
			C122,60.4,119.9,56.8,116,53.6z M82.7,18.4c3.3-1.2,6-1.3,7.7-0.4c3.3,1.9,5.7,10,3,23.1c-0.2,0.8-0.3,1.5-0.5,2.3
			C88,42.3,82.8,41.5,77.3,41c-3.2-4.5-6.5-8.7-9.8-12.2c0.9-0.9,1.8-1.7,2.7-2.4C74.5,22.5,78.9,19.8,82.7,18.4z M80.2,73.3
			c-1.8,3.2-3.7,6.2-5.6,9c-3.4,0.2-7,0.4-10.6,0.4c-3.6,0-7.1-0.1-10.5-0.3c-2-2.9-3.9-5.9-5.7-9v0c-1.8-3.1-3.4-6.2-4.9-9.3
			c1.5-3.1,3.2-6.3,4.9-9.4v0c1.8-3.1,3.7-6.1,5.6-8.9c3.5-0.3,7-0.4,10.6-0.4c3.6,0,7.1,0.1,10.6,0.4c1.9,2.8,3.8,5.8,5.6,8.9
			c1.8,3.2,3.5,6.3,5,9.3C83.7,67,82,70.2,80.2,73.3z M87.9,69.6c1.6,3.5,2.9,7,3.9,10.2c-3.4,0.8-7,1.4-10.8,1.8
			c1.2-1.9,2.4-3.9,3.6-5.9C85.7,73.8,86.8,71.7,87.9,69.6z M64.2,95.9c-2.3-2.5-4.7-5.3-7-8.3c2.2,0.1,4.5,0.1,6.8,0.1
			c2.4,0,4.7-0.1,7-0.2C68.8,90.6,66.5,93.4,64.2,95.9z M47.2,81.8c-3.8-0.4-7.4-1-10.7-1.7c1-3.3,2.3-6.7,3.8-10.2c1,2,2.1,4,3.3,6
			v0C44.7,77.9,45.9,79.9,47.2,81.8z M40.3,58.2c-1.4-3.4-2.7-6.8-3.7-10c3.3-0.7,6.8-1.3,10.5-1.8c-1.2,1.9-2.4,3.8-3.5,5.8h0
			C42.4,54.2,41.3,56.2,40.3,58.2z M64.1,32.3c2.3,2.5,4.6,5.2,6.8,8.2c-2.3-0.1-4.6-0.2-6.9-0.2c-2.3,0-4.6,0.1-6.8,0.2
			C59.4,37.6,61.7,34.8,64.1,32.3z M84.5,52.2c-1.1-2-2.3-3.9-3.5-5.8c3.7,0.5,7.2,1.1,10.6,1.8c-1,3.2-2.2,6.5-3.7,10
			C86.8,56.2,85.6,54.2,84.5,52.2z M34.4,39.8C33.3,34.2,33.1,29,33.8,25c0.6-3.5,1.9-5.9,3.5-6.9c3.3-1.9,11.5,0.1,21.5,9
			c0.6,0.5,1.2,1.1,1.7,1.6c-3.4,3.6-6.7,7.7-9.9,12.2c-5.5,0.5-10.7,1.3-15.5,2.4C34.9,42.2,34.7,41,34.4,39.8z M28.8,78
			C16.6,73.8,11,67.7,11,63.9c0-3.7,5.2-9.2,16.8-13.3c1.3-0.4,2.6-0.9,4-1.3c1.5,4.7,3.4,9.7,5.6,14.6c-2.3,5.1-4.3,10.1-5.7,14.9
			C30.7,78.6,29.7,78.3,28.8,78z M37.4,109.9c-3.2-1.8-5.4-9.1-3.1-21.2c0.2-1.2,0.5-2.5,0.8-3.8c4.7,1,10,1.8,15.6,2.3
			c3.2,4.5,6.6,8.7,10,12.3c-0.7,0.7-1.5,1.4-2.2,2C48.8,110,40.7,111.8,37.4,109.9z M93.7,87.4c2.5,12.7,0.1,20.6-3.2,22.5
			c-3.2,1.8-10.6,0.1-19.9-7.9c-1-0.8-1.9-1.7-2.9-2.7c3.3-3.6,6.5-7.7,9.7-12.3c5.6-0.5,10.9-1.3,15.7-2.4
			C93.3,85.6,93.5,86.5,93.7,87.4z M98.5,78c-0.6,0.2-1.3,0.4-1.9,0.6c-1.5-4.6-3.4-9.6-5.9-14.7c2.3-5,4.2-9.9,5.6-14.5
			c1.2,0.3,2.3,0.7,3.5,1.1c5.4,1.9,10,4.2,13.1,6.9c2.7,2.3,4.2,4.6,4.2,6.5C117,67.7,111.2,73.8,98.5,78z"/>
	</g>
</svg>
