<svg viewBox="0 0 128 128">
	<g>
		<polygon points="35.2,48 23.2,27.1 6,27.1 6,82.7 14.8,82.7 14.8,35.7 17.7,35.7 23.1,45.1 15.9,49.6
			15.9,61.7 28.2,82.7 38.6,82.7 22.7,55.3 		"/>
		<polygon points="86.2,57.2 81.1,49.1 75.7,58.1 69.9,49.1 59.4,49.1 68.9,65.2 59.1,82.7 69,82.7
			75.1,71.8 81.5,82.7 91.8,82.7 82,65.9 		"/>
		<polygon points="121.9,21.1 99.5,59.5 92.9,49.1 82.6,49.1 92.5,65.9 88.1,73.5 93.4,82.4 99.5,72.1
			119,105.2 121.9,106.9 121.9,91.8 106.7,65.9 121.9,39.6 		"/>
		<path d="M62.1,64.8L51.4,71v3h-6.3l-0.5-1.1l20.3-12l-7-11.8H36.1l-11.8,6.8l15.6,26.8h17.7l4.4-7.2
			V64.8z M36.2,58.4H52l-12,6.4L36.2,58.4z"/>
	</g>
</svg>
