<svg viewBox="0 0 128 128">
	<g>
		<path d="M83.9,12.8c-21.3,1.9-36,16-45.1,33c-9.2,17-14.5,28.9-18.1,46.8s-2.1,27.2-2.1,27.2h56.6
			c0,0-12.6-28.5-9.4-54.7C69,39,89.6,27.1,101.4,25.8c11.7-1.3,18.1,6,18.1,6l2.6-3.8C122,27.9,105.2,10.9,83.9,12.8z"/>
		<polygon points="7.3,91.4 6,102 16.4,103.3 18.3,92.2 		"/>
		<polygon points="27.7,59.6 17.9,55.8 14.7,64.7 24.7,67.9 		"/>
		<polygon points="44.3,32.6 36.9,27.7 30.9,34.3 38.6,39.4 		"/>
		<polygon points="65.8,15.2 60.7,9.4 53.7,13 58.8,19.2 		"/>
		<polygon points="88.6,12 87.7,6.4 78.6,6 79.9,12.2 		"/>
		<polygon points="115.2,17.7 108.2,12.6 108,16.4 113.9,19.6 		"/>
		<polygon points="106.9,32.2 112.6,32.8 112.6,30.3 106.9,29 		"/>
		<polygon points="88.6,31.8 91.4,36.9 95.4,33.7 94.5,30.3 		"/>
		<polygon points="84.1,44.7 79.9,38.4 75.4,42.4 81.6,49.2 		"/>
		<polygon points="68.6,61.6 75.8,67.7 77.5,60.7 71.3,56 		"/>
		<polygon points="67.9,82.8 76.9,86.7 76.5,79.6 68.4,75.4 		"/>
		<polygon points="84.3,110.1 80.3,101.8 70.9,101.8 73,109.4 		"/>
	</g>
</svg>
