<svg viewBox="0 0 128 128">
	<g>
		<path d="M121,62.6l-4.9-3c0-0.5-0.1-0.9-0.1-1.4l4.2-3.9c0.4-0.4,0.6-1,0.5-1.6c-0.1-0.6-0.5-1-1.1-1.2
			l-5.3-2c-0.1-0.5-0.3-0.9-0.4-1.4l3.3-4.6c0.3-0.5,0.4-1.1,0.2-1.6c-0.2-0.5-0.7-0.9-1.3-1l-5.6-0.9c-0.2-0.4-0.4-0.8-0.7-1.3
			l2.4-5.2c0.2-0.5,0.2-1.1-0.1-1.6c-0.3-0.5-0.9-0.8-1.5-0.7l-5.7,0.2c-0.3-0.4-0.6-0.7-0.9-1.1l1.3-5.6c0.1-0.6,0-1.2-0.4-1.6
			c-0.4-0.4-1-0.6-1.6-0.4l-5.6,1.3c-0.4-0.3-0.7-0.6-1.1-0.9l0.2-5.7c0-0.6-0.3-1.1-0.7-1.5c-0.5-0.3-1.1-0.4-1.6-0.1L89.2,18
			c-0.4-0.2-0.8-0.5-1.3-0.7L87,11.7c-0.1-0.6-0.5-1.1-1-1.3c-0.5-0.2-1.1-0.2-1.6,0.2l-4.6,3.3c-0.5-0.1-0.9-0.3-1.4-0.4l-2-5.4
			c-0.2-0.5-0.7-0.9-1.2-1.1c-0.6-0.1-1.2,0.1-1.6,0.5l-3.9,4.2c-0.5-0.1-0.9-0.1-1.4-0.1l-3-4.9C64.9,6.3,64.4,6,63.8,6
			c-0.6,0-1.1,0.3-1.4,0.8l-3,4.9c-0.5,0-0.9,0.1-1.4,0.1L54,7.6c-0.4-0.4-1-0.6-1.6-0.5c-0.6,0.1-1,0.5-1.2,1.1l-2,5.4
			c-0.5,0.1-0.9,0.3-1.4,0.4l-4.6-3.3c-0.5-0.3-1.1-0.4-1.6-0.2c-0.5,0.2-0.9,0.7-1,1.3l-0.9,5.6c-0.4,0.2-0.8,0.4-1.3,0.7l-5.2-2.4
			c-0.5-0.2-1.1-0.2-1.6,0.1c-0.5,0.3-0.8,0.9-0.7,1.5L31,23c-0.4,0.3-0.7,0.6-1.1,0.9l-5.6-1.3c-0.6-0.1-1.2,0-1.6,0.4
			c-0.4,0.4-0.6,1-0.4,1.6l1.3,5.6c-0.3,0.4-0.6,0.7-0.9,1.1L17,31c-0.6,0-1.1,0.3-1.5,0.7c-0.3,0.5-0.4,1.1-0.1,1.6l2.4,5.2
			c-0.2,0.4-0.5,0.8-0.7,1.3l-5.6,0.9c-0.6,0.1-1.1,0.5-1.3,1C10,42.3,10,43,10.4,43.4l3.3,4.6c-0.1,0.5-0.3,0.9-0.4,1.4l-5.4,2
			c-0.5,0.2-0.9,0.7-1.1,1.2c-0.1,0.6,0.1,1.2,0.5,1.6l4.2,3.9c-0.1,0.5-0.1,0.9-0.1,1.4l-4.9,3c-0.5,0.3-0.8,0.8-0.8,1.4
			c0,0.6,0.3,1.1,0.8,1.4l4.9,3c0,0.5,0.1,0.9,0.1,1.4l-4.2,3.9c-0.4,0.4-0.6,1-0.5,1.6c0.1,0.6,0.5,1,1.1,1.2l5.4,2
			c0.1,0.5,0.3,0.9,0.4,1.4l-3.3,4.6C10,85,10,85.7,10.2,86.2c0.2,0.5,0.7,0.9,1.3,1l5.6,0.9c0.2,0.4,0.4,0.8,0.7,1.3l-2.4,5.2
			c-0.2,0.5-0.2,1.1,0.1,1.6c0.3,0.5,0.9,0.8,1.5,0.7l5.7-0.2c0.3,0.4,0.6,0.7,0.9,1.1l-1.3,5.6c-0.1,0.6,0,1.2,0.4,1.6
			c0.4,0.4,1,0.6,1.6,0.4l5.6-1.3c0.4,0.3,0.7,0.6,1.1,0.9l-0.2,5.7c0,0.6,0.3,1.1,0.7,1.5c0.5,0.3,1.1,0.4,1.6,0.1l5.2-2.4
			c0.4,0.2,0.8,0.5,1.3,0.7l0.9,5.6c0.1,0.6,0.5,1.1,1,1.3c0.5,0.2,1.2,0.2,1.6-0.2l4.6-3.3c0.5,0.1,0.9,0.3,1.4,0.4l2,5.3
			c0.2,0.5,0.7,0.9,1.2,1.1c0.6,0.1,1.2-0.1,1.6-0.5l3.9-4.2c0.5,0.1,0.9,0.1,1.4,0.1l3,4.9c0.3,0.5,0.8,0.8,1.4,0.8
			c0.6,0,1.1-0.3,1.4-0.8l3-4.9c0.5,0,0.9-0.1,1.4-0.1l3.9,4.2c0.4,0.4,1,0.6,1.6,0.5c0.6-0.1,1-0.5,1.2-1.1l2-5.3
			c0.5-0.1,0.9-0.3,1.4-0.4l4.6,3.3c0.5,0.3,1.1,0.4,1.6,0.2c0.5-0.2,0.9-0.7,1-1.3l0.9-5.6c0.4-0.2,0.8-0.4,1.3-0.7l5.2,2.4
			c0.5,0.2,1.1,0.2,1.6-0.1c0.5-0.3,0.8-0.9,0.7-1.5l-0.2-5.7c0.4-0.3,0.7-0.6,1.1-0.9l5.6,1.3c0.6,0.1,1.2,0,1.6-0.4
			c0.4-0.4,0.6-1,0.4-1.6l-1.3-5.6c0.3-0.4,0.6-0.7,0.9-1.1l5.7,0.2c0.6,0,1.1-0.3,1.5-0.7c0.3-0.5,0.4-1.1,0.1-1.6l-2.4-5.2
			c0.2-0.4,0.5-0.8,0.7-1.3l5.6-0.9c0.6-0.1,1.1-0.5,1.3-1c0.2-0.5,0.2-1.1-0.2-1.6l-3.3-4.6c0.1-0.5,0.3-0.9,0.4-1.4l5.3-2
			c0.5-0.2,0.9-0.7,1.1-1.2c0.1-0.6-0.1-1.2-0.5-1.6l-4.2-3.9c0.1-0.5,0.1-0.9,0.1-1.4l4.9-3c0.5-0.3,0.8-0.8,0.8-1.4
			C121.8,63.4,121.5,62.9,121,62.6L121,62.6z M88.4,103c-1.9-0.4-3-2.2-2.6-4.1c0.4-1.9,2.2-3,4.1-2.6c1.9,0.4,3,2.2,2.6,4.1
			C92.1,102.2,90.2,103.4,88.4,103z M86.7,91.8c-1.7-0.4-3.4,0.7-3.7,2.4l-1.7,8.1c-5.3,2.4-11.3,3.8-17.5,3.8
			c-6.4,0-12.4-1.4-17.9-3.9L44.2,94c-0.4-1.7-2-2.8-3.7-2.4l-7.1,1.5c-1.3-1.4-2.6-2.8-3.7-4.3h34.7c0.4,0,0.7-0.1,0.7-0.4V76.1
			c0-0.4-0.3-0.4-0.7-0.4H54.2v-7.8h11c1,0,5.4,0.3,6.7,5.8c0.4,1.7,1.4,7.3,2,9.1c0.7,2,3.3,6,6.1,6h17.3c0.2,0,0.4,0,0.6-0.1
			c-1.2,1.6-2.5,3.2-3.9,4.6L86.7,91.8L86.7,91.8z M38.8,102.8c-1.9,0.4-3.7-0.8-4.1-2.6c-0.4-1.9,0.8-3.7,2.6-4.1
			c1.9-0.4,3.7,0.8,4.1,2.7C41.8,100.6,40.7,102.4,38.8,102.8z M25.7,49.5c0.8,1.7,0,3.8-1.8,4.6c-1.7,0.8-3.8,0-4.5-1.8
			c-0.8-1.7,0-3.8,1.8-4.6C22.8,47,24.9,47.8,25.7,49.5z M21.6,59.1l7.4-3.3c1.6-0.7,2.3-2.6,1.6-4.1l-1.5-3.5h6v27.1H23
			c-1.1-3.7-1.6-7.6-1.6-11.6C21.4,62.1,21.5,60.6,21.6,59.1z M54.2,56.4v-8h14.3c0.7,0,5.2,0.9,5.2,4.2c0,2.8-3.4,3.8-6.3,3.8
			L54.2,56.4L54.2,56.4z M106.2,63.6c0,1.1,0,2.1-0.1,3.1h-4.4c-0.4,0-0.6,0.3-0.6,0.7v2c0,4.7-2.7,5.7-5,6c-2.2,0.2-4.7-0.9-5-2.3
			c-1.3-7.3-3.5-8.9-6.9-11.6c4.3-2.7,8.7-6.7,8.7-12c0-5.8-4-9.4-6.7-11.2c-3.8-2.5-8-3-9.1-3h-45c6.1-6.8,14.4-11.6,23.7-13.4
			l5.3,5.6c1.2,1.3,3.2,1.3,4.4,0.1l5.9-5.7c12.4,2.3,23,10.1,29,20.7l-4.1,9.2c-0.7,1.6,0,3.4,1.6,4.1l7.8,3.5
			C106.1,60.8,106.2,62.2,106.2,63.6L106.2,63.6z M61.2,17.2c1.4-1.3,3.6-1.3,4.9,0.1c1.3,1.4,1.3,3.6-0.1,4.9
			c-1.4,1.3-3.6,1.3-4.9-0.1C59.8,20.7,59.8,18.5,61.2,17.2z M101.5,49.7c0.8-1.7,2.8-2.5,4.5-1.8c1.7,0.8,2.5,2.8,1.8,4.6
			c-0.8,1.7-2.8,2.5-4.5,1.8C101.6,53.4,100.8,51.4,101.5,49.7z"/>
	</g>
</svg>
