<svg viewBox="0 0 128 128">
	<g>
		<path d="M105.9,70.5c-4,0-7.6,1-10.5,2.4c-1.1-2.1-2.2-4-2.4-5.4c-0.2-1.6-0.5-2.6-0.2-4.6
			c0.3-1.9,1.4-4.7,1.4-4.9c0-0.2-0.3-1.2-2.6-1.2c-2.3,0-4.3,0.4-4.6,1.1c-0.2,0.6-0.7,2-1,3.5c-0.4,2.1-4.7,9.7-7.1,13.6
			c-0.8-1.5-1.5-2.9-1.6-4c-0.2-1.6-0.5-2.6-0.2-4.6c0.3-1.9,1.4-4.7,1.4-4.9c0-0.2-0.3-1.2-2.6-1.2c-2.3,0-4.3,0.4-4.6,1.1
			c-0.2,0.6-0.5,2.1-1,3.5c-0.5,1.4-6.1,14-7.6,17.3c-0.8,1.7-1.4,3-1.9,3.9c0,0,0,0.1-0.1,0.2c-0.4,0.8-0.6,1.2-0.6,1.2s0,0,0,0
			c-0.3,0.6-0.7,1.1-0.8,1.1c-0.1,0-0.4-1.5,0-3.6c0.8-4.4,2.9-11.2,2.8-11.4c0-0.1,0.4-1.3-1.3-1.9c-1.7-0.6-2.2,0.4-2.4,0.4
			c-0.1,0-0.3,0.4-0.3,0.4s1.8-7.7-3.5-7.7c-3.3,0-8,3.7-10.3,7c-1.4,0.8-4.5,2.5-7.8,4.3c-1.3,0.7-2.5,1.4-3.8,2.1
			c-0.1-0.1-0.2-0.2-0.3-0.3c-6.5-6.9-18.5-11.8-18-21.1c0.2-3.4,1.4-12.3,23-23.1c17.8-8.8,32-6.4,34.5-1c3.5,7.7-7.6,22-26,24.1
			c-7,0.8-10.7-1.9-11.7-2.9c-1-1.1-1.1-1.1-1.5-0.9c-0.6,0.3-0.2,1.3,0,1.8c0.6,1.4,2.8,4,6.7,5.2c3.4,1.1,11.6,1.7,21.6-2.1
			c11.2-4.3,19.9-16.3,17.3-26.4c-2.6-10.2-19.5-13.6-35.6-7.9c-9.5,3.4-19.9,8.7-27.3,15.7C6.9,47.2,5.5,54.4,6.1,57.4
			C8.2,68.1,22.9,75,28.8,80.2c-0.3,0.2-0.6,0.3-0.8,0.4c-2.9,1.5-14.2,7.3-17,13.5c-3.2,7,0.5,12.1,2.9,12.8
			c7.6,2.1,15.3-1.7,19.5-7.9c4.2-6.2,3.7-14.3,1.7-18c0,0,0-0.1-0.1-0.1c0.8-0.4,1.5-0.9,2.3-1.4c1.5-0.9,3-1.7,4.3-2.4
			c-0.7,2-1.3,4.3-1.5,7.7c-0.3,4,1.3,9.2,3.5,11.2c1,0.9,2.1,0.9,2.8,0.9c2.5,0,3.6-2.1,4.9-4.5c1.5-3,2.9-6.5,2.9-6.5
			s-1.7,9.4,2.9,9.4c1.7,0,3.4-2.2,4.2-3.3c0,0,0,0,0,0s0-0.1,0.1-0.2c0.2-0.3,0.3-0.4,0.3-0.4s0,0,0,0c0.7-1.2,2.2-3.9,4.5-8.3
			c2.9-5.8,5.7-13,5.7-13s0.3,1.8,1.1,4.7c0.5,1.7,1.6,3.6,2.4,5.4c-0.7,1-1.1,1.5-1.1,1.5s0,0,0,0c-0.6,0.7-1.1,1.5-1.8,2.3
			c-2.3,2.8-5.1,5.9-5.4,6.8c-0.4,1.1-0.3,1.9,0.5,2.5c0.6,0.5,1.7,0.5,2.8,0.5c2.1-0.1,3.5-0.7,4.3-1c1.1-0.4,2.4-1,3.7-1.9
			c2.3-1.7,3.6-4.1,3.5-7.2c-0.1-1.7-0.6-3.5-1.3-5.1c0.2-0.3,0.4-0.6,0.6-0.9c3.6-5.2,6.4-11,6.4-11s0.3,1.8,1.1,4.7
			c0.4,1.5,1.3,3.1,2.1,4.7c-3.4,2.7-5.4,5.9-6.2,8c-1.3,3.9-0.3,5.6,1.7,6c0.9,0.2,2.2-0.2,3.1-0.6c1.2-0.4,2.6-1,3.9-2
			c2.3-1.7,4.4-4,4.3-7.2c-0.1-1.4-0.4-2.9-1-4.2c2.9-1.2,6.5-1.8,11.3-1.3c10.1,1.2,12.1,7.5,11.7,10.1c-0.4,2.6-2.5,4.1-3.2,4.5
			c-0.7,0.4-0.9,0.6-0.9,0.9c0.1,0.5,0.4,0.4,1,0.4c0.8-0.1,5.3-2.1,5.5-7C122.3,77.3,116.4,70.4,105.9,70.5z M28.1,96.7
			c-3.3,3.6-8,5-10,3.9c-2.2-1.3-1.3-6.6,2.8-10.5c2.5-2.4,5.7-4.5,7.9-5.9c0.5-0.3,1.2-0.7,2.1-1.3c0.1-0.1,0.2-0.1,0.2-0.1
			c0.2-0.1,0.3-0.2,0.5-0.3C33,88.1,31.6,92.9,28.1,96.7z M52.4,80.2c-1.2,2.8-3.6,10.1-5.1,9.7c-1.3-0.3-2.1-5.8-0.3-11.3
			c0.9-2.7,2.8-6,4-7.3c1.8-2,3.8-2.7,4.3-1.9C56,70.5,53.2,78.4,52.4,80.2z M77.1,83.5c0,3.2-3.1,5.4-4.5,6.3
			c-0.5,0.3-1,0.4-1.2,0.3c-0.1-0.1,0.2-0.4,0.2-0.4s2.5-2.7,3.5-3.9c0.6-0.7,1.3-1.6,2-2.5C77.1,83.3,77.1,83.4,77.1,83.5z M92.8,80
			c0,4.1-2.9,5.6-4.7,6.3c-0.4-0.3-0.3-1.1,0.9-3.8c0.5-1,1.6-2.8,3.5-4.4C92.6,78.7,92.8,79.4,92.8,80z"/>
	</g>
</svg>
