<svg viewBox="0 0 128 128">
	<g>
		<path d="M92.6,111.4c0,0-11.8-38.5-23.9-62.3c-1-1.7-1.9-3.1-2.8-3.1s-2.6,1.6-5.1,7.3
			c-2.5,5.7-23.6,55.9-23.6,55.9l-7.5,1.6c9.6,7,21.4,11.2,34.3,11.2c11.6,0,22.5-3.4,31.5-9.3L92.6,111.4z"/>
		<path d="M66.3,11c6,5.5,31.5,68.7,40.7,91.9c9.3-10.3,15-23.9,15-38.9c0-32-26-58-58-58
			c-6.4,0-12.5,1-18.3,2.9C48.8,8,60,5.2,66.3,11z"/>
		<path d="M55.3,53.3c0,0,5.7-11.3,5.8-16.9c0.1-5.6-2.7-20.1-9.2-24.4c-3.6-2.4-10.6-0.7-16.2,1.3
			C18,23.3,6,42.2,6,64c0,17.4,7.7,33,19.8,43.6L55.3,53.3z"/>
	</g>
</svg>
