<svg viewBox="0 0 128 128">
	<g>
		<path d="M23.9,82.5c3-3.6,3.3-7.3,1-14.2c-1.5-4.4-3.9-7.7-2.1-10.4c1.9-2.8,6-0.1,2.6,3.8l0.7,0.5
			c4.1,0.5,6.1-5.1,3-6.7C21,51.2,14,59.2,17.1,68.5c1.3,4,3.2,8.2,1.7,11.5c-1.3,2.8-3.8,4.6-5.5,4.6c-3.5,0.2-1.1-7.9,2.8-9.9
			c0.4-0.2,0.9-0.4,0.4-1c-5-0.6-7.9,1.7-9.6,4.9C2.2,88,16.3,91.5,23.9,82.5z"/>
		<path d="M111.4,55.1c1.1,2.8,2.8,5.6,1.9,8.1c-0.9,2.1-2,3-3.2,3.2c-1.7,0.3-1.2-5.1,1.7-6.7
			c0.3-0.2,0.7-0.9,0.3-1.2c-3.8-0.2-5.9,1.6-7,4c-3.3,7,7.6,8.9,12.9,2c2.1-2.7,2.2-5.5,0.2-10.3c-1.3-3.1-3.3-5.5-2-7.5
			c1.3-2.2,4.6-0.3,2.1,2.7l0.6,0.3c3.1,0.2,4.4-4,2-5C114.5,41.7,108.6,48.4,111.4,55.1z"/>
		<path d="M72,47.6c-2.2-1.7-8.2,1.1-9.9,5.4c-2.2,5.4-5.3,13.3-8.4,16.7c-3.3,3.6-3.6,0.9-3.3-1.2
			c0.8-4.9,5.6-16.3,8.2-19.5c-0.9-1.4-7.3-1.2-11.8,5.6c-1.6,2.6-5.4,11.2-9.6,18c-0.9,1.5-2.1,0.5-1.1-3c1-4,4-14.9,7.8-23.5
			c10-2,20.6-3.3,28.6-3.4c1.1-0.3,1.8-1.2,0-1.3c-7-0.2-17.4,0.6-27.3,1.8c1.9-3.8,3.9-6.7,6-8.1c-2.3-1.4-6.7-0.9-9.4,2.9
			c-1.1,1.7-2.3,3.8-3.4,6C31.2,45,25,46.2,21.9,47.5c-3.2,1.2-2.8,5.1-0.9,4.5c4.1-1.5,9.7-3.1,15.8-4.6c-3.9,8.8-7,19.2-7.7,23.5
			c-1.8,10.3,4.6,10.2,7.7,6.2c3.4-4.5,10.4-20.1,11.6-21.7c0.3-0.6,0.8-0.3,0.6,0.2C41,71.3,41.7,77.4,48,76
			c2.8-0.7,7.9-5.6,9.2-8.2c0.3-0.7,0.9-0.6,0.7-0.3c-5,13-11.4,23.5-15.6,26.8c-3.9,2.9-6.7-3.5,7-12.7c2-1.4,1.1-3.3-1.2-2.7
			c-7.1,1.1-27.4,7.6-36.4,13.7c-0.7,0.5-1.3,0.9-1.2,1.8c0,0.6,1,0.4,1.5,0.1c11.6-6.9,21-9.7,31.9-11.9c0.2,0.1,0.3,0.1,0.5,0
			c0.5-0.1,0.5,0.2,0.2,0.4c-0.8,0.4-1.5,0.8-1.6,0.9c-7.3,2.8-11.8,9.2-10.1,12.4c1.3,2.7,8.5,1.8,11.9-0.1
			c8.3-4.6,14.3-13.4,18.5-25.5C66.4,60.2,71,47.9,72,47.6z"/>
		<path d="M120.4,72.5c-13.6-1.8-42.7,0.6-55.6,4c-3.8,1-2.7,3-0.9,2.7l0.9-0.2c10.6-2.1,36.2-3.9,51.2-1
			C117.8,78.3,123.2,72.9,120.4,72.5z"/>
		<path d="M75.8,70.9C79.6,69,85.2,57.3,88.9,51c0.3-0.5,0.8-0.1,0.5,0.2c-9.3,16-5.4,17.9-1.7,17.6
			c4.9-0.3,9.5-7.4,10.4-8.9c0.4-0.7,0.7-0.1,0.4,0.3c-0.2,0.8-1.1,2-1.9,3.8c-1.1,2.5,0.1,3.5,1,3.9c1.5,0.8,5.7,0.3,6.4-2.3
			c-4.2-0.1,5.9-19.8,6.8-21c-2.8-1.6-7.1,0.2-9.1,4.1c-4.2,8.3-7.8,15.1-10,15.2c-4.3,0.2,4.9-18.6,6.4-19.2
			c-0.9-1.3-6.7-0.8-10.1,4.3C87,50.7,79.8,63.5,78,65.6c-3.1,3.7-3.3,0.6-2.5-3.2c0.3-1.2,0.8-2.8,1.4-4.6c2.1-4.6,4.3-6.2,5.6-7.7
			c9.1-10.1,14.3-18.3,12.2-21.5c-1.8-2.8-8-1.6-11.9,4.3c-7.2,10.8-13.8,25.6-14.7,32.4C67.6,72,72.5,72.6,75.8,70.9z M79.6,51.1
			c0.3-0.8,0.6-0.9,1.1-2.2c3.2-7.1,7.3-14.6,10.1-18.1c1.7-1.8,4.2,0.7-0.2,7.4c-2.6,4-5.5,7.7-8.7,10.9l0,0
			c-0.9,0.9-1.5,1.7-1.9,2.1C79.7,51.5,79.4,51.5,79.6,51.1z"/>
	</g>
</svg>
