<svg viewBox="0 0 128 128">
	<g>
		<path d="M93.5,108.8c-13.7,7.9-32.5,8.7-51.4,0.6c-15.3-6.5-28-17.9-36.1-30.9c3.9,3.3,8.5,5.9,13.4,8.1
			c19.5,9.1,39,8.5,52.8,0c0,0,0,0,0,0C52.6,71.6,36,52.1,23.6,36.1c-2.6-2.6-4.6-5.9-6.5-8.8C32,41,55.8,58.3,64.3,63.1
			C46.4,44.3,30.4,20.8,31.1,21.5c28.3,28.7,54.7,44.9,54.7,44.9c0.9,0.5,1.5,0.9,2.1,1.3c0.6-1.5,1.1-3,1.5-4.5
			c4.6-16.6-0.6-35.5-12-51.1c26.4,16,42,45.9,35.5,71c-0.2,0.7-0.4,1.3-0.6,2c0.1,0.1,0.2,0.2,0.2,0.3c13,16.3,9.4,33.5,7.8,30.3
			C113.2,101.7,100.1,106,93.5,108.8L93.5,108.8z"/>
	</g>
</svg>
