<svg viewBox="0 0 128 128">
	<g>
		<path d="M103.6,6c-8.7,0.3-16.3,5.1-22,11.7C75.4,25,71.2,33.7,68.2,42.5c-5.4-4.4-9.5-10.1-18.1-12.6
			C43.4,28,36.4,28.8,30,33.6c-3,2.3-5.1,5.7-6.1,9c-2.6,8.4,2.7,15.9,5.1,18.6l5.3,5.6c1.1,1.1,3.7,4,2.4,8.1
			c-1.4,4.5-6.8,7.4-12.4,5.7c-2.5-0.8-6.1-2.6-5.3-5.2c0.3-1.1,1.1-1.9,1.5-2.8c0.4-0.8,0.6-1.4,0.7-1.7c1-3.3-0.4-7.6-3.9-8.7
			c-3.3-1-6.7-0.2-8,4.1C7.8,71,10.1,79.8,22.5,83.7c14.6,4.5,26.9-3.5,28.7-13.8c1.1-6.5-1.8-11.3-7.2-17.5l-4.4-4.8
			c-2.6-2.6-3.6-7.2-0.8-10.6c2.3-2.9,5.6-4.2,11-2.7c7.9,2.1,11.4,7.6,17.2,12c-2.4,7.9-4,15.9-5.4,23l-0.9,5.3
			c-4.2,21.9-7.4,34-15.7,40.9c-1.7,1.2-4.1,3-7.7,3.1c-1.9,0.1-2.5-1.2-2.5-1.8c0-1.3,1.1-1.9,1.8-2.5c1.1-0.6,2.8-1.6,2.7-4.8
			c-0.1-3.8-3.3-7.1-7.8-6.9c-3.4,0.1-8.6,3.3-8.4,9.2c0.2,6.1,5.9,10.6,14.4,10.3c4.6-0.2,14.7-2,24.8-13.9
			c11.7-13.7,14.9-29.3,17.4-40.8l2.7-15.1c1.5,0.2,3.1,0.3,4.9,0.3c14.5,0.3,21.8-7.2,21.9-12.7c0.1-3.3-2.2-6.6-5.3-6.5
			c-2.2,0.1-5.1,1.6-5.8,4.7c-0.7,3.1,4.6,5.8,0.5,8.5c-2.9,1.9-8.2,3.2-15.6,2.2l1.3-7.4c2.8-14.1,6.1-31.5,19-31.9
			c0.9,0,4.4,0,4.4,2.3c0,0.8-0.2,1-1.1,2.7c-0.9,1.4-1.2,2.5-1.2,3.8c0.1,3.6,2.9,6,6.8,5.8c5.3-0.2,6.8-5.3,6.7-8
			C118.9,9.7,112.3,5.7,103.6,6z"/>
	</g>
</svg>
