<svg viewBox="0 0 128 128">
	<g>
		<path d="M91,6.2L91,6l-0.2,0C82.1,7.5,73.7,10.7,70,18.3l-1.6-2.7l-0.1-0.2l-0.2,0.2
			c-4.2,4.1-8.8,9.3-12.2,14.5c-3.2,4.9-5.3,9.6-5,13.2l-2.2-2.8l-0.2-0.3l-0.2,0.3c-2.7,5.8-5.4,12.9-7,19.5
			c-1.5,6.2-2.1,11.9-0.7,15.4L37,73.3l-0.3-0.2l0,0.4C36,83.9,40.2,88.8,45,93.6l-4,1l-0.8,0.2L41,95c2.3,0.6,4.5,1.3,6,2.5
			c1.5,1.2,2.4,2.8,2.1,5.4v0v11.2v0.1l0,0.1l5,7.2l0.4,0.6v-0.7v-17c0.7-2.9,1.4-4.8,2.6-6.1c1.1-1.3,2.6-2,4.7-2.2l0.8-0.1L62,95.5
			l-2.7-1.3c6.3-3.8,13.4-13.2,15.3-22l0.1-0.4l-0.3,0.1l-3.3,0.9c2.9-2.7,5.9-8.2,8.7-14.5c3-6.7,5.7-14.3,8-20.4l0.1-0.3l-0.3,0
			L85,37.8c3.1-3.3,4.9-8.8,5.7-14.6C91.6,17.1,91.5,10.8,91,6.2z M79.6,39.6L79.3,40h0.5l3.6,0.1c-5.9,12.2-9.7,24.4-18.1,36.6
			L65,77l0.5-0.1l4.5-0.8c-3.2,8-8.6,13.3-14.4,15.1c-1.6-22.6,9.7-42.5,19.2-62.4c0,0,0,0,0-0.1l-0.4-0.2C58.7,46,51.7,70.7,49,91.1
			c-5.3-3-7.1-7-8.9-12.4l3.7,1.6l0.4,0.2l-0.1-0.4c-2.8-12.5,1.6-21.5,5.8-33.4l3.1,2l0.4,0.2l0-0.4c-0.2-9.6,6.2-19.3,14.8-27.9
			l1.2,3.2l0.2,0.4l0.2-0.4l2.6-4.4l0,0c4.3-5.9,8.9-7.9,16.2-9.9C88.8,19.9,88.5,30,79.6,39.6z"/>
	</g>
</svg>
