<svg viewBox="0 0 128 128">
	<g>
		<path d="M15.5,75.5c0,0-0.3-2.3-0.3-3.3c0-9.3,8.7-15.6,17.9-15.6s15.1,5,15.1,5l4.1-4.6
			c-2.7-3.8-10.6-13.2-24.4-13.2S6,54.7,6,63.1S15.5,75.5,15.5,75.5z"/>
		<path d="M107,50.5c10,0,14.8,7.8,14.8,7.8c0-6.9-10.2-24-31.2-24S57.4,55.1,46.8,65.6
			S30.8,78.8,23.1,78.8c-11.8,0-16.4-8.2-16.4-8.2c3.1,12,15.5,20.3,26.5,20.3s19-5.6,38.4-21.2S97,50.5,107,50.5z"/>
		<path d="M107,52.4c-5.4,0-8.8,1.4-8.8,1.4c8.1,18.9-4.7,30-4.7,30c20.4,2.1,28.5-7.5,28.5-17.6
			C122,56,112.4,52.4,107,52.4z"/>
		<path d="M66.8,76l-4.3,3.4c0,0,8.8,14.2,27.5,14.2s26.2-12.2,26.2-12.2s-6.4,4.7-15.9,4.7
			S77.5,83.4,66.8,76z"/>
	</g>
</svg>
